<ttFont>
    <TTGlyph name="A" xMin="147" yMin="0" xMax="1802" yMax="1434">
      <contour>
        <pt x="1802" y="0" on="1"/>
        <pt x="1597" y="0" on="1"/>
        <pt x="1597" y="410" on="1"/>
        <pt x="453" y="410" on="1"/>
        <pt x="453" y="614" on="1"/>
        <pt x="1597" y="614" on="1"/>
        <pt x="1597" y="1229" on="1"/>
        <pt x="862" y="1229" on="1"/>
        <pt x="757" y="1229" on="0"/>
        <pt x="571" y="1148" on="0"/>
        <pt x="433" y="1009" on="0"/>
        <pt x="352" y="823" on="0"/>
        <pt x="352" y="717" on="1"/>
        <pt x="352" y="0" on="1"/>
        <pt x="147" y="0" on="1"/>
        <pt x="147" y="717" on="1"/>
        <pt x="147" y="816" on="0"/>
        <pt x="198" y="999" on="0"/>
        <pt x="291" y="1158" on="0"/>
        <pt x="422" y="1289" on="0"/>
        <pt x="581" y="1383" on="0"/>
        <pt x="763" y="1434" on="0"/>
        <pt x="862" y="1434" on="1"/>
        <pt x="1802" y="1434" on="1"/>
      </contour>
    </TTGlyph>
    <TTGlyph name="AE" xMin="147" yMin="0" xMax="3082" yMax="1434">
      <contour>
        <pt x="3082" y="0" on="1"/>
        <pt x="1597" y="0" on="1"/>
        <pt x="1597" y="410" on="1"/>
        <pt x="453" y="410" on="1"/>
        <pt x="453" y="614" on="1"/>
        <pt x="1597" y="614" on="1"/>
        <pt x="1597" y="1229" on="1"/>
        <pt x="862" y="1229" on="1"/>
        <pt x="757" y="1229" on="0"/>
        <pt x="571" y="1148" on="0"/>
        <pt x="433" y="1009" on="0"/>
        <pt x="352" y="823" on="0"/>
        <pt x="352" y="717" on="1"/>
        <pt x="352" y="0" on="1"/>
        <pt x="147" y="0" on="1"/>
        <pt x="147" y="717" on="1"/>
        <pt x="147" y="816" on="0"/>
        <pt x="198" y="999" on="0"/>
        <pt x="291" y="1158" on="0"/>
        <pt x="422" y="1289" on="0"/>
        <pt x="581" y="1383" on="0"/>
        <pt x="763" y="1434" on="0"/>
        <pt x="862" y="1434" on="1"/>
        <pt x="3082" y="1434" on="1"/>
        <pt x="3082" y="1229" on="1"/>
        <pt x="1804" y="1229" on="1"/>
        <pt x="1804" y="205" on="1"/>
        <pt x="3082" y="205" on="1"/>
      </contour>
      <contour>
        <pt x="2908" y="614" on="1"/>
        <pt x="1907" y="614" on="1"/>
        <pt x="1907" y="819" on="1"/>
        <pt x="2908" y="819" on="1"/>
      </contour>
    </TTGlyph>
    <TTGlyph name="AEacute" xMin="147" yMin="0" xMax="3082" yMax="1837">
      <component glyphName="AE" x="0" y="0" flags="0x204"/>
      <component glyphName="acute" x="1698" y="307" flags="0x4"/>
    </TTGlyph>
    <TTGlyph name="Aacute" xMin="147" yMin="0" xMax="1802" yMax="1858">
      <component glyphName="A" x="0" y="0" flags="0x204"/>
      <component glyphName="acute" x="967" y="328" flags="0x4"/>
    </TTGlyph>
    <TTGlyph name="Abreve" xMin="147" yMin="0" xMax="1802" yMax="1827">
      <component glyphName="A" x="0" y="0" flags="0x204"/>
      <component glyphName="breve" x="694" y="328" flags="0x4"/>
    </TTGlyph>
    <TTGlyph name="Acircumflex" xMin="147" yMin="0" xMax="1802" yMax="1860">
      <component glyphName="A" x="0" y="0" flags="0x204"/>
      <component glyphName="circumflex" x="647" y="328" flags="0x4"/>
    </TTGlyph>
    <TTGlyph name="Adieresis" xMin="147" yMin="0" xMax="1802" yMax="1735">
      <component glyphName="A" x="0" y="0" flags="0x204"/>
      <component glyphName="dieresis" x="715" y="328" flags="0x4"/>
    </TTGlyph>
    <TTGlyph name="Agrave" xMin="147" yMin="0" xMax="1802" yMax="1858">
      <component glyphName="A" x="0" y="0" flags="0x204"/>
      <component glyphName="grave" x="557" y="328" flags="0x4"/>
    </TTGlyph>
    <TTGlyph name="Amacron" xMin="147" yMin="0" xMax="1802" yMax="1729">
      <component glyphName="A" x="0" y="0" flags="0x204"/>
      <component glyphName="macron" x="745" y="328" flags="0x4"/>
    </TTGlyph>
    <TTGlyph name="Aogonek" xMin="147" yMin="-309" xMax="1925" yMax="1434">
      <contour>
        <pt x="1802" y="0" on="1"/>
        <pt x="1763" y="0" on="1"/>
        <pt x="1728" y="-29" on="0"/>
        <pt x="1690" y="-100" on="0"/>
        <pt x="1690" y="-131" on="1"/>
        <pt x="1690" y="-157" on="0"/>
        <pt x="1725" y="-180" on="0"/>
        <pt x="1767" y="-180" on="1"/>
        <pt x="1785" y="-180" on="0"/>
        <pt x="1828" y="-173" on="0"/>
        <pt x="1872" y="-162" on="0"/>
        <pt x="1911" y="-149" on="0"/>
        <pt x="1925" y="-143" on="1"/>
        <pt x="1925" y="-276" on="1"/>
        <pt x="1911" y="-280" on="0"/>
        <pt x="1875" y="-291" on="0"/>
        <pt x="1826" y="-302" on="0"/>
        <pt x="1763" y="-309" on="0"/>
        <pt x="1722" y="-309" on="1"/>
        <pt x="1684" y="-309" on="0"/>
        <pt x="1616" y="-295" on="0"/>
        <pt x="1565" y="-263" on="0"/>
        <pt x="1536" y="-212" on="0"/>
        <pt x="1536" y="-174" on="1"/>
        <pt x="1536" y="-156" on="0"/>
        <pt x="1545" y="-110" on="0"/>
        <pt x="1565" y="-63" on="0"/>
        <pt x="1597" y="-18" on="0"/>
        <pt x="1620" y="0" on="1"/>
        <pt x="1597" y="0" on="1"/>
        <pt x="1597" y="410" on="1"/>
        <pt x="453" y="410" on="1"/>
        <pt x="453" y="614" on="1"/>
        <pt x="1597" y="614" on="1"/>
        <pt x="1597" y="1229" on="1"/>
        <pt x="862" y="1229" on="1"/>
        <pt x="757" y="1229" on="0"/>
        <pt x="571" y="1148" on="0"/>
        <pt x="433" y="1009" on="0"/>
        <pt x="352" y="823" on="0"/>
        <pt x="352" y="717" on="1"/>
        <pt x="352" y="0" on="1"/>
        <pt x="147" y="0" on="1"/>
        <pt x="147" y="717" on="1"/>
        <pt x="147" y="816" on="0"/>
        <pt x="198" y="999" on="0"/>
        <pt x="291" y="1158" on="0"/>
        <pt x="422" y="1289" on="0"/>
        <pt x="581" y="1383" on="0"/>
        <pt x="763" y="1434" on="0"/>
        <pt x="862" y="1434" on="1"/>
        <pt x="1802" y="1434" on="1"/>
      </contour>
    </TTGlyph>
    <TTGlyph name="Aring" xMin="147" yMin="0" xMax="1802" yMax="1856">
      <component glyphName="A" x="0" y="0" flags="0x204"/>
      <component glyphName="ring" x="764" y="328" flags="0x4"/>
    </TTGlyph>
    <TTGlyph name="Atilde" xMin="147" yMin="0" xMax="1802" yMax="1790">
      <component glyphName="A" x="0" y="0" flags="0x204"/>
      <component glyphName="tilde" x="690" y="328" flags="0x4"/>
    </TTGlyph>
    <TTGlyph name="B" xMin="172" yMin="0" xMax="1860" yMax="1434">
      <contour>
        <pt x="1860" y="410" on="1"/>
        <pt x="1860" y="324" on="0"/>
        <pt x="1795" y="175" on="0"/>
        <pt x="1684" y="64" on="0"/>
        <pt x="1534" y="0" on="0"/>
        <pt x="1450" y="0" on="1"/>
        <pt x="479" y="0" on="1"/>
        <pt x="479" y="205" on="1"/>
        <pt x="1450" y="205" on="1"/>
        <pt x="1492" y="205" on="0"/>
        <pt x="1567" y="237" on="0"/>
        <pt x="1623" y="293" on="0"/>
        <pt x="1655" y="368" on="0"/>
        <pt x="1655" y="410" on="1"/>
        <pt x="1655" y="452" on="0"/>
        <pt x="1623" y="526" on="0"/>
        <pt x="1567" y="582" on="0"/>
        <pt x="1492" y="614" on="0"/>
        <pt x="1450" y="614" on="1"/>
        <pt x="479" y="614" on="1"/>
        <pt x="479" y="819" on="1"/>
        <pt x="1245" y="819" on="1"/>
        <pt x="1287" y="819" on="0"/>
        <pt x="1362" y="851" on="0"/>
        <pt x="1418" y="907" on="0"/>
        <pt x="1450" y="982" on="0"/>
        <pt x="1450" y="1024" on="1"/>
        <pt x="1450" y="1066" on="0"/>
        <pt x="1418" y="1141" on="0"/>
        <pt x="1362" y="1197" on="0"/>
        <pt x="1287" y="1229" on="0"/>
        <pt x="1245" y="1229" on="1"/>
        <pt x="377" y="1229" on="1"/>
        <pt x="377" y="0" on="1"/>
        <pt x="172" y="0" on="1"/>
        <pt x="172" y="1434" on="1"/>
        <pt x="1245" y="1434" on="1"/>
        <pt x="1329" y="1434" on="0"/>
        <pt x="1479" y="1369" on="0"/>
        <pt x="1590" y="1258" on="0"/>
        <pt x="1655" y="1108" on="0"/>
        <pt x="1655" y="1024" on="1"/>
        <pt x="1655" y="959" on="0"/>
        <pt x="1617" y="844" on="0"/>
        <pt x="1585" y="795" on="1"/>
        <pt x="1645" y="774" on="0"/>
        <pt x="1746" y="698" on="0"/>
        <pt x="1819" y="598" on="0"/>
        <pt x="1860" y="477" on="0"/>
      </contour>
    </TTGlyph>
    <TTGlyph name="C" xMin="90" yMin="0" xMax="1673" yMax="1434">
      <contour>
        <pt x="1673" y="0" on="1"/>
        <pt x="750" y="0" on="1"/>
        <pt x="601" y="0" on="0"/>
        <pt x="357" y="112" on="0"/>
        <pt x="184" y="306" on="0"/>
        <pt x="90" y="568" on="0"/>
        <pt x="90" y="717" on="1"/>
        <pt x="90" y="865" on="0"/>
        <pt x="184" y="1126" on="0"/>
        <pt x="357" y="1321" on="0"/>
        <pt x="601" y="1434" on="0"/>
        <pt x="750" y="1434" on="1"/>
        <pt x="1673" y="1434" on="1"/>
        <pt x="1673" y="1229" on="1"/>
        <pt x="750" y="1229" on="1"/>
        <pt x="644" y="1229" on="0"/>
        <pt x="475" y="1148" on="0"/>
        <pt x="358" y="1009" on="0"/>
        <pt x="295" y="823" on="0"/>
        <pt x="295" y="717" on="1"/>
        <pt x="295" y="611" on="0"/>
        <pt x="358" y="424" on="0"/>
        <pt x="475" y="285" on="0"/>
        <pt x="644" y="205" on="0"/>
        <pt x="750" y="205" on="1"/>
        <pt x="1673" y="205" on="1"/>
      </contour>
    </TTGlyph>
    <TTGlyph name="Cacute" xMin="90" yMin="0" xMax="1673" yMax="1858">
      <component glyphName="C" x="0" y="0" flags="0x204"/>
      <component glyphName="acute" x="969" y="328" flags="0x4"/>
    </TTGlyph>
    <TTGlyph name="Ccaron" xMin="90" yMin="0" xMax="1673" yMax="1839">
      <component glyphName="C" x="0" y="0" flags="0x204"/>
      <component glyphName="caron" x="680" y="328" flags="0x4"/>
    </TTGlyph>
    <TTGlyph name="Ccedilla" xMin="90" yMin="-326" xMax="1673" yMax="1434">
      <contour>
        <pt x="1673" y="0" on="1"/>
        <pt x="1044" y="0" on="1"/>
        <pt x="1026" y="-49" on="1"/>
        <pt x="1047" y="-49" on="0"/>
        <pt x="1100" y="-60" on="0"/>
        <pt x="1147" y="-88" on="0"/>
        <pt x="1178" y="-140" on="0"/>
        <pt x="1178" y="-180" on="1"/>
        <pt x="1178" y="-222" on="0"/>
        <pt x="1137" y="-278" on="0"/>
        <pt x="1071" y="-312" on="0"/>
        <pt x="990" y="-326" on="0"/>
        <pt x="950" y="-326" on="1"/>
        <pt x="913" y="-326" on="0"/>
        <pt x="864" y="-322" on="0"/>
        <pt x="828" y="-316" on="0"/>
        <pt x="802" y="-311" on="0"/>
        <pt x="788" y="-309" on="1"/>
        <pt x="788" y="-182" on="1"/>
        <pt x="816" y="-196" on="0"/>
        <pt x="894" y="-215" on="0"/>
        <pt x="934" y="-215" on="1"/>
        <pt x="974" y="-215" on="0"/>
        <pt x="1028" y="-197" on="0"/>
        <pt x="1028" y="-178" on="1"/>
        <pt x="1028" y="-166" on="0"/>
        <pt x="1010" y="-152" on="0"/>
        <pt x="985" y="-144" on="0"/>
        <pt x="956" y="-141" on="0"/>
        <pt x="944" y="-141" on="1"/>
        <pt x="927" y="-141" on="0"/>
        <pt x="892" y="-146" on="0"/>
        <pt x="877" y="-150" on="1"/>
        <pt x="932" y="0" on="1"/>
        <pt x="750" y="0" on="1"/>
        <pt x="601" y="0" on="0"/>
        <pt x="357" y="112" on="0"/>
        <pt x="184" y="306" on="0"/>
        <pt x="90" y="568" on="0"/>
        <pt x="90" y="717" on="1"/>
        <pt x="90" y="865" on="0"/>
        <pt x="184" y="1126" on="0"/>
        <pt x="357" y="1321" on="0"/>
        <pt x="601" y="1434" on="0"/>
        <pt x="750" y="1434" on="1"/>
        <pt x="1673" y="1434" on="1"/>
        <pt x="1673" y="1229" on="1"/>
        <pt x="750" y="1229" on="1"/>
        <pt x="644" y="1229" on="0"/>
        <pt x="475" y="1148" on="0"/>
        <pt x="358" y="1009" on="0"/>
        <pt x="295" y="823" on="0"/>
        <pt x="295" y="717" on="1"/>
        <pt x="295" y="611" on="0"/>
        <pt x="358" y="424" on="0"/>
        <pt x="475" y="285" on="0"/>
        <pt x="644" y="205" on="0"/>
        <pt x="750" y="205" on="1"/>
        <pt x="1673" y="205" on="1"/>
      </contour>
    </TTGlyph>
    <TTGlyph name="Ccircumflex" xMin="90" yMin="0" xMax="1673" yMax="1860">
      <component glyphName="C" x="0" y="0" flags="0x204"/>
      <component glyphName="circumflex" x="670" y="328" flags="0x4"/>
    </TTGlyph>
    <TTGlyph name="Cdotaccent" xMin="90" yMin="0" xMax="1673" yMax="1735">
      <component glyphName="C" x="0" y="0" flags="0x204"/>
      <component glyphName="dotaccent" x="905" y="328" flags="0x4"/>
    </TTGlyph>
    <TTGlyph name="D" xMin="172" yMin="0" xMax="1862" yMax="1434">
      <contour>
        <pt x="1862" y="717" on="1"/>
        <pt x="1862" y="568" on="0"/>
        <pt x="1767" y="306" on="0"/>
        <pt x="1593" y="112" on="0"/>
        <pt x="1350" y="0" on="0"/>
        <pt x="1202" y="0" on="1"/>
        <pt x="479" y="0" on="1"/>
        <pt x="479" y="205" on="1"/>
        <pt x="1202" y="205" on="1"/>
        <pt x="1308" y="205" on="0"/>
        <pt x="1477" y="285" on="0"/>
        <pt x="1594" y="424" on="0"/>
        <pt x="1657" y="611" on="0"/>
        <pt x="1657" y="717" on="1"/>
        <pt x="1657" y="823" on="0"/>
        <pt x="1594" y="1009" on="0"/>
        <pt x="1477" y="1148" on="0"/>
        <pt x="1308" y="1229" on="0"/>
        <pt x="1202" y="1229" on="1"/>
        <pt x="377" y="1229" on="1"/>
        <pt x="377" y="0" on="1"/>
        <pt x="172" y="0" on="1"/>
        <pt x="172" y="1434" on="1"/>
        <pt x="1202" y="1434" on="1"/>
        <pt x="1350" y="1434" on="0"/>
        <pt x="1593" y="1321" on="0"/>
        <pt x="1767" y="1126" on="0"/>
        <pt x="1862" y="865" on="0"/>
      </contour>
    </TTGlyph>
    <TTGlyph name="Dcaron" xMin="172" yMin="0" xMax="1862" yMax="1839">
      <component glyphName="D" x="0" y="0" flags="0x204"/>
      <component glyphName="caron" x="657" y="328" flags="0x4"/>
    </TTGlyph>
    <TTGlyph name="Dcroat" xMin="-2" yMin="0" xMax="1954" yMax="1434">
      <component glyphName="Eth" x="0" y="0" flags="0x204"/>
    </TTGlyph>
    <TTGlyph name="E" xMin="172" yMin="0" xMax="1655" yMax="1434">
      <contour>
        <pt x="1655" y="0" on="1"/>
        <pt x="172" y="0" on="1"/>
        <pt x="172" y="1434" on="1"/>
        <pt x="1655" y="1434" on="1"/>
        <pt x="1655" y="1229" on="1"/>
        <pt x="377" y="1229" on="1"/>
        <pt x="377" y="205" on="1"/>
        <pt x="1655" y="205" on="1"/>
      </contour>
      <contour>
        <pt x="1481" y="614" on="1"/>
        <pt x="479" y="614" on="1"/>
        <pt x="479" y="819" on="1"/>
        <pt x="1481" y="819" on="1"/>
      </contour>
    </TTGlyph>
    <TTGlyph name="Eacute" xMin="172" yMin="0" xMax="1655" yMax="1858">
      <component glyphName="E" x="0" y="0" flags="0x204"/>
      <component glyphName="acute" x="905" y="328" flags="0x4"/>
    </TTGlyph>
    <TTGlyph name="Ebreve" xMin="172" yMin="0" xMax="1655" yMax="1827">
      <component glyphName="E" x="0" y="0" flags="0x204"/>
      <component glyphName="breve" x="637" y="328" flags="0x4"/>
    </TTGlyph>
    <TTGlyph name="Ecaron" xMin="172" yMin="0" xMax="1655" yMax="1839">
      <component glyphName="E" x="0" y="0" flags="0x204"/>
      <component glyphName="caron" x="612" y="328" flags="0x4"/>
    </TTGlyph>
    <TTGlyph name="Ecircumflex" xMin="172" yMin="0" xMax="1655" yMax="1860">
      <component glyphName="E" x="0" y="0" flags="0x204"/>
      <component glyphName="circumflex" x="586" y="328" flags="0x4"/>
    </TTGlyph>
    <TTGlyph name="Edieresis" xMin="172" yMin="0" xMax="1655" yMax="1735">
      <component glyphName="E" x="0" y="0" flags="0x204"/>
      <component glyphName="dieresis" x="653" y="328" flags="0x4"/>
    </TTGlyph>
    <TTGlyph name="Edotaccent" xMin="172" yMin="0" xMax="1655" yMax="1735">
      <component glyphName="E" x="0" y="0" flags="0x204"/>
      <component glyphName="dotaccent" x="838" y="328" flags="0x4"/>
    </TTGlyph>
    <TTGlyph name="Egrave" xMin="172" yMin="0" xMax="1655" yMax="1858">
      <component glyphName="E" x="0" y="0" flags="0x204"/>
      <component glyphName="grave" x="496" y="328" flags="0x4"/>
    </TTGlyph>
    <TTGlyph name="Emacron" xMin="172" yMin="0" xMax="1655" yMax="1729">
      <component glyphName="E" x="0" y="0" flags="0x204"/>
      <component glyphName="macron" x="688" y="328" flags="0x4"/>
    </TTGlyph>
    <TTGlyph name="Eng" xMin="172" yMin="-406" xMax="1757" yMax="1434">
      <contour>
        <pt x="1757" y="311" on="1"/>
        <pt x="1757" y="212" on="0"/>
        <pt x="1706" y="28" on="0"/>
        <pt x="1613" y="-131" on="0"/>
        <pt x="1482" y="-262" on="0"/>
        <pt x="1323" y="-355" on="0"/>
        <pt x="1139" y="-406" on="0"/>
        <pt x="1040" y="-406" on="1"/>
        <pt x="190" y="-406" on="1"/>
        <pt x="190" y="-201" on="1"/>
        <pt x="1040" y="-201" on="1"/>
        <pt x="1128" y="-201" on="0"/>
        <pt x="1288" y="-144" on="0"/>
        <pt x="1418" y="-44" on="0"/>
        <pt x="1512" y="95" on="0"/>
        <pt x="1534" y="176" on="1"/>
        <pt x="1505" y="313" on="0"/>
        <pt x="1370" y="565" on="0"/>
        <pt x="1183" y="786" on="0"/>
        <pt x="957" y="972" on="0"/>
        <pt x="719" y="1113" on="0"/>
        <pt x="482" y="1205" on="0"/>
        <pt x="377" y="1221" on="1"/>
        <pt x="377" y="0" on="1"/>
        <pt x="172" y="0" on="1"/>
        <pt x="172" y="1434" on="1"/>
        <pt x="274" y="1434" on="1"/>
        <pt x="374" y="1434" on="0"/>
        <pt x="599" y="1382" on="0"/>
        <pt x="833" y="1284" on="0"/>
        <pt x="1066" y="1145" on="0"/>
        <pt x="1284" y="969" on="0"/>
        <pt x="1476" y="762" on="0"/>
        <pt x="1552" y="645" on="1"/>
        <pt x="1552" y="1434" on="1"/>
        <pt x="1757" y="1434" on="1"/>
      </contour>
    </TTGlyph>
    <TTGlyph name="Eogonek" xMin="172" yMin="-309" xMax="1655" yMax="1434">
      <contour>
        <pt x="1655" y="0" on="1"/>
        <pt x="1493" y="0" on="1"/>
        <pt x="1458" y="-29" on="0"/>
        <pt x="1419" y="-100" on="0"/>
        <pt x="1419" y="-131" on="1"/>
        <pt x="1419" y="-157" on="0"/>
        <pt x="1455" y="-180" on="0"/>
        <pt x="1497" y="-180" on="1"/>
        <pt x="1515" y="-180" on="0"/>
        <pt x="1558" y="-173" on="0"/>
        <pt x="1601" y="-162" on="0"/>
        <pt x="1641" y="-149" on="0"/>
        <pt x="1655" y="-143" on="1"/>
        <pt x="1655" y="-276" on="1"/>
        <pt x="1641" y="-280" on="0"/>
        <pt x="1605" y="-291" on="0"/>
        <pt x="1556" y="-302" on="0"/>
        <pt x="1493" y="-309" on="0"/>
        <pt x="1452" y="-309" on="1"/>
        <pt x="1414" y="-309" on="0"/>
        <pt x="1346" y="-295" on="0"/>
        <pt x="1295" y="-263" on="0"/>
        <pt x="1266" y="-212" on="0"/>
        <pt x="1266" y="-174" on="1"/>
        <pt x="1266" y="-156" on="0"/>
        <pt x="1275" y="-110" on="0"/>
        <pt x="1295" y="-63" on="0"/>
        <pt x="1327" y="-18" on="0"/>
        <pt x="1350" y="0" on="1"/>
        <pt x="172" y="0" on="1"/>
        <pt x="172" y="1434" on="1"/>
        <pt x="1655" y="1434" on="1"/>
        <pt x="1655" y="1229" on="1"/>
        <pt x="377" y="1229" on="1"/>
        <pt x="377" y="205" on="1"/>
        <pt x="1655" y="205" on="1"/>
      </contour>
      <contour>
        <pt x="1481" y="614" on="1"/>
        <pt x="479" y="614" on="1"/>
        <pt x="479" y="819" on="1"/>
        <pt x="1481" y="819" on="1"/>
      </contour>
    </TTGlyph>
    <TTGlyph name="Eth" xMin="-2" yMin="0" xMax="1954" yMax="1434">
      <contour>
        <pt x="1124" y="614" on="1"/>
        <pt x="469" y="614" on="1"/>
        <pt x="469" y="0" on="1"/>
        <pt x="264" y="0" on="1"/>
        <pt x="264" y="614" on="1"/>
        <pt x="-2" y="614" on="1"/>
        <pt x="-2" y="819" on="1"/>
        <pt x="264" y="819" on="1"/>
        <pt x="264" y="1434" on="1"/>
        <pt x="1294" y="1434" on="1"/>
        <pt x="1442" y="1434" on="0"/>
        <pt x="1686" y="1321" on="0"/>
        <pt x="1859" y="1126" on="0"/>
        <pt x="1954" y="865" on="0"/>
        <pt x="1954" y="717" on="1"/>
        <pt x="1954" y="568" on="0"/>
        <pt x="1859" y="306" on="0"/>
        <pt x="1686" y="112" on="0"/>
        <pt x="1442" y="0" on="0"/>
        <pt x="1294" y="0" on="1"/>
        <pt x="571" y="0" on="1"/>
        <pt x="571" y="205" on="1"/>
        <pt x="1294" y="205" on="1"/>
        <pt x="1400" y="205" on="0"/>
        <pt x="1569" y="285" on="0"/>
        <pt x="1686" y="424" on="0"/>
        <pt x="1749" y="611" on="0"/>
        <pt x="1749" y="717" on="1"/>
        <pt x="1749" y="823" on="0"/>
        <pt x="1686" y="1009" on="0"/>
        <pt x="1569" y="1148" on="0"/>
        <pt x="1400" y="1229" on="0"/>
        <pt x="1294" y="1229" on="1"/>
        <pt x="469" y="1229" on="1"/>
        <pt x="469" y="819" on="1"/>
        <pt x="1124" y="819" on="1"/>
      </contour>
    </TTGlyph>
    <TTGlyph name="Euro" xMin="68" yMin="0" xMax="2025" yMax="1434">
      <contour>
        <pt x="1335" y="819" on="1"/>
        <pt x="655" y="819" on="1"/>
        <pt x="650" y="794" on="0"/>
        <pt x="647" y="743" on="0"/>
        <pt x="647" y="717" on="1"/>
        <pt x="647" y="691" on="0"/>
        <pt x="650" y="639" on="0"/>
        <pt x="655" y="614" on="1"/>
        <pt x="1264" y="614" on="1"/>
        <pt x="1192" y="410" on="1"/>
        <pt x="729" y="410" on="1"/>
        <pt x="786" y="316" on="0"/>
        <pt x="975" y="205" on="0"/>
        <pt x="1102" y="205" on="1"/>
        <pt x="2025" y="205" on="1"/>
        <pt x="2025" y="0" on="1"/>
        <pt x="1102" y="0" on="1"/>
        <pt x="994" y="0" on="0"/>
        <pt x="807" y="59" on="0"/>
        <pt x="653" y="167" on="0"/>
        <pt x="537" y="318" on="0"/>
        <pt x="500" y="410" on="1"/>
        <pt x="68" y="410" on="1"/>
        <pt x="139" y="614" on="1"/>
        <pt x="449" y="614" on="1"/>
        <pt x="445" y="639" on="0"/>
        <pt x="442" y="691" on="0"/>
        <pt x="442" y="717" on="1"/>
        <pt x="442" y="743" on="0"/>
        <pt x="445" y="793" on="0"/>
        <pt x="449" y="819" on="1"/>
        <pt x="211" y="819" on="1"/>
        <pt x="283" y="1024" on="1"/>
        <pt x="500" y="1024" on="1"/>
        <pt x="537" y="1115" on="0"/>
        <pt x="653" y="1266" on="0"/>
        <pt x="807" y="1374" on="0"/>
        <pt x="994" y="1434" on="0"/>
        <pt x="1102" y="1434" on="1"/>
        <pt x="2025" y="1434" on="1"/>
        <pt x="2025" y="1229" on="1"/>
        <pt x="1102" y="1229" on="1"/>
        <pt x="1039" y="1229" on="0"/>
        <pt x="928" y="1200" on="0"/>
        <pt x="834" y="1146" on="0"/>
        <pt x="757" y="1070" on="0"/>
        <pt x="729" y="1024" on="1"/>
        <pt x="1407" y="1024" on="1"/>
      </contour>
    </TTGlyph>
    <TTGlyph name="F" xMin="172" yMin="0" xMax="1657" yMax="1434">
      <contour>
        <pt x="1657" y="1229" on="1"/>
        <pt x="377" y="1229" on="1"/>
        <pt x="377" y="0" on="1"/>
        <pt x="172" y="0" on="1"/>
        <pt x="172" y="1434" on="1"/>
        <pt x="1657" y="1434" on="1"/>
      </contour>
      <contour>
        <pt x="1481" y="614" on="1"/>
        <pt x="479" y="614" on="1"/>
        <pt x="479" y="819" on="1"/>
        <pt x="1481" y="819" on="1"/>
      </contour>
    </TTGlyph>
    <TTGlyph name="G" xMin="90" yMin="0" xMax="1673" yMax="1434">
      <contour>
        <pt x="1673" y="0" on="1"/>
        <pt x="750" y="0" on="1"/>
        <pt x="601" y="0" on="0"/>
        <pt x="357" y="112" on="0"/>
        <pt x="184" y="306" on="0"/>
        <pt x="90" y="568" on="0"/>
        <pt x="90" y="717" on="1"/>
        <pt x="90" y="865" on="0"/>
        <pt x="184" y="1126" on="0"/>
        <pt x="357" y="1321" on="0"/>
        <pt x="601" y="1434" on="0"/>
        <pt x="750" y="1434" on="1"/>
        <pt x="1673" y="1434" on="1"/>
        <pt x="1673" y="1229" on="1"/>
        <pt x="750" y="1229" on="1"/>
        <pt x="644" y="1229" on="0"/>
        <pt x="475" y="1148" on="0"/>
        <pt x="358" y="1009" on="0"/>
        <pt x="295" y="823" on="0"/>
        <pt x="295" y="717" on="1"/>
        <pt x="295" y="611" on="0"/>
        <pt x="358" y="424" on="0"/>
        <pt x="475" y="285" on="0"/>
        <pt x="644" y="205" on="0"/>
        <pt x="750" y="205" on="1"/>
        <pt x="1468" y="205" on="1"/>
        <pt x="1468" y="614" on="1"/>
        <pt x="600" y="614" on="1"/>
        <pt x="600" y="819" on="1"/>
        <pt x="1673" y="819" on="1"/>
      </contour>
    </TTGlyph>
    <TTGlyph name="Gbreve" xMin="90" yMin="0" xMax="1673" yMax="1827">
      <component glyphName="G" x="0" y="0" flags="0x4"/>
      <component glyphName="breve" x="672" y="328" flags="0x4"/>
    </TTGlyph>
    <TTGlyph name="Gcircumflex" xMin="90" yMin="0" xMax="1673" yMax="1860">
      <component glyphName="G" x="0" y="0" flags="0x4"/>
      <component glyphName="circumflex" x="637" y="328" flags="0x4"/>
    </TTGlyph>
    <TTGlyph name="Gcommaaccent" xMin="90" yMin="-457" xMax="1673" yMax="1434">
      <component glyphName="G" x="0" y="0" flags="0x4"/>
      <component glyphName="uni0326" x="696" y="61" flags="0x4"/>
    </TTGlyph>
    <TTGlyph name="Gdotaccent" xMin="90" yMin="0" xMax="1673" yMax="1735">
      <component glyphName="G" x="0" y="0" flags="0x4"/>
      <component glyphName="dotaccent" x="872" y="328" flags="0x4"/>
    </TTGlyph>
    <TTGlyph name="H" xMin="172" yMin="0" xMax="1686" yMax="1434">
      <contour>
        <pt x="1686" y="0" on="1"/>
        <pt x="1481" y="0" on="1"/>
        <pt x="1481" y="614" on="1"/>
        <pt x="479" y="614" on="1"/>
        <pt x="479" y="819" on="1"/>
        <pt x="1481" y="819" on="1"/>
        <pt x="1481" y="1434" on="1"/>
        <pt x="1686" y="1434" on="1"/>
      </contour>
      <contour>
        <pt x="377" y="0" on="1"/>
        <pt x="172" y="0" on="1"/>
        <pt x="172" y="1434" on="1"/>
        <pt x="377" y="1434" on="1"/>
      </contour>
    </TTGlyph>
    <TTGlyph name="Hbar" xMin="172" yMin="0" xMax="1686" yMax="1434">
      <contour>
        <pt x="377" y="1167" on="1"/>
        <pt x="1395" y="1167" on="1"/>
        <pt x="1395" y="963" on="1"/>
        <pt x="377" y="963" on="1"/>
        <pt x="377" y="0" on="1"/>
        <pt x="172" y="0" on="1"/>
        <pt x="172" y="1434" on="1"/>
        <pt x="377" y="1434" on="1"/>
      </contour>
      <contour>
        <pt x="1686" y="0" on="1"/>
        <pt x="1481" y="0" on="1"/>
        <pt x="1481" y="614" on="1"/>
        <pt x="479" y="614" on="1"/>
        <pt x="479" y="819" on="1"/>
        <pt x="1481" y="819" on="1"/>
        <pt x="1481" y="1434" on="1"/>
        <pt x="1686" y="1434" on="1"/>
      </contour>
    </TTGlyph>
    <TTGlyph name="Hcircumflex" xMin="172" yMin="0" xMax="1686" yMax="1860">
      <component glyphName="H" x="0" y="0" flags="0x204"/>
      <component glyphName="circumflex" x="621" y="328" flags="0x4"/>
    </TTGlyph>
    <TTGlyph name="I" xMin="172" yMin="0" xMax="377" yMax="1434">
      <contour>
        <pt x="377" y="0" on="1"/>
        <pt x="172" y="0" on="1"/>
        <pt x="172" y="1434" on="1"/>
        <pt x="377" y="1434" on="1"/>
      </contour>
    </TTGlyph>
    <TTGlyph name="IJ" xMin="172" yMin="0" xMax="2191" yMax="1434">
      <component glyphName="I" x="0" y="0" flags="0x4"/>
      <component glyphName="J" x="549" y="0" flags="0x4"/>
    </TTGlyph>
    <TTGlyph name="Iacute" xMin="172" yMin="0" xMax="692" yMax="1858">
      <component glyphName="I" x="0" y="0" flags="0x204"/>
      <component glyphName="acute" x="268" y="328" flags="0x4"/>
    </TTGlyph>
    <TTGlyph name="Ibreve" xMin="-17" yMin="0" xMax="569" yMax="1827">
      <component glyphName="I" x="0" y="0" flags="0x204"/>
      <component glyphName="breve" x="-17" y="328" flags="0x4"/>
    </TTGlyph>
    <TTGlyph name="Icircumflex" xMin="-52" yMin="0" xMax="603" yMax="1860">
      <component glyphName="I" x="0" y="0" flags="0x204"/>
      <component glyphName="circumflex" x="-52" y="328" flags="0x4"/>
    </TTGlyph>
    <TTGlyph name="Idieresis" xMin="14" yMin="0" xMax="534" yMax="1735">
      <component glyphName="I" x="0" y="0" flags="0x204"/>
      <component glyphName="dieresis" x="14" y="328" flags="0x4"/>
    </TTGlyph>
    <TTGlyph name="Idotaccent" xMin="172" yMin="0" xMax="377" yMax="1747">
      <component glyphName="I" x="0" y="0" flags="0x204"/>
      <component glyphName="dotaccent" x="182" y="340" flags="0x4"/>
    </TTGlyph>
    <TTGlyph name="Igrave" xMin="-140" yMin="0" xMax="377" yMax="1858">
      <component glyphName="I" x="0" y="0" flags="0x204"/>
      <component glyphName="grave" x="-140" y="328" flags="0x4"/>
    </TTGlyph>
    <TTGlyph name="Imacron" xMin="33" yMin="0" xMax="516" yMax="1729">
      <component glyphName="I" x="0" y="0" flags="0x204"/>
      <component glyphName="macron" x="33" y="328" flags="0x4"/>
    </TTGlyph>
    <TTGlyph name="Iogonek" xMin="111" yMin="-309" xMax="500" yMax="1434">
      <contour>
        <pt x="377" y="0" on="1"/>
        <pt x="338" y="0" on="1"/>
        <pt x="303" y="-29" on="0"/>
        <pt x="264" y="-100" on="0"/>
        <pt x="264" y="-131" on="1"/>
        <pt x="264" y="-157" on="0"/>
        <pt x="300" y="-180" on="0"/>
        <pt x="342" y="-180" on="1"/>
        <pt x="360" y="-180" on="0"/>
        <pt x="403" y="-173" on="0"/>
        <pt x="446" y="-162" on="0"/>
        <pt x="486" y="-149" on="0"/>
        <pt x="500" y="-143" on="1"/>
        <pt x="500" y="-276" on="1"/>
        <pt x="486" y="-280" on="0"/>
        <pt x="450" y="-291" on="0"/>
        <pt x="401" y="-302" on="0"/>
        <pt x="338" y="-309" on="0"/>
        <pt x="297" y="-309" on="1"/>
        <pt x="259" y="-309" on="0"/>
        <pt x="191" y="-295" on="0"/>
        <pt x="140" y="-263" on="0"/>
        <pt x="111" y="-212" on="0"/>
        <pt x="111" y="-174" on="1"/>
        <pt x="111" y="-156" on="0"/>
        <pt x="120" y="-110" on="0"/>
        <pt x="140" y="-63" on="0"/>
        <pt x="172" y="-18" on="0"/>
        <pt x="195" y="0" on="1"/>
        <pt x="172" y="0" on="1"/>
        <pt x="172" y="1434" on="1"/>
        <pt x="377" y="1434" on="1"/>
      </contour>
    </TTGlyph>
    <TTGlyph name="Itilde" xMin="-9" yMin="0" xMax="560" yMax="1790">
      <component glyphName="I" x="0" y="0" flags="0x204"/>
      <component glyphName="tilde" x="-9" y="328" flags="0x4"/>
    </TTGlyph>
    <TTGlyph name="J" xMin="76" yMin="0" xMax="1642" yMax="1434">
      <contour>
        <pt x="1642" y="717" on="1"/>
        <pt x="1642" y="617" on="0"/>
        <pt x="1591" y="434" on="0"/>
        <pt x="1498" y="275" on="0"/>
        <pt x="1368" y="144" on="0"/>
        <pt x="1209" y="51" on="0"/>
        <pt x="1025" y="0" on="0"/>
        <pt x="926" y="0" on="1"/>
        <pt x="76" y="0" on="1"/>
        <pt x="76" y="205" on="1"/>
        <pt x="926" y="205" on="1"/>
        <pt x="1032" y="205" on="0"/>
        <pt x="1218" y="285" on="0"/>
        <pt x="1357" y="424" on="0"/>
        <pt x="1438" y="611" on="0"/>
        <pt x="1438" y="717" on="1"/>
        <pt x="1438" y="1229" on="1"/>
        <pt x="76" y="1229" on="1"/>
        <pt x="76" y="1434" on="1"/>
        <pt x="1642" y="1434" on="1"/>
      </contour>
    </TTGlyph>
    <TTGlyph name="Jcircumflex" xMin="76" yMin="0" xMax="1642" yMax="1860">
      <component glyphName="J" x="0" y="0" flags="0x204"/>
      <component glyphName="circumflex" x="567" y="328" flags="0x4"/>
    </TTGlyph>
    <TTGlyph name="K" xMin="172" yMin="0" xMax="1839" yMax="1434">
      <contour>
        <pt x="1839" y="0" on="1"/>
        <pt x="1563" y="0" on="1"/>
        <pt x="831" y="737" on="1"/>
        <pt x="377" y="410" on="1"/>
        <pt x="377" y="0" on="1"/>
        <pt x="172" y="0" on="1"/>
        <pt x="172" y="1434" on="1"/>
        <pt x="377" y="1434" on="1"/>
        <pt x="377" y="635" on="1"/>
        <pt x="1501" y="1434" on="1"/>
        <pt x="1800" y="1434" on="1"/>
        <pt x="987" y="850" on="1"/>
      </contour>
    </TTGlyph>
    <TTGlyph name="Kcommaaccent" xMin="172" yMin="-395" xMax="1839" yMax="1434">
      <component glyphName="K" x="0" y="0" flags="0x204"/>
      <component glyphName="uni0326" x="645" y="123" flags="0x4"/>
    </TTGlyph>
    <TTGlyph name="L" xMin="172" yMin="0" xMax="1542" yMax="1434">
      <contour>
        <pt x="1542" y="0" on="1"/>
        <pt x="172" y="0" on="1"/>
        <pt x="172" y="1434" on="1"/>
        <pt x="377" y="1434" on="1"/>
        <pt x="377" y="205" on="1"/>
        <pt x="1542" y="205" on="1"/>
      </contour>
    </TTGlyph>
    <TTGlyph name="Lacute" xMin="172" yMin="0" xMax="1542" yMax="1860">
      <component glyphName="L" x="0" y="0" flags="0x204"/>
      <component glyphName="acute" x="283" y="330" flags="0x4"/>
    </TTGlyph>
    <TTGlyph name="Lcaron" xMin="172" yMin="0" xMax="1542" yMax="1519">
      <component glyphName="L" x="0" y="0" flags="0x204"/>
      <component glyphName="uni0315" x="526" y="-142" flags="0x4"/>
    </TTGlyph>
    <TTGlyph name="Lcommaaccent" xMin="172" yMin="-436" xMax="1542" yMax="1434">
      <component glyphName="L" x="0" y="0" flags="0x204"/>
      <component glyphName="uni0326" x="512" y="82" flags="0x4"/>
    </TTGlyph>
    <TTGlyph name="Ldot" xMin="172" yMin="0" xMax="1816" yMax="1434">
      <component glyphName="L" x="0" y="0" flags="0x4"/>
      <component glyphName="periodcentered" x="1380" y="0" flags="0x4"/>
    </TTGlyph>
    <TTGlyph name="Lslash" xMin="6" yMin="0" xMax="1642" yMax="1434">
      <contour>
        <pt x="1133" y="774" on="1"/>
        <pt x="477" y="573" on="1"/>
        <pt x="477" y="205" on="1"/>
        <pt x="1642" y="205" on="1"/>
        <pt x="1642" y="0" on="1"/>
        <pt x="272" y="0" on="1"/>
        <pt x="272" y="510" on="1"/>
        <pt x="6" y="430" on="1"/>
        <pt x="6" y="655" on="1"/>
        <pt x="272" y="735" on="1"/>
        <pt x="272" y="1434" on="1"/>
        <pt x="477" y="1434" on="1"/>
        <pt x="477" y="799" on="1"/>
        <pt x="1133" y="999" on="1"/>
      </contour>
    </TTGlyph>
    <TTGlyph name="M" xMin="172" yMin="0" xMax="2032" yMax="1434">
      <contour>
        <pt x="1204" y="0" on="1"/>
        <pt x="999" y="0" on="1"/>
        <pt x="999" y="717" on="1"/>
        <pt x="999" y="823" on="0"/>
        <pt x="919" y="1009" on="0"/>
        <pt x="780" y="1148" on="0"/>
        <pt x="593" y="1229" on="0"/>
        <pt x="487" y="1229" on="1"/>
        <pt x="377" y="1229" on="1"/>
        <pt x="377" y="0" on="1"/>
        <pt x="172" y="0" on="1"/>
        <pt x="172" y="1434" on="1"/>
        <pt x="487" y="1434" on="1"/>
        <pt x="585" y="1434" on="0"/>
        <pt x="766" y="1383" on="0"/>
        <pt x="924" y="1291" on="0"/>
        <pt x="1054" y="1163" on="0"/>
        <pt x="1102" y="1085" on="1"/>
        <pt x="1149" y="1163" on="0"/>
        <pt x="1279" y="1291" on="0"/>
        <pt x="1437" y="1383" on="0"/>
        <pt x="1618" y="1434" on="0"/>
        <pt x="1716" y="1434" on="1"/>
        <pt x="2032" y="1434" on="1"/>
        <pt x="2032" y="0" on="1"/>
        <pt x="1827" y="0" on="1"/>
        <pt x="1827" y="1229" on="1"/>
        <pt x="1716" y="1229" on="1"/>
        <pt x="1610" y="1229" on="0"/>
        <pt x="1424" y="1148" on="0"/>
        <pt x="1285" y="1009" on="0"/>
        <pt x="1204" y="823" on="0"/>
        <pt x="1204" y="717" on="1"/>
      </contour>
    </TTGlyph>
    <TTGlyph name="N" xMin="172" yMin="0" xMax="1757" yMax="1434">
      <contour>
        <pt x="377" y="0" on="1"/>
        <pt x="172" y="0" on="1"/>
        <pt x="172" y="1434" on="1"/>
        <pt x="274" y="1434" on="1"/>
        <pt x="374" y="1434" on="0"/>
        <pt x="599" y="1382" on="0"/>
        <pt x="833" y="1284" on="0"/>
        <pt x="1066" y="1145" on="0"/>
        <pt x="1284" y="969" on="0"/>
        <pt x="1476" y="762" on="0"/>
        <pt x="1552" y="645" on="1"/>
        <pt x="1552" y="1434" on="1"/>
        <pt x="1757" y="1434" on="1"/>
        <pt x="1757" y="0" on="1"/>
        <pt x="1552" y="0" on="1"/>
        <pt x="1552" y="158" on="0"/>
        <pt x="1442" y="451" on="0"/>
        <pt x="1258" y="711" on="0"/>
        <pt x="1018" y="930" on="0"/>
        <pt x="757" y="1096" on="0"/>
        <pt x="493" y="1203" on="0"/>
        <pt x="377" y="1221" on="1"/>
      </contour>
    </TTGlyph>
    <TTGlyph name="Nacute" xMin="172" yMin="0" xMax="1757" yMax="1858">
      <component glyphName="N" x="0" y="0" flags="0x204"/>
      <component glyphName="acute" x="1018" y="328" flags="0x4"/>
    </TTGlyph>
    <TTGlyph name="Ncaron" xMin="172" yMin="0" xMax="1757" yMax="1839">
      <component glyphName="N" x="0" y="0" flags="0x204"/>
      <component glyphName="caron" x="647" y="328" flags="0x4"/>
    </TTGlyph>
    <TTGlyph name="Ncommaaccent" xMin="172" yMin="-416" xMax="1757" yMax="1434">
      <component glyphName="N" x="0" y="0" flags="0x204"/>
      <component glyphName="uni0326" x="696" y="102" flags="0x4"/>
    </TTGlyph>
    <TTGlyph name="Ntilde" xMin="172" yMin="0" xMax="1757" yMax="1790">
      <component glyphName="N" x="0" y="0" flags="0x204"/>
      <component glyphName="tilde" x="680" y="328" flags="0x4"/>
    </TTGlyph>
    <TTGlyph name="O" xMin="90" yMin="0" xMax="1884" yMax="1434">
      <contour>
        <pt x="1884" y="717" on="1"/>
        <pt x="1884" y="568" on="0"/>
        <pt x="1790" y="306" on="0"/>
        <pt x="1617" y="112" on="0"/>
        <pt x="1375" y="0" on="0"/>
        <pt x="1227" y="0" on="1"/>
        <pt x="750" y="0" on="1"/>
        <pt x="601" y="0" on="0"/>
        <pt x="357" y="112" on="0"/>
        <pt x="184" y="306" on="0"/>
        <pt x="90" y="568" on="0"/>
        <pt x="90" y="717" on="1"/>
        <pt x="90" y="865" on="0"/>
        <pt x="184" y="1126" on="0"/>
        <pt x="357" y="1321" on="0"/>
        <pt x="601" y="1434" on="0"/>
        <pt x="750" y="1434" on="1"/>
        <pt x="1227" y="1434" on="1"/>
        <pt x="1375" y="1434" on="0"/>
        <pt x="1617" y="1321" on="0"/>
        <pt x="1790" y="1126" on="0"/>
        <pt x="1884" y="865" on="0"/>
      </contour>
      <contour>
        <pt x="1679" y="717" on="1"/>
        <pt x="1679" y="823" on="0"/>
        <pt x="1617" y="1009" on="0"/>
        <pt x="1500" y="1148" on="0"/>
        <pt x="1333" y="1229" on="0"/>
        <pt x="1227" y="1229" on="1"/>
        <pt x="750" y="1229" on="1"/>
        <pt x="644" y="1229" on="0"/>
        <pt x="475" y="1148" on="0"/>
        <pt x="358" y="1009" on="0"/>
        <pt x="295" y="823" on="0"/>
        <pt x="295" y="717" on="1"/>
        <pt x="295" y="611" on="0"/>
        <pt x="358" y="424" on="0"/>
        <pt x="475" y="285" on="0"/>
        <pt x="644" y="205" on="0"/>
        <pt x="750" y="205" on="1"/>
        <pt x="1227" y="205" on="1"/>
        <pt x="1333" y="205" on="0"/>
        <pt x="1500" y="285" on="0"/>
        <pt x="1617" y="424" on="0"/>
        <pt x="1679" y="611" on="0"/>
      </contour>
    </TTGlyph>
    <TTGlyph name="OE" xMin="90" yMin="0" xMax="3160" yMax="1434">
      <contour>
        <pt x="3160" y="0" on="1"/>
        <pt x="1677" y="0" on="1"/>
        <pt x="1677" y="180" on="1"/>
        <pt x="1592" y="95" on="0"/>
        <pt x="1364" y="0" on="0"/>
        <pt x="1227" y="0" on="1"/>
        <pt x="750" y="0" on="1"/>
        <pt x="601" y="0" on="0"/>
        <pt x="357" y="112" on="0"/>
        <pt x="184" y="306" on="0"/>
        <pt x="90" y="568" on="0"/>
        <pt x="90" y="717" on="1"/>
        <pt x="90" y="865" on="0"/>
        <pt x="184" y="1126" on="0"/>
        <pt x="357" y="1321" on="0"/>
        <pt x="601" y="1434" on="0"/>
        <pt x="750" y="1434" on="1"/>
        <pt x="1227" y="1434" on="1"/>
        <pt x="1364" y="1434" on="0"/>
        <pt x="1592" y="1336" on="0"/>
        <pt x="1677" y="1251" on="1"/>
        <pt x="1677" y="1434" on="1"/>
        <pt x="3160" y="1434" on="1"/>
        <pt x="3160" y="1229" on="1"/>
        <pt x="1882" y="1229" on="1"/>
        <pt x="1882" y="205" on="1"/>
        <pt x="3160" y="205" on="1"/>
      </contour>
      <contour>
        <pt x="750" y="1229" on="1"/>
        <pt x="644" y="1229" on="0"/>
        <pt x="475" y="1148" on="0"/>
        <pt x="358" y="1009" on="0"/>
        <pt x="295" y="823" on="0"/>
        <pt x="295" y="717" on="1"/>
        <pt x="295" y="611" on="0"/>
        <pt x="358" y="424" on="0"/>
        <pt x="475" y="285" on="0"/>
        <pt x="644" y="205" on="0"/>
        <pt x="750" y="205" on="1"/>
        <pt x="1227" y="205" on="1"/>
        <pt x="1326" y="205" on="0"/>
        <pt x="1491" y="283" on="0"/>
        <pt x="1611" y="421" on="0"/>
        <pt x="1677" y="608" on="0"/>
        <pt x="1677" y="717" on="1"/>
        <pt x="1677" y="823" on="0"/>
        <pt x="1611" y="1010" on="0"/>
        <pt x="1491" y="1149" on="0"/>
        <pt x="1326" y="1229" on="0"/>
        <pt x="1227" y="1229" on="1"/>
      </contour>
      <contour>
        <pt x="2986" y="614" on="1"/>
        <pt x="1985" y="614" on="1"/>
        <pt x="1985" y="819" on="1"/>
        <pt x="2986" y="819" on="1"/>
      </contour>
    </TTGlyph>
    <TTGlyph name="Oacute" xMin="90" yMin="0" xMax="1884" yMax="1858">
      <component glyphName="O" x="0" y="0" flags="0x204"/>
      <component glyphName="acute" x="979" y="328" flags="0x4"/>
    </TTGlyph>
    <TTGlyph name="Obreve" xMin="90" yMin="0" xMax="1884" yMax="1827">
      <component glyphName="O" x="0" y="0" flags="0x204"/>
      <component glyphName="breve" x="694" y="328" flags="0x4"/>
    </TTGlyph>
    <TTGlyph name="Ocircumflex" xMin="90" yMin="0" xMax="1884" yMax="1860">
      <component glyphName="O" x="0" y="0" flags="0x204"/>
      <component glyphName="circumflex" x="659" y="328" flags="0x4"/>
    </TTGlyph>
    <TTGlyph name="Odieresis" xMin="90" yMin="0" xMax="1884" yMax="1735">
      <component glyphName="O" x="0" y="0" flags="0x204"/>
      <component glyphName="dieresis" x="727" y="328" flags="0x4"/>
    </TTGlyph>
    <TTGlyph name="Ograve" xMin="90" yMin="0" xMax="1884" yMax="1858">
      <component glyphName="O" x="0" y="0" flags="0x204"/>
      <component glyphName="grave" x="569" y="328" flags="0x4"/>
    </TTGlyph>
    <TTGlyph name="Ohungarumlaut" xMin="90" yMin="0" xMax="1884" yMax="1813">
      <component glyphName="O" x="0" y="0" flags="0x204"/>
      <component glyphName="hungarumlaut" x="881" y="328" flags="0x4"/>
    </TTGlyph>
    <TTGlyph name="Omacron" xMin="90" yMin="0" xMax="1884" yMax="1729">
      <component glyphName="O" x="0" y="0" flags="0x204"/>
      <component glyphName="macron" x="745" y="328" flags="0x4"/>
    </TTGlyph>
    <TTGlyph name="Oslash" xMin="90" yMin="0" xMax="1884" yMax="1434">
      <contour>
        <pt x="1688" y="1434" on="1"/>
        <pt x="1595" y="1319" on="1"/>
        <pt x="1663" y="1271" on="0"/>
        <pt x="1770" y="1142" on="0"/>
        <pt x="1845" y="988" on="0"/>
        <pt x="1884" y="811" on="0"/>
        <pt x="1884" y="717" on="1"/>
        <pt x="1884" y="568" on="0"/>
        <pt x="1790" y="306" on="0"/>
        <pt x="1617" y="112" on="0"/>
        <pt x="1375" y="0" on="0"/>
        <pt x="1227" y="0" on="1"/>
        <pt x="750" y="0" on="1"/>
        <pt x="697" y="0" on="0"/>
        <pt x="601" y="13" on="0"/>
        <pt x="555" y="27" on="1"/>
        <pt x="535" y="0" on="1"/>
        <pt x="291" y="0" on="1"/>
        <pt x="381" y="111" on="1"/>
        <pt x="312" y="159" on="0"/>
        <pt x="204" y="288" on="0"/>
        <pt x="129" y="443" on="0"/>
        <pt x="90" y="621" on="0"/>
        <pt x="90" y="717" on="1"/>
        <pt x="90" y="865" on="0"/>
        <pt x="184" y="1126" on="0"/>
        <pt x="357" y="1321" on="0"/>
        <pt x="601" y="1434" on="0"/>
        <pt x="750" y="1434" on="1"/>
        <pt x="1227" y="1434" on="1"/>
        <pt x="1279" y="1434" on="0"/>
        <pt x="1375" y="1419" on="0"/>
        <pt x="1421" y="1405" on="1"/>
        <pt x="1444" y="1434" on="1"/>
      </contour>
      <contour>
        <pt x="750" y="1229" on="1"/>
        <pt x="644" y="1229" on="0"/>
        <pt x="475" y="1148" on="0"/>
        <pt x="358" y="1009" on="0"/>
        <pt x="295" y="823" on="0"/>
        <pt x="295" y="717" on="1"/>
        <pt x="295" y="645" on="0"/>
        <pt x="324" y="513" on="0"/>
        <pt x="379" y="399" on="0"/>
        <pt x="459" y="305" on="0"/>
        <pt x="510" y="272" on="1"/>
        <pt x="1276" y="1225" on="1"/>
        <pt x="1264" y="1227" on="0"/>
        <pt x="1239" y="1229" on="0"/>
        <pt x="1227" y="1229" on="1"/>
      </contour>
      <contour>
        <pt x="1679" y="717" on="1"/>
        <pt x="1679" y="787" on="0"/>
        <pt x="1651" y="918" on="0"/>
        <pt x="1596" y="1032" on="0"/>
        <pt x="1517" y="1126" on="0"/>
        <pt x="1466" y="1159" on="1"/>
        <pt x="700" y="207" on="1"/>
        <pt x="713" y="207" on="0"/>
        <pt x="737" y="205" on="0"/>
        <pt x="750" y="205" on="1"/>
        <pt x="1227" y="205" on="1"/>
        <pt x="1333" y="205" on="0"/>
        <pt x="1500" y="285" on="0"/>
        <pt x="1617" y="424" on="0"/>
        <pt x="1679" y="611" on="0"/>
      </contour>
    </TTGlyph>
    <TTGlyph name="Oslashacute" xMin="90" yMin="0" xMax="1884" yMax="1858">
      <component glyphName="Oslash" x="0" y="0" flags="0x204"/>
      <component glyphName="acute" x="999" y="328" flags="0x4"/>
    </TTGlyph>
    <TTGlyph name="Otilde" xMin="90" yMin="0" xMax="1884" yMax="1790">
      <component glyphName="O" x="0" y="0" flags="0x204"/>
      <component glyphName="tilde" x="702" y="328" flags="0x4"/>
    </TTGlyph>
    <TTGlyph name="P" xMin="172" yMin="0" xMax="1827" yMax="1434">
      <contour>
        <pt x="1827" y="922" on="1"/>
        <pt x="1827" y="816" on="0"/>
        <pt x="1746" y="629" on="0"/>
        <pt x="1607" y="490" on="0"/>
        <pt x="1421" y="410" on="0"/>
        <pt x="1315" y="410" on="1"/>
        <pt x="492" y="410" on="1"/>
        <pt x="492" y="612" on="1"/>
        <pt x="1315" y="612" on="1"/>
        <pt x="1379" y="612" on="0"/>
        <pt x="1491" y="661" on="0"/>
        <pt x="1574" y="745" on="0"/>
        <pt x="1622" y="858" on="0"/>
        <pt x="1622" y="922" on="1"/>
        <pt x="1622" y="986" on="0"/>
        <pt x="1574" y="1098" on="0"/>
        <pt x="1491" y="1181" on="0"/>
        <pt x="1379" y="1229" on="0"/>
        <pt x="1315" y="1229" on="1"/>
        <pt x="377" y="1229" on="1"/>
        <pt x="377" y="0" on="1"/>
        <pt x="172" y="0" on="1"/>
        <pt x="172" y="1434" on="1"/>
        <pt x="1315" y="1434" on="1"/>
        <pt x="1421" y="1434" on="0"/>
        <pt x="1607" y="1353" on="0"/>
        <pt x="1746" y="1214" on="0"/>
        <pt x="1827" y="1028" on="0"/>
      </contour>
    </TTGlyph>
    <TTGlyph name="Q" xMin="90" yMin="-172" xMax="1884" yMax="1434">
      <contour>
        <pt x="1462" y="-172" on="1"/>
        <pt x="1278" y="2" on="1"/>
        <pt x="1266" y="0" on="0"/>
        <pt x="1239" y="0" on="0"/>
        <pt x="1227" y="0" on="1"/>
        <pt x="750" y="0" on="1"/>
        <pt x="601" y="0" on="0"/>
        <pt x="357" y="112" on="0"/>
        <pt x="184" y="306" on="0"/>
        <pt x="90" y="568" on="0"/>
        <pt x="90" y="717" on="1"/>
        <pt x="90" y="865" on="0"/>
        <pt x="184" y="1126" on="0"/>
        <pt x="357" y="1321" on="0"/>
        <pt x="601" y="1434" on="0"/>
        <pt x="750" y="1434" on="1"/>
        <pt x="1227" y="1434" on="1"/>
        <pt x="1375" y="1434" on="0"/>
        <pt x="1617" y="1321" on="0"/>
        <pt x="1790" y="1126" on="0"/>
        <pt x="1884" y="865" on="0"/>
        <pt x="1884" y="717" on="1"/>
        <pt x="1884" y="606" on="0"/>
        <pt x="1831" y="403" on="0"/>
        <pt x="1731" y="232" on="0"/>
        <pt x="1588" y="99" on="0"/>
        <pt x="1499" y="57" on="1"/>
        <pt x="1739" y="-172" on="1"/>
      </contour>
      <contour>
        <pt x="1679" y="717" on="1"/>
        <pt x="1679" y="823" on="0"/>
        <pt x="1617" y="1009" on="0"/>
        <pt x="1500" y="1148" on="0"/>
        <pt x="1333" y="1229" on="0"/>
        <pt x="1227" y="1229" on="1"/>
        <pt x="750" y="1229" on="1"/>
        <pt x="644" y="1229" on="0"/>
        <pt x="475" y="1148" on="0"/>
        <pt x="358" y="1009" on="0"/>
        <pt x="295" y="823" on="0"/>
        <pt x="295" y="717" on="1"/>
        <pt x="295" y="611" on="0"/>
        <pt x="358" y="424" on="0"/>
        <pt x="475" y="285" on="0"/>
        <pt x="644" y="205" on="0"/>
        <pt x="750" y="205" on="1"/>
        <pt x="1065" y="205" on="1"/>
        <pt x="870" y="391" on="1"/>
        <pt x="1157" y="391" on="1"/>
        <pt x="1335" y="217" on="1"/>
        <pt x="1416" y="236" on="0"/>
        <pt x="1544" y="329" on="0"/>
        <pt x="1633" y="461" on="0"/>
        <pt x="1679" y="625" on="0"/>
      </contour>
    </TTGlyph>
    <TTGlyph name="R" xMin="172" yMin="0" xMax="1827" yMax="1434">
      <contour>
        <pt x="1827" y="0" on="1"/>
        <pt x="1550" y="0" on="1"/>
        <pt x="1120" y="410" on="1"/>
        <pt x="492" y="410" on="1"/>
        <pt x="492" y="612" on="1"/>
        <pt x="1315" y="612" on="1"/>
        <pt x="1379" y="612" on="0"/>
        <pt x="1491" y="661" on="0"/>
        <pt x="1574" y="745" on="0"/>
        <pt x="1622" y="858" on="0"/>
        <pt x="1622" y="922" on="1"/>
        <pt x="1622" y="986" on="0"/>
        <pt x="1574" y="1098" on="0"/>
        <pt x="1491" y="1181" on="0"/>
        <pt x="1379" y="1229" on="0"/>
        <pt x="1315" y="1229" on="1"/>
        <pt x="377" y="1229" on="1"/>
        <pt x="377" y="0" on="1"/>
        <pt x="172" y="0" on="1"/>
        <pt x="172" y="1434" on="1"/>
        <pt x="1315" y="1434" on="1"/>
        <pt x="1421" y="1434" on="0"/>
        <pt x="1607" y="1353" on="0"/>
        <pt x="1746" y="1214" on="0"/>
        <pt x="1827" y="1028" on="0"/>
        <pt x="1827" y="922" on="1"/>
        <pt x="1827" y="826" on="0"/>
        <pt x="1761" y="655" on="0"/>
        <pt x="1645" y="520" on="0"/>
        <pt x="1488" y="431" on="0"/>
        <pt x="1397" y="416" on="1"/>
      </contour>
    </TTGlyph>
    <TTGlyph name="Racute" xMin="172" yMin="0" xMax="1827" yMax="1858">
      <component glyphName="R" x="0" y="0" flags="0x204"/>
      <component glyphName="acute" x="950" y="328" flags="0x4"/>
    </TTGlyph>
    <TTGlyph name="Rcaron" xMin="172" yMin="0" xMax="1827" yMax="1839">
      <component glyphName="R" x="0" y="0" flags="0x204"/>
      <component glyphName="caron" x="641" y="328" flags="0x4"/>
    </TTGlyph>
    <TTGlyph name="Rcommaaccent" xMin="172" yMin="-416" xMax="1827" yMax="1434">
      <component glyphName="R" x="0" y="0" flags="0x204"/>
      <component glyphName="uni0326" x="690" y="102" flags="0x4"/>
    </TTGlyph>
    <TTGlyph name="S" xMin="100" yMin="0" xMax="1755" yMax="1434">
      <contour>
        <pt x="1755" y="410" on="1"/>
        <pt x="1755" y="324" on="0"/>
        <pt x="1691" y="175" on="0"/>
        <pt x="1580" y="64" on="0"/>
        <pt x="1431" y="0" on="0"/>
        <pt x="1346" y="0" on="1"/>
        <pt x="100" y="0" on="1"/>
        <pt x="100" y="205" on="1"/>
        <pt x="1346" y="205" on="1"/>
        <pt x="1389" y="205" on="0"/>
        <pt x="1463" y="237" on="0"/>
        <pt x="1518" y="293" on="0"/>
        <pt x="1550" y="368" on="0"/>
        <pt x="1550" y="410" on="1"/>
        <pt x="1550" y="452" on="0"/>
        <pt x="1518" y="526" on="0"/>
        <pt x="1463" y="582" on="0"/>
        <pt x="1389" y="614" on="0"/>
        <pt x="1346" y="614" on="1"/>
        <pt x="510" y="614" on="1"/>
        <pt x="426" y="614" on="0"/>
        <pt x="276" y="678" on="0"/>
        <pt x="165" y="789" on="0"/>
        <pt x="100" y="939" on="0"/>
        <pt x="100" y="1024" on="1"/>
        <pt x="100" y="1108" on="0"/>
        <pt x="165" y="1258" on="0"/>
        <pt x="276" y="1369" on="0"/>
        <pt x="426" y="1434" on="0"/>
        <pt x="510" y="1434" on="1"/>
        <pt x="1653" y="1434" on="1"/>
        <pt x="1653" y="1229" on="1"/>
        <pt x="510" y="1229" on="1"/>
        <pt x="468" y="1229" on="0"/>
        <pt x="393" y="1197" on="0"/>
        <pt x="337" y="1141" on="0"/>
        <pt x="305" y="1066" on="0"/>
        <pt x="305" y="1024" on="1"/>
        <pt x="305" y="982" on="0"/>
        <pt x="337" y="907" on="0"/>
        <pt x="393" y="851" on="0"/>
        <pt x="468" y="819" on="0"/>
        <pt x="510" y="819" on="1"/>
        <pt x="1346" y="819" on="1"/>
        <pt x="1431" y="819" on="0"/>
        <pt x="1580" y="754" on="0"/>
        <pt x="1691" y="643" on="0"/>
        <pt x="1755" y="494" on="0"/>
      </contour>
    </TTGlyph>
    <TTGlyph name="Sacute" xMin="100" yMin="0" xMax="1755" yMax="1858">
      <component glyphName="S" x="0" y="0" flags="0x204"/>
      <component glyphName="acute" x="924" y="328" flags="0x4"/>
    </TTGlyph>
    <TTGlyph name="Scaron" xMin="100" yMin="0" xMax="1755" yMax="1839">
      <component glyphName="S" x="0" y="0" flags="0x204"/>
      <component glyphName="caron" x="610" y="328" flags="0x4"/>
    </TTGlyph>
    <TTGlyph name="Scedilla" xMin="100" yMin="-326" xMax="1755" yMax="1434">
      <contour>
        <pt x="1755" y="410" on="1"/>
        <pt x="1755" y="324" on="0"/>
        <pt x="1691" y="175" on="0"/>
        <pt x="1580" y="64" on="0"/>
        <pt x="1431" y="0" on="0"/>
        <pt x="1346" y="0" on="1"/>
        <pt x="973" y="0" on="1"/>
        <pt x="954" y="-49" on="1"/>
        <pt x="976" y="-49" on="0"/>
        <pt x="1029" y="-60" on="0"/>
        <pt x="1075" y="-88" on="0"/>
        <pt x="1106" y="-140" on="0"/>
        <pt x="1106" y="-180" on="1"/>
        <pt x="1106" y="-222" on="0"/>
        <pt x="1065" y="-278" on="0"/>
        <pt x="1000" y="-312" on="0"/>
        <pt x="919" y="-326" on="0"/>
        <pt x="879" y="-326" on="1"/>
        <pt x="842" y="-326" on="0"/>
        <pt x="792" y="-322" on="0"/>
        <pt x="757" y="-316" on="0"/>
        <pt x="731" y="-311" on="0"/>
        <pt x="717" y="-309" on="1"/>
        <pt x="717" y="-182" on="1"/>
        <pt x="745" y="-196" on="0"/>
        <pt x="822" y="-215" on="0"/>
        <pt x="862" y="-215" on="1"/>
        <pt x="902" y="-215" on="0"/>
        <pt x="956" y="-197" on="0"/>
        <pt x="956" y="-178" on="1"/>
        <pt x="956" y="-166" on="0"/>
        <pt x="938" y="-152" on="0"/>
        <pt x="913" y="-144" on="0"/>
        <pt x="884" y="-141" on="0"/>
        <pt x="872" y="-141" on="1"/>
        <pt x="855" y="-141" on="0"/>
        <pt x="820" y="-146" on="0"/>
        <pt x="805" y="-150" on="1"/>
        <pt x="860" y="0" on="1"/>
        <pt x="100" y="0" on="1"/>
        <pt x="100" y="205" on="1"/>
        <pt x="1346" y="205" on="1"/>
        <pt x="1389" y="205" on="0"/>
        <pt x="1463" y="237" on="0"/>
        <pt x="1518" y="293" on="0"/>
        <pt x="1550" y="368" on="0"/>
        <pt x="1550" y="410" on="1"/>
        <pt x="1550" y="452" on="0"/>
        <pt x="1518" y="526" on="0"/>
        <pt x="1463" y="582" on="0"/>
        <pt x="1389" y="614" on="0"/>
        <pt x="1346" y="614" on="1"/>
        <pt x="510" y="614" on="1"/>
        <pt x="426" y="614" on="0"/>
        <pt x="276" y="678" on="0"/>
        <pt x="165" y="789" on="0"/>
        <pt x="100" y="939" on="0"/>
        <pt x="100" y="1024" on="1"/>
        <pt x="100" y="1108" on="0"/>
        <pt x="165" y="1258" on="0"/>
        <pt x="276" y="1369" on="0"/>
        <pt x="426" y="1434" on="0"/>
        <pt x="510" y="1434" on="1"/>
        <pt x="1653" y="1434" on="1"/>
        <pt x="1653" y="1229" on="1"/>
        <pt x="510" y="1229" on="1"/>
        <pt x="468" y="1229" on="0"/>
        <pt x="393" y="1197" on="0"/>
        <pt x="337" y="1141" on="0"/>
        <pt x="305" y="1066" on="0"/>
        <pt x="305" y="1024" on="1"/>
        <pt x="305" y="982" on="0"/>
        <pt x="337" y="907" on="0"/>
        <pt x="393" y="851" on="0"/>
        <pt x="468" y="819" on="0"/>
        <pt x="510" y="819" on="1"/>
        <pt x="1346" y="819" on="1"/>
        <pt x="1431" y="819" on="0"/>
        <pt x="1580" y="754" on="0"/>
        <pt x="1691" y="643" on="0"/>
        <pt x="1755" y="494" on="0"/>
      </contour>
    </TTGlyph>
    <TTGlyph name="Scircumflex" xMin="100" yMin="0" xMax="1755" yMax="1860">
      <component glyphName="S" x="0" y="0" flags="0x204"/>
      <component glyphName="circumflex" x="584" y="328" flags="0x4"/>
    </TTGlyph>
    <TTGlyph name="T" xMin="20" yMin="0" xMax="1675" yMax="1434">
      <contour>
        <pt x="950" y="0" on="1"/>
        <pt x="745" y="0" on="1"/>
        <pt x="745" y="1229" on="1"/>
        <pt x="20" y="1229" on="1"/>
        <pt x="20" y="1434" on="1"/>
        <pt x="1675" y="1434" on="1"/>
        <pt x="1675" y="1229" on="1"/>
        <pt x="950" y="1229" on="1"/>
      </contour>
    </TTGlyph>
    <TTGlyph name="Tbar" xMin="20" yMin="0" xMax="1675" yMax="1434">
      <contour>
        <pt x="1257" y="614" on="1"/>
        <pt x="950" y="614" on="1"/>
        <pt x="950" y="0" on="1"/>
        <pt x="745" y="0" on="1"/>
        <pt x="745" y="614" on="1"/>
        <pt x="438" y="614" on="1"/>
        <pt x="438" y="819" on="1"/>
        <pt x="745" y="819" on="1"/>
        <pt x="745" y="1229" on="1"/>
        <pt x="20" y="1229" on="1"/>
        <pt x="20" y="1434" on="1"/>
        <pt x="1675" y="1434" on="1"/>
        <pt x="1675" y="1229" on="1"/>
        <pt x="950" y="1229" on="1"/>
        <pt x="950" y="819" on="1"/>
        <pt x="1257" y="819" on="1"/>
      </contour>
    </TTGlyph>
    <TTGlyph name="Tcaron" xMin="20" yMin="0" xMax="1675" yMax="1839">
      <component glyphName="T" x="0" y="0" flags="0x204"/>
      <component glyphName="caron" x="530" y="328" flags="0x4"/>
    </TTGlyph>
    <TTGlyph name="Tcommaaccent" xMin="20" yMin="-457" xMax="1675" yMax="1434">
      <component glyphName="T" x="0" y="0" flags="0x204"/>
      <component glyphName="uni0326" x="580" y="61" flags="0x4"/>
    </TTGlyph>
    <TTGlyph name="Thorn" xMin="172" yMin="0" xMax="1827" yMax="1436">
      <contour>
        <pt x="1827" y="717" on="1"/>
        <pt x="1827" y="611" on="0"/>
        <pt x="1746" y="424" on="0"/>
        <pt x="1607" y="285" on="0"/>
        <pt x="1421" y="205" on="0"/>
        <pt x="1315" y="205" on="1"/>
        <pt x="492" y="205" on="1"/>
        <pt x="492" y="408" on="1"/>
        <pt x="1315" y="408" on="1"/>
        <pt x="1379" y="408" on="0"/>
        <pt x="1491" y="457" on="0"/>
        <pt x="1574" y="541" on="0"/>
        <pt x="1622" y="653" on="0"/>
        <pt x="1622" y="717" on="1"/>
        <pt x="1622" y="781" on="0"/>
        <pt x="1574" y="893" on="0"/>
        <pt x="1491" y="976" on="0"/>
        <pt x="1379" y="1024" on="0"/>
        <pt x="1315" y="1024" on="1"/>
        <pt x="377" y="1024" on="1"/>
        <pt x="377" y="0" on="1"/>
        <pt x="172" y="0" on="1"/>
        <pt x="172" y="1436" on="1"/>
        <pt x="377" y="1436" on="1"/>
        <pt x="377" y="1229" on="1"/>
        <pt x="1315" y="1229" on="1"/>
        <pt x="1421" y="1229" on="0"/>
        <pt x="1607" y="1148" on="0"/>
        <pt x="1746" y="1009" on="0"/>
        <pt x="1827" y="823" on="0"/>
      </contour>
    </TTGlyph>
    <TTGlyph name="U" xMin="125" yMin="0" xMax="1708" yMax="1434">
      <contour>
        <pt x="1708" y="1434" on="1"/>
        <pt x="1706" y="717" on="1"/>
        <pt x="1706" y="617" on="0"/>
        <pt x="1655" y="434" on="0"/>
        <pt x="1562" y="275" on="0"/>
        <pt x="1431" y="144" on="0"/>
        <pt x="1272" y="51" on="0"/>
        <pt x="1090" y="0" on="0"/>
        <pt x="991" y="0" on="1"/>
        <pt x="840" y="0" on="1"/>
        <pt x="741" y="0" on="0"/>
        <pt x="558" y="51" on="0"/>
        <pt x="399" y="145" on="0"/>
        <pt x="269" y="276" on="0"/>
        <pt x="176" y="435" on="0"/>
        <pt x="125" y="618" on="0"/>
        <pt x="125" y="717" on="1"/>
        <pt x="125" y="1434" on="1"/>
        <pt x="330" y="1434" on="1"/>
        <pt x="330" y="717" on="1"/>
        <pt x="330" y="611" on="0"/>
        <pt x="410" y="424" on="0"/>
        <pt x="549" y="285" on="0"/>
        <pt x="735" y="205" on="0"/>
        <pt x="840" y="205" on="1"/>
        <pt x="991" y="205" on="1"/>
        <pt x="1097" y="205" on="0"/>
        <pt x="1283" y="285" on="0"/>
        <pt x="1421" y="424" on="0"/>
        <pt x="1501" y="611" on="0"/>
        <pt x="1501" y="717" on="1"/>
        <pt x="1501" y="1434" on="1"/>
        <pt x="1706" y="1434" on="1"/>
      </contour>
    </TTGlyph>
    <TTGlyph name="Uacute" xMin="125" yMin="0" xMax="1708" yMax="1858">
      <component glyphName="U" x="0" y="0" flags="0x204"/>
      <component glyphName="acute" x="909" y="328" flags="0x4"/>
    </TTGlyph>
    <TTGlyph name="Ubreve" xMin="125" yMin="0" xMax="1708" yMax="1827">
      <component glyphName="U" x="0" y="0" flags="0x204"/>
      <component glyphName="breve" x="623" y="328" flags="0x4"/>
    </TTGlyph>
    <TTGlyph name="Ucircumflex" xMin="125" yMin="0" xMax="1708" yMax="1860">
      <component glyphName="U" x="0" y="0" flags="0x204"/>
      <component glyphName="circumflex" x="588" y="328" flags="0x4"/>
    </TTGlyph>
    <TTGlyph name="Udieresis" xMin="125" yMin="0" xMax="1708" yMax="1735">
      <component glyphName="U" x="0" y="0" flags="0x204"/>
      <component glyphName="dieresis" x="655" y="328" flags="0x4"/>
    </TTGlyph>
    <TTGlyph name="Ugrave" xMin="125" yMin="0" xMax="1708" yMax="1858">
      <component glyphName="U" x="0" y="0" flags="0x204"/>
      <component glyphName="grave" x="500" y="328" flags="0x4"/>
    </TTGlyph>
    <TTGlyph name="Uhungarumlaut" xMin="125" yMin="0" xMax="1708" yMax="1813">
      <component glyphName="U" x="0" y="0" flags="0x204"/>
      <component glyphName="hungarumlaut" x="748" y="328" flags="0x4"/>
    </TTGlyph>
    <TTGlyph name="Umacron" xMin="125" yMin="0" xMax="1708" yMax="1729">
      <component glyphName="U" x="0" y="0" flags="0x204"/>
      <component glyphName="macron" x="674" y="328" flags="0x4"/>
    </TTGlyph>
    <TTGlyph name="Uogonek" xMin="125" yMin="-309" xMax="1708" yMax="1434">
      <contour>
        <pt x="1706" y="717" on="1"/>
        <pt x="1706" y="619" on="0"/>
        <pt x="1657" y="439" on="0"/>
        <pt x="1567" y="281" on="0"/>
        <pt x="1440" y="151" on="0"/>
        <pt x="1286" y="57" on="0"/>
        <pt x="1108" y="3" on="0"/>
        <pt x="1012" y="0" on="1"/>
        <pt x="977" y="-29" on="0"/>
        <pt x="936" y="-99" on="0"/>
        <pt x="936" y="-131" on="1"/>
        <pt x="936" y="-157" on="0"/>
        <pt x="972" y="-180" on="0"/>
        <pt x="1014" y="-180" on="1"/>
        <pt x="1032" y="-180" on="0"/>
        <pt x="1075" y="-173" on="0"/>
        <pt x="1118" y="-162" on="0"/>
        <pt x="1157" y="-149" on="0"/>
        <pt x="1171" y="-143" on="1"/>
        <pt x="1171" y="-276" on="1"/>
        <pt x="1157" y="-280" on="0"/>
        <pt x="1121" y="-291" on="0"/>
        <pt x="1073" y="-302" on="0"/>
        <pt x="1009" y="-309" on="0"/>
        <pt x="969" y="-309" on="1"/>
        <pt x="930" y="-309" on="0"/>
        <pt x="862" y="-295" on="0"/>
        <pt x="811" y="-263" on="0"/>
        <pt x="782" y="-212" on="0"/>
        <pt x="782" y="-174" on="1"/>
        <pt x="782" y="-156" on="0"/>
        <pt x="791" y="-110" on="0"/>
        <pt x="811" y="-63" on="0"/>
        <pt x="843" y="-18" on="0"/>
        <pt x="866" y="0" on="1"/>
        <pt x="840" y="0" on="1"/>
        <pt x="741" y="0" on="0"/>
        <pt x="558" y="51" on="0"/>
        <pt x="399" y="145" on="0"/>
        <pt x="269" y="276" on="0"/>
        <pt x="176" y="435" on="0"/>
        <pt x="125" y="618" on="0"/>
        <pt x="125" y="717" on="1"/>
        <pt x="125" y="1434" on="1"/>
        <pt x="330" y="1434" on="1"/>
        <pt x="330" y="717" on="1"/>
        <pt x="330" y="611" on="0"/>
        <pt x="410" y="424" on="0"/>
        <pt x="549" y="285" on="0"/>
        <pt x="735" y="205" on="0"/>
        <pt x="840" y="205" on="1"/>
        <pt x="991" y="205" on="1"/>
        <pt x="1097" y="205" on="0"/>
        <pt x="1283" y="285" on="0"/>
        <pt x="1421" y="424" on="0"/>
        <pt x="1501" y="611" on="0"/>
        <pt x="1501" y="717" on="1"/>
        <pt x="1501" y="1434" on="1"/>
        <pt x="1708" y="1434" on="1"/>
      </contour>
    </TTGlyph>
    <TTGlyph name="Uring" xMin="125" yMin="0" xMax="1708" yMax="1856">
      <component glyphName="U" x="0" y="0" flags="0x204"/>
      <component glyphName="ring" x="705" y="328" flags="0x4"/>
    </TTGlyph>
    <TTGlyph name="Utilde" xMin="125" yMin="0" xMax="1708" yMax="1790">
      <component glyphName="U" x="0" y="0" flags="0x204"/>
      <component glyphName="tilde" x="631" y="328" flags="0x4"/>
    </TTGlyph>
    <TTGlyph name="V" xMin="31" yMin="0" xMax="1772" yMax="1434">
      <contour>
        <pt x="1772" y="1434" on="1"/>
        <pt x="1018" y="0" on="1"/>
        <pt x="784" y="0" on="1"/>
        <pt x="31" y="1434" on="1"/>
        <pt x="264" y="1434" on="1"/>
        <pt x="901" y="221" on="1"/>
        <pt x="1538" y="1434" on="1"/>
      </contour>
    </TTGlyph>
    <TTGlyph name="W" xMin="158" yMin="0" xMax="2019" yMax="1434">
      <contour>
        <pt x="2019" y="516" on="1"/>
        <pt x="2019" y="409" on="0"/>
        <pt x="1938" y="221" on="0"/>
        <pt x="1798" y="81" on="0"/>
        <pt x="1610" y="0" on="0"/>
        <pt x="1503" y="0" on="1"/>
        <pt x="1439" y="0" on="0"/>
        <pt x="1320" y="29" on="0"/>
        <pt x="1214" y="82" on="0"/>
        <pt x="1123" y="158" on="0"/>
        <pt x="1087" y="205" on="1"/>
        <pt x="1016" y="111" on="0"/>
        <pt x="802" y="0" on="0"/>
        <pt x="674" y="0" on="1"/>
        <pt x="567" y="0" on="0"/>
        <pt x="379" y="81" on="0"/>
        <pt x="239" y="221" on="0"/>
        <pt x="158" y="409" on="0"/>
        <pt x="158" y="516" on="1"/>
        <pt x="158" y="1434" on="1"/>
        <pt x="362" y="1434" on="1"/>
        <pt x="362" y="516" on="1"/>
        <pt x="362" y="451" on="0"/>
        <pt x="411" y="338" on="0"/>
        <pt x="496" y="254" on="0"/>
        <pt x="609" y="205" on="0"/>
        <pt x="674" y="205" on="1"/>
        <pt x="737" y="205" on="0"/>
        <pt x="848" y="251" on="0"/>
        <pt x="931" y="331" on="0"/>
        <pt x="982" y="440" on="0"/>
        <pt x="985" y="502" on="1"/>
        <pt x="985" y="516" on="1"/>
        <pt x="985" y="1434" on="1"/>
        <pt x="1192" y="1434" on="1"/>
        <pt x="1192" y="516" on="1"/>
        <pt x="1192" y="451" on="0"/>
        <pt x="1241" y="338" on="0"/>
        <pt x="1325" y="254" on="0"/>
        <pt x="1438" y="205" on="0"/>
        <pt x="1503" y="205" on="1"/>
        <pt x="1567" y="205" on="0"/>
        <pt x="1681" y="254" on="0"/>
        <pt x="1766" y="338" on="0"/>
        <pt x="1815" y="451" on="0"/>
        <pt x="1815" y="516" on="1"/>
        <pt x="1815" y="1434" on="1"/>
        <pt x="2019" y="1434" on="1"/>
      </contour>
    </TTGlyph>
    <TTGlyph name="Wacute" xMin="158" yMin="0" xMax="2019" yMax="1858">
      <component glyphName="W" x="0" y="0" flags="0x204"/>
      <component glyphName="acute" x="1081" y="328" flags="0x4"/>
    </TTGlyph>
    <TTGlyph name="Wcircumflex" xMin="158" yMin="0" xMax="2019" yMax="1860">
      <component glyphName="W" x="0" y="0" flags="0x204"/>
      <component glyphName="circumflex" x="760" y="328" flags="0x4"/>
    </TTGlyph>
    <TTGlyph name="Wdieresis" xMin="158" yMin="0" xMax="2019" yMax="1735">
      <component glyphName="W" x="0" y="0" flags="0x204"/>
      <component glyphName="dieresis" x="827" y="328" flags="0x4"/>
    </TTGlyph>
    <TTGlyph name="Wgrave" xMin="158" yMin="0" xMax="2019" yMax="1858">
      <component glyphName="W" x="0" y="0" flags="0x204"/>
      <component glyphName="grave" x="672" y="328" flags="0x4"/>
    </TTGlyph>
    <TTGlyph name="X" xMin="10" yMin="0" xMax="1667" yMax="1434">
      <contour>
        <pt x="1667" y="0" on="1"/>
        <pt x="1399" y="0" on="1"/>
        <pt x="838" y="578" on="1"/>
        <pt x="279" y="0" on="1"/>
        <pt x="10" y="0" on="1"/>
        <pt x="705" y="717" on="1"/>
        <pt x="10" y="1434" on="1"/>
        <pt x="279" y="1434" on="1"/>
      </contour>
      <contour>
        <pt x="1667" y="1434" on="1"/>
        <pt x="1042" y="791" on="1"/>
        <pt x="909" y="928" on="1"/>
        <pt x="1399" y="1434" on="1"/>
      </contour>
    </TTGlyph>
    <TTGlyph name="Y" xMin="117" yMin="0" xMax="1774" yMax="1434">
      <contour>
        <pt x="1774" y="410" on="1"/>
        <pt x="1774" y="324" on="0"/>
        <pt x="1693" y="175" on="0"/>
        <pt x="1554" y="64" on="0"/>
        <pt x="1368" y="0" on="0"/>
        <pt x="1262" y="0" on="1"/>
        <pt x="117" y="0" on="1"/>
        <pt x="117" y="205" on="1"/>
        <pt x="1262" y="205" on="1"/>
        <pt x="1325" y="205" on="0"/>
        <pt x="1437" y="237" on="0"/>
        <pt x="1520" y="293" on="0"/>
        <pt x="1569" y="368" on="0"/>
        <pt x="1569" y="410" on="1"/>
        <pt x="1569" y="512" on="1"/>
        <pt x="629" y="512" on="1"/>
        <pt x="523" y="512" on="0"/>
        <pt x="336" y="592" on="0"/>
        <pt x="197" y="731" on="0"/>
        <pt x="117" y="918" on="0"/>
        <pt x="117" y="1024" on="1"/>
        <pt x="117" y="1434" on="1"/>
        <pt x="322" y="1434" on="1"/>
        <pt x="322" y="1024" on="1"/>
        <pt x="322" y="960" on="0"/>
        <pt x="370" y="848" on="0"/>
        <pt x="453" y="765" on="0"/>
        <pt x="565" y="717" on="0"/>
        <pt x="629" y="717" on="1"/>
        <pt x="1569" y="717" on="1"/>
        <pt x="1569" y="1434" on="1"/>
        <pt x="1774" y="1434" on="1"/>
      </contour>
    </TTGlyph>
    <TTGlyph name="Yacute" xMin="117" yMin="0" xMax="1774" yMax="1858">
      <component glyphName="Y" x="0" y="0" flags="0x204"/>
      <component glyphName="acute" x="938" y="328" flags="0x4"/>
    </TTGlyph>
    <TTGlyph name="Ycircumflex" xMin="117" yMin="0" xMax="1774" yMax="1860">
      <component glyphName="Y" x="0" y="0" flags="0x204"/>
      <component glyphName="circumflex" x="639" y="328" flags="0x4"/>
    </TTGlyph>
    <TTGlyph name="Ydieresis" xMin="117" yMin="0" xMax="1774" yMax="1735">
      <component glyphName="Y" x="0" y="0" flags="0x204"/>
      <component glyphName="dieresis" x="684" y="328" flags="0x4"/>
    </TTGlyph>
    <TTGlyph name="Ygrave" xMin="117" yMin="0" xMax="1774" yMax="1858">
      <component glyphName="Y" x="0" y="0" flags="0x204"/>
      <component glyphName="grave" x="549" y="328" flags="0x4"/>
    </TTGlyph>
    <TTGlyph name="Z" xMin="86" yMin="0" xMax="1743" yMax="1434">
      <contour>
        <pt x="1743" y="1229" on="1"/>
        <pt x="426" y="205" on="1"/>
        <pt x="1743" y="205" on="1"/>
        <pt x="1743" y="0" on="1"/>
        <pt x="86" y="0" on="1"/>
        <pt x="86" y="205" on="1"/>
        <pt x="1411" y="1229" on="1"/>
        <pt x="86" y="1229" on="1"/>
        <pt x="86" y="1434" on="1"/>
        <pt x="1743" y="1434" on="1"/>
      </contour>
    </TTGlyph>
    <TTGlyph name="Zacute" xMin="86" yMin="0" xMax="1743" yMax="1858">
      <component glyphName="Z" x="0" y="0" flags="0x204"/>
      <component glyphName="acute" x="905" y="328" flags="0x4"/>
    </TTGlyph>
    <TTGlyph name="Zcaron" xMin="86" yMin="0" xMax="1743" yMax="1839">
      <component glyphName="Z" x="0" y="0" flags="0x204"/>
      <component glyphName="caron" x="596" y="328" flags="0x4"/>
    </TTGlyph>
    <TTGlyph name="Zdotaccent" xMin="86" yMin="0" xMax="1743" yMax="1755">
      <component glyphName="Z" x="0" y="0" flags="0x204"/>
      <component glyphName="dotaccent" x="821" y="348" flags="0x4"/>
    </TTGlyph>
    <TTGlyph name="a" xMin="129" yMin="0" xMax="1436" yMax="1130">
      <contour>
        <pt x="1436" y="0" on="1"/>
        <pt x="1231" y="0" on="1"/>
        <pt x="1231" y="309" on="1"/>
        <pt x="442" y="309" on="1"/>
        <pt x="442" y="518" on="1"/>
        <pt x="1231" y="518" on="1"/>
        <pt x="1231" y="924" on="1"/>
        <pt x="698" y="924" on="1"/>
        <pt x="623" y="924" on="0"/>
        <pt x="491" y="867" on="0"/>
        <pt x="393" y="769" on="0"/>
        <pt x="336" y="638" on="0"/>
        <pt x="336" y="563" on="1"/>
        <pt x="336" y="0" on="1"/>
        <pt x="129" y="0" on="1"/>
        <pt x="129" y="563" on="1"/>
        <pt x="129" y="681" on="0"/>
        <pt x="219" y="887" on="0"/>
        <pt x="373" y="1041" on="0"/>
        <pt x="581" y="1130" on="0"/>
        <pt x="698" y="1130" on="1"/>
        <pt x="1436" y="1130" on="1"/>
      </contour>
    </TTGlyph>
    <TTGlyph name="aacute" xMin="129" yMin="0" xMax="1436" yMax="1571">
      <component glyphName="a" x="0" y="0" flags="0x204"/>
      <component glyphName="acute" x="774" y="41" flags="0x4"/>
    </TTGlyph>
    <TTGlyph name="abreve" xMin="129" yMin="0" xMax="1436" yMax="1540">
      <component glyphName="a" x="0" y="0" flags="0x204"/>
      <component glyphName="breve" x="498" y="41" flags="0x4"/>
    </TTGlyph>
    <TTGlyph name="acircumflex" xMin="129" yMin="0" xMax="1436" yMax="1573">
      <component glyphName="a" x="0" y="0" flags="0x204"/>
      <component glyphName="circumflex" x="455" y="41" flags="0x4"/>
    </TTGlyph>
    <TTGlyph name="acute" xMin="0" yMin="1219" xMax="424" yMax="1530">
      <contour>
        <pt x="424" y="1354" on="1"/>
        <pt x="49" y="1219" on="1"/>
        <pt x="0" y="1327" on="1"/>
        <pt x="346" y="1530" on="1"/>
      </contour>
    </TTGlyph>
    <TTGlyph name="adieresis" xMin="129" yMin="0" xMax="1436" yMax="1448">
      <component glyphName="a" x="0" y="0" flags="0x204"/>
      <component glyphName="dieresis" x="522" y="41" flags="0x4"/>
    </TTGlyph>
    <TTGlyph name="ae" xMin="129" yMin="0" xMax="2408" yMax="1130">
      <contour>
        <pt x="2408" y="0" on="1"/>
        <pt x="1231" y="0" on="1"/>
        <pt x="1231" y="309" on="1"/>
        <pt x="442" y="309" on="1"/>
        <pt x="442" y="518" on="1"/>
        <pt x="1231" y="518" on="1"/>
        <pt x="1231" y="924" on="1"/>
        <pt x="698" y="924" on="1"/>
        <pt x="623" y="924" on="0"/>
        <pt x="491" y="867" on="0"/>
        <pt x="393" y="769" on="0"/>
        <pt x="336" y="638" on="0"/>
        <pt x="336" y="563" on="1"/>
        <pt x="336" y="0" on="1"/>
        <pt x="129" y="0" on="1"/>
        <pt x="129" y="563" on="1"/>
        <pt x="129" y="681" on="0"/>
        <pt x="219" y="887" on="0"/>
        <pt x="373" y="1041" on="0"/>
        <pt x="581" y="1130" on="0"/>
        <pt x="698" y="1130" on="1"/>
        <pt x="2408" y="1130" on="1"/>
        <pt x="2408" y="924" on="1"/>
        <pt x="1440" y="924" on="1"/>
        <pt x="1440" y="207" on="1"/>
        <pt x="2408" y="207" on="1"/>
      </contour>
      <contour>
        <pt x="2277" y="467" on="1"/>
        <pt x="1536" y="467" on="1"/>
        <pt x="1536" y="674" on="1"/>
        <pt x="2277" y="674" on="1"/>
      </contour>
    </TTGlyph>
    <TTGlyph name="aeacute" xMin="129" yMin="0" xMax="2408" yMax="1571">
      <component glyphName="ae" x="0" y="0" flags="0x204"/>
      <component glyphName="acute" x="1360" y="41" flags="0x4"/>
    </TTGlyph>
    <TTGlyph name="agrave" xMin="129" yMin="0" xMax="1436" yMax="1571">
      <component glyphName="a" x="0" y="0" flags="0x204"/>
      <component glyphName="grave" x="365" y="41" flags="0x4"/>
    </TTGlyph>
    <TTGlyph name="amacron" xMin="129" yMin="0" xMax="1436" yMax="1442">
      <component glyphName="a" x="0" y="0" flags="0x204"/>
      <component glyphName="macron" x="549" y="41" flags="0x4"/>
    </TTGlyph>
    <TTGlyph name="ampersand" xMin="117" yMin="0" xMax="1653" yMax="1434">
      <contour>
        <pt x="1448" y="0" on="1"/>
        <pt x="526" y="0" on="1"/>
        <pt x="442" y="0" on="0"/>
        <pt x="293" y="65" on="0"/>
        <pt x="182" y="176" on="0"/>
        <pt x="117" y="325" on="0"/>
        <pt x="117" y="410" on="1"/>
        <pt x="117" y="501" on="0"/>
        <pt x="191" y="660" on="0"/>
        <pt x="256" y="717" on="1"/>
        <pt x="191" y="773" on="0"/>
        <pt x="117" y="931" on="0"/>
        <pt x="117" y="1024" on="1"/>
        <pt x="117" y="1108" on="0"/>
        <pt x="182" y="1258" on="0"/>
        <pt x="293" y="1369" on="0"/>
        <pt x="442" y="1434" on="0"/>
        <pt x="526" y="1434" on="1"/>
        <pt x="1448" y="1434" on="1"/>
        <pt x="1448" y="1229" on="1"/>
        <pt x="526" y="1229" on="1"/>
        <pt x="484" y="1229" on="0"/>
        <pt x="410" y="1197" on="0"/>
        <pt x="354" y="1141" on="0"/>
        <pt x="322" y="1066" on="0"/>
        <pt x="322" y="1024" on="1"/>
        <pt x="322" y="982" on="0"/>
        <pt x="353" y="909" on="0"/>
        <pt x="406" y="854" on="0"/>
        <pt x="477" y="820" on="0"/>
        <pt x="518" y="819" on="1"/>
        <pt x="526" y="819" on="1"/>
        <pt x="834" y="819" on="1"/>
        <pt x="834" y="614" on="1"/>
        <pt x="526" y="614" on="1"/>
        <pt x="484" y="614" on="0"/>
        <pt x="410" y="582" on="0"/>
        <pt x="354" y="526" on="0"/>
        <pt x="322" y="452" on="0"/>
        <pt x="322" y="410" on="1"/>
        <pt x="322" y="368" on="0"/>
        <pt x="354" y="293" on="0"/>
        <pt x="410" y="237" on="0"/>
        <pt x="484" y="205" on="0"/>
        <pt x="526" y="205" on="1"/>
        <pt x="1243" y="205" on="1"/>
        <pt x="1243" y="614" on="1"/>
        <pt x="1038" y="614" on="1"/>
        <pt x="1038" y="819" on="1"/>
        <pt x="1653" y="819" on="1"/>
        <pt x="1653" y="614" on="1"/>
        <pt x="1448" y="614" on="1"/>
      </contour>
    </TTGlyph>
    <TTGlyph name="aogonek" xMin="129" yMin="-309" xMax="1554" yMax="1130">
      <contour>
        <pt x="1436" y="0" on="1"/>
        <pt x="1393" y="0" on="1"/>
        <pt x="1358" y="-29" on="0"/>
        <pt x="1319" y="-100" on="0"/>
        <pt x="1319" y="-131" on="1"/>
        <pt x="1319" y="-157" on="0"/>
        <pt x="1355" y="-180" on="0"/>
        <pt x="1397" y="-180" on="1"/>
        <pt x="1415" y="-180" on="0"/>
        <pt x="1458" y="-173" on="0"/>
        <pt x="1501" y="-162" on="0"/>
        <pt x="1540" y="-149" on="0"/>
        <pt x="1554" y="-143" on="1"/>
        <pt x="1554" y="-276" on="1"/>
        <pt x="1540" y="-280" on="0"/>
        <pt x="1504" y="-291" on="0"/>
        <pt x="1456" y="-302" on="0"/>
        <pt x="1392" y="-309" on="0"/>
        <pt x="1352" y="-309" on="1"/>
        <pt x="1313" y="-309" on="0"/>
        <pt x="1245" y="-295" on="0"/>
        <pt x="1194" y="-263" on="0"/>
        <pt x="1165" y="-212" on="0"/>
        <pt x="1165" y="-174" on="1"/>
        <pt x="1165" y="-156" on="0"/>
        <pt x="1174" y="-110" on="0"/>
        <pt x="1194" y="-63" on="0"/>
        <pt x="1226" y="-18" on="0"/>
        <pt x="1249" y="0" on="1"/>
        <pt x="1231" y="0" on="1"/>
        <pt x="1231" y="309" on="1"/>
        <pt x="442" y="309" on="1"/>
        <pt x="442" y="518" on="1"/>
        <pt x="1231" y="518" on="1"/>
        <pt x="1231" y="924" on="1"/>
        <pt x="698" y="924" on="1"/>
        <pt x="623" y="924" on="0"/>
        <pt x="491" y="867" on="0"/>
        <pt x="393" y="769" on="0"/>
        <pt x="336" y="638" on="0"/>
        <pt x="336" y="563" on="1"/>
        <pt x="336" y="0" on="1"/>
        <pt x="129" y="0" on="1"/>
        <pt x="129" y="563" on="1"/>
        <pt x="129" y="681" on="0"/>
        <pt x="219" y="887" on="0"/>
        <pt x="373" y="1041" on="0"/>
        <pt x="581" y="1130" on="0"/>
        <pt x="698" y="1130" on="1"/>
        <pt x="1436" y="1130" on="1"/>
      </contour>
    </TTGlyph>
    <TTGlyph name="approxequal" xMin="139" yMin="348" xMax="1219" yMax="1075">
      <contour>
        <pt x="1219" y="453" on="1"/>
        <pt x="1198" y="432" on="0"/>
        <pt x="1139" y="395" on="0"/>
        <pt x="1070" y="368" on="0"/>
        <pt x="992" y="352" on="0"/>
        <pt x="952" y="352" on="1"/>
        <pt x="890" y="352" on="0"/>
        <pt x="749" y="386" on="0"/>
        <pt x="603" y="427" on="0"/>
        <pt x="459" y="461" on="0"/>
        <pt x="395" y="461" on="1"/>
        <pt x="360" y="461" on="0"/>
        <pt x="286" y="441" on="0"/>
        <pt x="217" y="408" on="0"/>
        <pt x="158" y="368" on="0"/>
        <pt x="139" y="348" on="1"/>
        <pt x="139" y="559" on="1"/>
        <pt x="160" y="580" on="0"/>
        <pt x="222" y="618" on="0"/>
        <pt x="294" y="646" on="0"/>
        <pt x="369" y="662" on="0"/>
        <pt x="403" y="662" on="1"/>
        <pt x="464" y="662" on="0"/>
        <pt x="607" y="627" on="0"/>
        <pt x="754" y="586" on="0"/>
        <pt x="899" y="551" on="0"/>
        <pt x="963" y="551" on="1"/>
        <pt x="997" y="551" on="0"/>
        <pt x="1071" y="571" on="0"/>
        <pt x="1140" y="604" on="0"/>
        <pt x="1199" y="645" on="0"/>
        <pt x="1219" y="666" on="1"/>
      </contour>
      <contour>
        <pt x="1219" y="862" on="1"/>
        <pt x="1198" y="841" on="0"/>
        <pt x="1139" y="805" on="0"/>
        <pt x="1070" y="778" on="0"/>
        <pt x="992" y="762" on="0"/>
        <pt x="952" y="762" on="1"/>
        <pt x="890" y="762" on="0"/>
        <pt x="749" y="796" on="0"/>
        <pt x="603" y="836" on="0"/>
        <pt x="459" y="870" on="0"/>
        <pt x="395" y="870" on="1"/>
        <pt x="360" y="870" on="0"/>
        <pt x="286" y="850" on="0"/>
        <pt x="217" y="818" on="0"/>
        <pt x="158" y="778" on="0"/>
        <pt x="139" y="758" on="1"/>
        <pt x="139" y="969" on="1"/>
        <pt x="160" y="990" on="0"/>
        <pt x="222" y="1028" on="0"/>
        <pt x="294" y="1055" on="0"/>
        <pt x="369" y="1071" on="0"/>
        <pt x="403" y="1071" on="1"/>
        <pt x="464" y="1071" on="0"/>
        <pt x="607" y="1037" on="0"/>
        <pt x="754" y="995" on="0"/>
        <pt x="899" y="961" on="0"/>
        <pt x="963" y="961" on="1"/>
        <pt x="997" y="961" on="0"/>
        <pt x="1071" y="981" on="0"/>
        <pt x="1140" y="1014" on="0"/>
        <pt x="1199" y="1054" on="0"/>
        <pt x="1219" y="1075" on="1"/>
      </contour>
    </TTGlyph>
    <TTGlyph name="aring" xMin="129" yMin="0" xMax="1436" yMax="1569">
      <component glyphName="a" x="0" y="0" flags="0x204"/>
      <component glyphName="ring" x="571" y="41" flags="0x4"/>
    </TTGlyph>
    <TTGlyph name="asciicircum" xMin="82" yMin="762" xMax="979" yMax="1343">
      <contour>
        <pt x="850" y="762" on="1"/>
        <pt x="524" y="1126" on="1"/>
        <pt x="205" y="764" on="1"/>
        <pt x="82" y="893" on="1"/>
        <pt x="446" y="1309" on="1"/>
        <pt x="460" y="1326" on="0"/>
        <pt x="501" y="1343" on="0"/>
        <pt x="522" y="1343" on="1"/>
        <pt x="544" y="1343" on="0"/>
        <pt x="585" y="1326" on="0"/>
        <pt x="600" y="1309" on="1"/>
        <pt x="979" y="885" on="1"/>
      </contour>
    </TTGlyph>
    <TTGlyph name="asciitilde" xMin="139" yMin="553" xMax="1219" yMax="870">
      <contour>
        <pt x="1219" y="657" on="1"/>
        <pt x="1198" y="636" on="0"/>
        <pt x="1139" y="600" on="0"/>
        <pt x="1070" y="573" on="0"/>
        <pt x="992" y="557" on="0"/>
        <pt x="952" y="557" on="1"/>
        <pt x="890" y="557" on="0"/>
        <pt x="749" y="591" on="0"/>
        <pt x="603" y="632" on="0"/>
        <pt x="459" y="666" on="0"/>
        <pt x="395" y="666" on="1"/>
        <pt x="360" y="666" on="0"/>
        <pt x="286" y="646" on="0"/>
        <pt x="217" y="613" on="0"/>
        <pt x="158" y="573" on="0"/>
        <pt x="139" y="553" on="1"/>
        <pt x="139" y="764" on="1"/>
        <pt x="160" y="785" on="0"/>
        <pt x="222" y="823" on="0"/>
        <pt x="294" y="850" on="0"/>
        <pt x="369" y="866" on="0"/>
        <pt x="403" y="866" on="1"/>
        <pt x="464" y="866" on="0"/>
        <pt x="607" y="832" on="0"/>
        <pt x="754" y="790" on="0"/>
        <pt x="899" y="756" on="0"/>
        <pt x="963" y="756" on="1"/>
        <pt x="997" y="756" on="0"/>
        <pt x="1071" y="776" on="0"/>
        <pt x="1140" y="809" on="0"/>
        <pt x="1199" y="849" on="0"/>
        <pt x="1219" y="870" on="1"/>
      </contour>
    </TTGlyph>
    <TTGlyph name="asterisk" xMin="113" yMin="530" xMax="1006" yMax="1513">
      <contour>
        <pt x="1006" y="1217" on="1"/>
        <pt x="698" y="1022" on="1"/>
        <pt x="1006" y="827" on="1"/>
        <pt x="887" y="662" on="1"/>
        <pt x="641" y="860" on="1"/>
        <pt x="662" y="530" on="1"/>
        <pt x="457" y="530" on="1"/>
        <pt x="475" y="860" on="1"/>
        <pt x="231" y="662" on="1"/>
        <pt x="113" y="827" on="1"/>
        <pt x="418" y="1022" on="1"/>
        <pt x="113" y="1217" on="1"/>
        <pt x="231" y="1382" on="1"/>
        <pt x="475" y="1182" on="1"/>
        <pt x="457" y="1513" on="1"/>
        <pt x="662" y="1513" on="1"/>
        <pt x="641" y="1182" on="1"/>
        <pt x="887" y="1382" on="1"/>
      </contour>
    </TTGlyph>
    <TTGlyph name="at" xMin="135" yMin="-90" xMax="1329" yMax="1104">
      <contour>
        <pt x="852" y="422" on="1"/>
        <pt x="604" y="422" on="1"/>
        <pt x="600" y="422" on="0"/>
        <pt x="586" y="421" on="0"/>
        <pt x="572" y="413" on="0"/>
        <pt x="561" y="395" on="0"/>
        <pt x="561" y="379" on="1"/>
        <pt x="561" y="375" on="0"/>
        <pt x="562" y="361" on="0"/>
        <pt x="570" y="347" on="0"/>
        <pt x="588" y="336" on="0"/>
        <pt x="604" y="336" on="1"/>
        <pt x="903" y="336" on="1"/>
        <pt x="903" y="635" on="1"/>
        <pt x="903" y="639" on="0"/>
        <pt x="902" y="653" on="0"/>
        <pt x="894" y="667" on="0"/>
        <pt x="876" y="678" on="0"/>
        <pt x="860" y="678" on="1"/>
        <pt x="504" y="678" on="1"/>
        <pt x="504" y="848" on="1"/>
        <pt x="860" y="848" on="1"/>
        <pt x="892" y="848" on="0"/>
        <pt x="967" y="825" on="0"/>
        <pt x="1031" y="775" on="0"/>
        <pt x="1073" y="693" on="0"/>
        <pt x="1073" y="635" on="1"/>
        <pt x="1073" y="336" on="1"/>
        <pt x="1116" y="336" on="1"/>
        <pt x="1121" y="336" on="0"/>
        <pt x="1136" y="337" on="0"/>
        <pt x="1149" y="345" on="0"/>
        <pt x="1159" y="363" on="0"/>
        <pt x="1159" y="379" on="1"/>
        <pt x="1159" y="762" on="1"/>
        <pt x="1159" y="820" on="0"/>
        <pt x="1117" y="889" on="0"/>
        <pt x="1060" y="924" on="0"/>
        <pt x="1002" y="934" on="0"/>
        <pt x="987" y="934" on="1"/>
        <pt x="477" y="934" on="1"/>
        <pt x="419" y="934" on="0"/>
        <pt x="351" y="892" on="0"/>
        <pt x="315" y="835" on="0"/>
        <pt x="305" y="777" on="0"/>
        <pt x="305" y="762" on="1"/>
        <pt x="305" y="250" on="1"/>
        <pt x="305" y="191" on="0"/>
        <pt x="347" y="124" on="0"/>
        <pt x="404" y="89" on="0"/>
        <pt x="462" y="80" on="0"/>
        <pt x="477" y="80" on="1"/>
        <pt x="604" y="80" on="1"/>
        <pt x="604" y="-90" on="1"/>
        <pt x="477" y="-90" on="1"/>
        <pt x="426" y="-90" on="0"/>
        <pt x="306" y="-54" on="0"/>
        <pt x="203" y="27" on="0"/>
        <pt x="135" y="156" on="0"/>
        <pt x="135" y="250" on="1"/>
        <pt x="135" y="762" on="1"/>
        <pt x="135" y="813" on="0"/>
        <pt x="171" y="933" on="0"/>
        <pt x="252" y="1036" on="0"/>
        <pt x="382" y="1104" on="0"/>
        <pt x="477" y="1104" on="1"/>
        <pt x="989" y="1104" on="1"/>
        <pt x="1023" y="1104" on="0"/>
        <pt x="1100" y="1088" on="0"/>
        <pt x="1176" y="1054" on="0"/>
        <pt x="1245" y="1001" on="0"/>
        <pt x="1298" y="925" on="0"/>
        <pt x="1329" y="825" on="0"/>
        <pt x="1329" y="762" on="1"/>
        <pt x="1329" y="379" on="1"/>
        <pt x="1329" y="347" on="0"/>
        <pt x="1307" y="272" on="0"/>
        <pt x="1257" y="208" on="0"/>
        <pt x="1175" y="166" on="0"/>
        <pt x="1116" y="166" on="1"/>
        <pt x="604" y="166" on="1"/>
        <pt x="572" y="166" on="0"/>
        <pt x="497" y="188" on="0"/>
        <pt x="433" y="238" on="0"/>
        <pt x="391" y="320" on="0"/>
        <pt x="391" y="379" on="1"/>
        <pt x="391" y="411" on="0"/>
        <pt x="414" y="486" on="0"/>
        <pt x="465" y="550" on="0"/>
        <pt x="546" y="592" on="0"/>
        <pt x="604" y="592" on="1"/>
        <pt x="852" y="592" on="1"/>
      </contour>
    </TTGlyph>
    <TTGlyph name="atilde" xMin="129" yMin="0" xMax="1436" yMax="1503">
      <component glyphName="a" x="0" y="0" flags="0x204"/>
      <component glyphName="tilde" x="498" y="41" flags="0x4"/>
    </TTGlyph>
    <TTGlyph name="b" xMin="147" yMin="0" xMax="1481" yMax="1130">
      <contour>
        <pt x="1481" y="336" on="1"/>
        <pt x="1481" y="266" on="0"/>
        <pt x="1428" y="144" on="0"/>
        <pt x="1336" y="53" on="0"/>
        <pt x="1213" y="0" on="0"/>
        <pt x="1143" y="0" on="1"/>
        <pt x="453" y="0" on="1"/>
        <pt x="453" y="207" on="1"/>
        <pt x="1143" y="207" on="1"/>
        <pt x="1171" y="207" on="0"/>
        <pt x="1219" y="227" on="0"/>
        <pt x="1254" y="262" on="0"/>
        <pt x="1274" y="309" on="0"/>
        <pt x="1274" y="336" on="1"/>
        <pt x="1274" y="364" on="0"/>
        <pt x="1254" y="412" on="0"/>
        <pt x="1219" y="447" on="0"/>
        <pt x="1171" y="467" on="0"/>
        <pt x="1143" y="467" on="1"/>
        <pt x="453" y="467" on="1"/>
        <pt x="453" y="674" on="1"/>
        <pt x="975" y="674" on="1"/>
        <pt x="1005" y="675" on="0"/>
        <pt x="1057" y="695" on="0"/>
        <pt x="1096" y="728" on="0"/>
        <pt x="1118" y="773" on="0"/>
        <pt x="1118" y="799" on="1"/>
        <pt x="1118" y="826" on="0"/>
        <pt x="1098" y="871" on="0"/>
        <pt x="1063" y="905" on="0"/>
        <pt x="1016" y="924" on="0"/>
        <pt x="989" y="924" on="1"/>
        <pt x="356" y="924" on="1"/>
        <pt x="356" y="0" on="1"/>
        <pt x="147" y="0" on="1"/>
        <pt x="147" y="1130" on="1"/>
        <pt x="989" y="1130" on="1"/>
        <pt x="1058" y="1130" on="0"/>
        <pt x="1181" y="1078" on="0"/>
        <pt x="1272" y="989" on="0"/>
        <pt x="1325" y="868" on="0"/>
        <pt x="1325" y="799" on="1"/>
        <pt x="1325" y="755" on="0"/>
        <pt x="1302" y="677" on="0"/>
        <pt x="1282" y="643" on="1"/>
        <pt x="1326" y="623" on="0"/>
        <pt x="1399" y="560" on="0"/>
        <pt x="1452" y="480" on="0"/>
        <pt x="1481" y="387" on="0"/>
      </contour>
    </TTGlyph>
    <TTGlyph name="backslash" xMin="53" yMin="0" xMax="1040" yMax="1434">
      <contour>
        <pt x="1040" y="0" on="1"/>
        <pt x="807" y="0" on="1"/>
        <pt x="53" y="1434" on="1"/>
        <pt x="287" y="1434" on="1"/>
      </contour>
    </TTGlyph>
    <TTGlyph name="bar" xMin="156" yMin="-256" xMax="360" yMax="1741">
      <contour>
        <pt x="360" y="-256" on="1"/>
        <pt x="156" y="-256" on="1"/>
        <pt x="156" y="1741" on="1"/>
        <pt x="360" y="1741" on="1"/>
      </contour>
    </TTGlyph>
    <TTGlyph name="braceleft" xMin="-2" yMin="-256" xMax="766" yMax="1737">
      <contour>
        <pt x="766" y="1532" on="1"/>
        <pt x="664" y="1532" on="1"/>
        <pt x="628" y="1532" on="0"/>
        <pt x="556" y="1516" on="0"/>
        <pt x="499" y="1480" on="0"/>
        <pt x="463" y="1424" on="0"/>
        <pt x="463" y="1384" on="1"/>
        <pt x="463" y="1382" on="1"/>
        <pt x="463" y="1380" on="0"/>
        <pt x="461" y="1189" on="0"/>
        <pt x="461" y="999" on="1"/>
        <pt x="461" y="911" on="0"/>
        <pt x="405" y="785" on="0"/>
        <pt x="358" y="741" on="1"/>
        <pt x="385" y="714" on="0"/>
        <pt x="424" y="650" on="0"/>
        <pt x="449" y="583" on="0"/>
        <pt x="461" y="517" on="0"/>
        <pt x="461" y="487" on="1"/>
        <pt x="459" y="102" on="1"/>
        <pt x="459" y="61" on="0"/>
        <pt x="496" y="4" on="0"/>
        <pt x="554" y="-34" on="0"/>
        <pt x="625" y="-51" on="0"/>
        <pt x="659" y="-51" on="1"/>
        <pt x="762" y="-51" on="1"/>
        <pt x="762" y="-256" on="1"/>
        <pt x="659" y="-256" on="1"/>
        <pt x="619" y="-256" on="0"/>
        <pt x="527" y="-239" on="0"/>
        <pt x="437" y="-203" on="0"/>
        <pt x="355" y="-147" on="0"/>
        <pt x="292" y="-67" on="0"/>
        <pt x="254" y="37" on="0"/>
        <pt x="254" y="102" on="1"/>
        <pt x="256" y="485" on="1"/>
        <pt x="256" y="520" on="0"/>
        <pt x="232" y="577" on="0"/>
        <pt x="190" y="618" on="0"/>
        <pt x="133" y="641" on="0"/>
        <pt x="100" y="641" on="1"/>
        <pt x="57" y="641" on="0"/>
        <pt x="-2" y="700" on="0"/>
        <pt x="-2" y="743" on="1"/>
        <pt x="-2" y="764" on="0"/>
        <pt x="14" y="801" on="0"/>
        <pt x="41" y="830" on="0"/>
        <pt x="79" y="846" on="0"/>
        <pt x="100" y="846" on="1"/>
        <pt x="127" y="846" on="0"/>
        <pt x="182" y="861" on="0"/>
        <pt x="227" y="896" on="0"/>
        <pt x="256" y="955" on="0"/>
        <pt x="256" y="999" on="1"/>
        <pt x="256" y="1183" on="0"/>
        <pt x="258" y="1374" on="0"/>
        <pt x="258" y="1382" on="1"/>
        <pt x="258" y="1467" on="0"/>
        <pt x="328" y="1600" on="0"/>
        <pt x="442" y="1690" on="0"/>
        <pt x="588" y="1737" on="0"/>
        <pt x="664" y="1737" on="1"/>
        <pt x="766" y="1737" on="1"/>
      </contour>
    </TTGlyph>
    <TTGlyph name="braceright" xMin="57" yMin="-256" xMax="825" yMax="1737">
      <contour>
        <pt x="57" y="1737" on="1"/>
        <pt x="160" y="1737" on="1"/>
        <pt x="236" y="1737" on="0"/>
        <pt x="381" y="1690" on="0"/>
        <pt x="495" y="1600" on="0"/>
        <pt x="565" y="1467" on="0"/>
        <pt x="565" y="1382" on="1"/>
        <pt x="565" y="1374" on="0"/>
        <pt x="567" y="1183" on="0"/>
        <pt x="567" y="999" on="1"/>
        <pt x="567" y="955" on="0"/>
        <pt x="595" y="896" on="0"/>
        <pt x="640" y="861" on="0"/>
        <pt x="696" y="846" on="0"/>
        <pt x="723" y="846" on="1"/>
        <pt x="744" y="846" on="0"/>
        <pt x="782" y="830" on="0"/>
        <pt x="809" y="801" on="0"/>
        <pt x="825" y="764" on="0"/>
        <pt x="825" y="743" on="1"/>
        <pt x="825" y="700" on="0"/>
        <pt x="766" y="641" on="0"/>
        <pt x="723" y="641" on="1"/>
        <pt x="690" y="641" on="0"/>
        <pt x="633" y="618" on="0"/>
        <pt x="591" y="577" on="0"/>
        <pt x="567" y="520" on="0"/>
        <pt x="567" y="485" on="1"/>
        <pt x="569" y="102" on="1"/>
        <pt x="569" y="4" on="0"/>
        <pt x="488" y="-133" on="0"/>
        <pt x="366" y="-218" on="0"/>
        <pt x="225" y="-256" on="0"/>
        <pt x="164" y="-256" on="1"/>
        <pt x="61" y="-256" on="1"/>
        <pt x="61" y="-51" on="1"/>
        <pt x="164" y="-51" on="1"/>
        <pt x="198" y="-51" on="0"/>
        <pt x="269" y="-34" on="0"/>
        <pt x="327" y="4" on="0"/>
        <pt x="365" y="61" on="0"/>
        <pt x="365" y="102" on="1"/>
        <pt x="362" y="487" on="1"/>
        <pt x="362" y="517" on="0"/>
        <pt x="374" y="583" on="0"/>
        <pt x="399" y="650" on="0"/>
        <pt x="438" y="714" on="0"/>
        <pt x="465" y="741" on="1"/>
        <pt x="418" y="785" on="0"/>
        <pt x="362" y="911" on="0"/>
        <pt x="362" y="999" on="1"/>
        <pt x="362" y="1189" on="0"/>
        <pt x="360" y="1380" on="0"/>
        <pt x="360" y="1382" on="1"/>
        <pt x="360" y="1384" on="1"/>
        <pt x="360" y="1424" on="0"/>
        <pt x="324" y="1480" on="0"/>
        <pt x="267" y="1516" on="0"/>
        <pt x="196" y="1532" on="0"/>
        <pt x="160" y="1532" on="1"/>
        <pt x="57" y="1532" on="1"/>
      </contour>
    </TTGlyph>
    <TTGlyph name="bracketleft" xMin="156" yMin="-256" xMax="668" yMax="1737">
      <contour>
        <pt x="668" y="1532" on="1"/>
        <pt x="360" y="1532" on="1"/>
        <pt x="360" y="-51" on="1"/>
        <pt x="668" y="-51" on="1"/>
        <pt x="668" y="-256" on="1"/>
        <pt x="258" y="-256" on="1"/>
        <pt x="215" y="-256" on="0"/>
        <pt x="156" y="-197" on="0"/>
        <pt x="156" y="-154" on="1"/>
        <pt x="156" y="1634" on="1"/>
        <pt x="156" y="1678" on="0"/>
        <pt x="215" y="1737" on="0"/>
        <pt x="258" y="1737" on="1"/>
        <pt x="668" y="1737" on="1"/>
      </contour>
    </TTGlyph>
    <TTGlyph name="bracketright" xMin="59" yMin="-256" xMax="571" yMax="1737">
      <contour>
        <pt x="59" y="1737" on="1"/>
        <pt x="469" y="1737" on="1"/>
        <pt x="512" y="1737" on="0"/>
        <pt x="571" y="1678" on="0"/>
        <pt x="571" y="1634" on="1"/>
        <pt x="571" y="-154" on="1"/>
        <pt x="571" y="-197" on="0"/>
        <pt x="512" y="-256" on="0"/>
        <pt x="469" y="-256" on="1"/>
        <pt x="59" y="-256" on="1"/>
        <pt x="59" y="-51" on="1"/>
        <pt x="367" y="-51" on="1"/>
        <pt x="367" y="1532" on="1"/>
        <pt x="59" y="1532" on="1"/>
      </contour>
    </TTGlyph>
    <TTGlyph name="breve" xMin="0" yMin="1225" xMax="586" yMax="1499">
      <contour>
        <pt x="586" y="1499" on="1"/>
        <pt x="585" y="1481" on="0"/>
        <pt x="575" y="1426" on="0"/>
        <pt x="551" y="1366" on="0"/>
        <pt x="511" y="1304" on="0"/>
        <pt x="446" y="1256" on="0"/>
        <pt x="355" y="1225" on="0"/>
        <pt x="293" y="1225" on="1"/>
        <pt x="231" y="1225" on="0"/>
        <pt x="140" y="1256" on="0"/>
        <pt x="75" y="1304" on="0"/>
        <pt x="35" y="1366" on="0"/>
        <pt x="11" y="1426" on="0"/>
        <pt x="1" y="1481" on="0"/>
        <pt x="0" y="1499" on="1"/>
        <pt x="135" y="1499" on="1"/>
        <pt x="139" y="1486" on="0"/>
        <pt x="158" y="1449" on="0"/>
        <pt x="193" y="1416" on="0"/>
        <pt x="250" y="1393" on="0"/>
        <pt x="293" y="1393" on="1"/>
        <pt x="336" y="1393" on="0"/>
        <pt x="393" y="1416" on="0"/>
        <pt x="429" y="1449" on="0"/>
        <pt x="447" y="1486" on="0"/>
        <pt x="451" y="1499" on="1"/>
      </contour>
    </TTGlyph>
    <TTGlyph name="brokenbar" xMin="160" yMin="-256" xMax="365" yMax="1741">
      <contour>
        <pt x="365" y="897" on="1"/>
        <pt x="160" y="897" on="1"/>
        <pt x="160" y="1741" on="1"/>
        <pt x="365" y="1741" on="1"/>
      </contour>
      <contour>
        <pt x="365" y="-256" on="1"/>
        <pt x="160" y="-256" on="1"/>
        <pt x="160" y="590" on="1"/>
        <pt x="365" y="590" on="1"/>
      </contour>
    </TTGlyph>
    <TTGlyph name="bullet" xMin="168" yMin="528" xMax="569" yMax="928">
      <contour>
        <pt x="569" y="729" on="1"/>
        <pt x="569" y="687" on="0"/>
        <pt x="537" y="613" on="0"/>
        <pt x="482" y="559" on="0"/>
        <pt x="409" y="528" on="0"/>
        <pt x="369" y="528" on="1"/>
        <pt x="327" y="528" on="0"/>
        <pt x="253" y="559" on="0"/>
        <pt x="199" y="613" on="0"/>
        <pt x="168" y="687" on="0"/>
        <pt x="168" y="729" on="1"/>
        <pt x="168" y="769" on="0"/>
        <pt x="199" y="841" on="0"/>
        <pt x="253" y="896" on="0"/>
        <pt x="327" y="928" on="0"/>
        <pt x="369" y="928" on="1"/>
        <pt x="409" y="928" on="0"/>
        <pt x="482" y="896" on="0"/>
        <pt x="537" y="841" on="0"/>
        <pt x="569" y="769" on="0"/>
      </contour>
    </TTGlyph>
    <TTGlyph name="c" xMin="80" yMin="0" xMax="1333" yMax="1130">
      <contour>
        <pt x="1333" y="0" on="1"/>
        <pt x="606" y="0" on="1"/>
        <pt x="487" y="0" on="0"/>
        <pt x="293" y="88" on="0"/>
        <pt x="155" y="241" on="0"/>
        <pt x="80" y="448" on="0"/>
        <pt x="80" y="567" on="1"/>
        <pt x="80" y="685" on="0"/>
        <pt x="155" y="890" on="0"/>
        <pt x="293" y="1042" on="0"/>
        <pt x="487" y="1130" on="0"/>
        <pt x="606" y="1130" on="1"/>
        <pt x="1333" y="1130" on="1"/>
        <pt x="1333" y="924" on="1"/>
        <pt x="606" y="924" on="1"/>
        <pt x="532" y="924" on="0"/>
        <pt x="413" y="868" on="0"/>
        <pt x="331" y="772" on="0"/>
        <pt x="287" y="642" on="0"/>
        <pt x="287" y="567" on="1"/>
        <pt x="287" y="491" on="0"/>
        <pt x="331" y="360" on="0"/>
        <pt x="413" y="263" on="0"/>
        <pt x="532" y="207" on="0"/>
        <pt x="606" y="207" on="1"/>
        <pt x="1333" y="207" on="1"/>
      </contour>
    </TTGlyph>
    <TTGlyph name="cacute" xMin="80" yMin="0" xMax="1333" yMax="1571">
      <component glyphName="c" x="0" y="0" flags="0x204"/>
      <component glyphName="acute" x="698" y="41" flags="0x4"/>
    </TTGlyph>
    <TTGlyph name="caron" xMin="0" yMin="1198" xMax="635" yMax="1511">
      <contour>
        <pt x="68" y="1511" on="1"/>
        <pt x="317" y="1382" on="1"/>
        <pt x="567" y="1511" on="1"/>
        <pt x="635" y="1411" on="1"/>
        <pt x="317" y="1198" on="1"/>
        <pt x="0" y="1411" on="1"/>
      </contour>
    </TTGlyph>
    <TTGlyph name="ccaron" xMin="80" yMin="0" xMax="1333" yMax="1552">
      <component glyphName="c" x="0" y="0" flags="0x204"/>
      <component glyphName="caron" x="471" y="41" flags="0x4"/>
    </TTGlyph>
    <TTGlyph name="ccedilla" xMin="80" yMin="-326" xMax="1333" yMax="1130">
      <contour>
        <pt x="1333" y="0" on="1"/>
        <pt x="829" y="0" on="1"/>
        <pt x="811" y="-49" on="1"/>
        <pt x="832" y="-49" on="0"/>
        <pt x="885" y="-60" on="0"/>
        <pt x="932" y="-88" on="0"/>
        <pt x="963" y="-140" on="0"/>
        <pt x="963" y="-180" on="1"/>
        <pt x="963" y="-222" on="0"/>
        <pt x="922" y="-278" on="0"/>
        <pt x="856" y="-312" on="0"/>
        <pt x="775" y="-326" on="0"/>
        <pt x="735" y="-326" on="1"/>
        <pt x="698" y="-326" on="0"/>
        <pt x="649" y="-322" on="0"/>
        <pt x="613" y="-316" on="0"/>
        <pt x="587" y="-311" on="0"/>
        <pt x="573" y="-309" on="1"/>
        <pt x="573" y="-182" on="1"/>
        <pt x="601" y="-196" on="0"/>
        <pt x="679" y="-215" on="0"/>
        <pt x="719" y="-215" on="1"/>
        <pt x="759" y="-215" on="0"/>
        <pt x="813" y="-197" on="0"/>
        <pt x="813" y="-178" on="1"/>
        <pt x="813" y="-166" on="0"/>
        <pt x="795" y="-152" on="0"/>
        <pt x="770" y="-144" on="0"/>
        <pt x="741" y="-141" on="0"/>
        <pt x="729" y="-141" on="1"/>
        <pt x="712" y="-141" on="0"/>
        <pt x="677" y="-146" on="0"/>
        <pt x="662" y="-150" on="1"/>
        <pt x="717" y="0" on="1"/>
        <pt x="606" y="0" on="1"/>
        <pt x="487" y="0" on="0"/>
        <pt x="293" y="88" on="0"/>
        <pt x="155" y="241" on="0"/>
        <pt x="80" y="448" on="0"/>
        <pt x="80" y="567" on="1"/>
        <pt x="80" y="685" on="0"/>
        <pt x="155" y="890" on="0"/>
        <pt x="293" y="1042" on="0"/>
        <pt x="487" y="1130" on="0"/>
        <pt x="606" y="1130" on="1"/>
        <pt x="1333" y="1130" on="1"/>
        <pt x="1333" y="924" on="1"/>
        <pt x="606" y="924" on="1"/>
        <pt x="532" y="924" on="0"/>
        <pt x="413" y="868" on="0"/>
        <pt x="331" y="772" on="0"/>
        <pt x="287" y="642" on="0"/>
        <pt x="287" y="567" on="1"/>
        <pt x="287" y="491" on="0"/>
        <pt x="331" y="360" on="0"/>
        <pt x="413" y="263" on="0"/>
        <pt x="532" y="207" on="0"/>
        <pt x="606" y="207" on="1"/>
        <pt x="1333" y="207" on="1"/>
      </contour>
    </TTGlyph>
    <TTGlyph name="ccircumflex" xMin="80" yMin="0" xMax="1333" yMax="1573">
      <component glyphName="c" x="0" y="0" flags="0x204"/>
      <component glyphName="circumflex" x="440" y="41" flags="0x4"/>
    </TTGlyph>
    <TTGlyph name="cdotaccent" xMin="80" yMin="0" xMax="1333" yMax="1448">
      <component glyphName="c" x="0" y="0" flags="0x204"/>
      <component glyphName="dotaccent" x="696" y="41" flags="0x4"/>
    </TTGlyph>
    <TTGlyph name="cedilla" xMin="0" yMin="-326" xMax="389" yMax="14">
      <contour>
        <pt x="238" y="-49" on="1"/>
        <pt x="259" y="-49" on="0"/>
        <pt x="312" y="-60" on="0"/>
        <pt x="358" y="-88" on="0"/>
        <pt x="389" y="-140" on="0"/>
        <pt x="389" y="-180" on="1"/>
        <pt x="389" y="-222" on="0"/>
        <pt x="348" y="-278" on="0"/>
        <pt x="283" y="-312" on="0"/>
        <pt x="202" y="-326" on="0"/>
        <pt x="162" y="-326" on="1"/>
        <pt x="125" y="-326" on="0"/>
        <pt x="75" y="-322" on="0"/>
        <pt x="40" y="-316" on="0"/>
        <pt x="14" y="-311" on="0"/>
        <pt x="0" y="-309" on="1"/>
        <pt x="0" y="-182" on="1"/>
        <pt x="28" y="-196" on="0"/>
        <pt x="105" y="-215" on="0"/>
        <pt x="145" y="-215" on="1"/>
        <pt x="186" y="-215" on="0"/>
        <pt x="240" y="-197" on="0"/>
        <pt x="240" y="-178" on="1"/>
        <pt x="240" y="-166" on="0"/>
        <pt x="222" y="-152" on="0"/>
        <pt x="196" y="-144" on="0"/>
        <pt x="167" y="-141" on="0"/>
        <pt x="156" y="-141" on="1"/>
        <pt x="139" y="-141" on="0"/>
        <pt x="104" y="-146" on="0"/>
        <pt x="88" y="-150" on="1"/>
        <pt x="150" y="14" on="1"/>
        <pt x="262" y="14" on="1"/>
      </contour>
    </TTGlyph>
    <TTGlyph name="cent" xMin="74" yMin="0" xMax="991" yMax="1434">
      <contour>
        <pt x="991" y="309" on="1"/>
        <pt x="702" y="309" on="1"/>
        <pt x="702" y="0" on="1"/>
        <pt x="512" y="0" on="1"/>
        <pt x="512" y="309" on="1"/>
        <pt x="465" y="309" on="1"/>
        <pt x="381" y="309" on="0"/>
        <pt x="237" y="379" on="0"/>
        <pt x="133" y="496" on="0"/>
        <pt x="74" y="649" on="0"/>
        <pt x="74" y="733" on="1"/>
        <pt x="74" y="819" on="0"/>
        <pt x="140" y="973" on="0"/>
        <pt x="254" y="1088" on="0"/>
        <pt x="407" y="1155" on="0"/>
        <pt x="494" y="1155" on="1"/>
        <pt x="512" y="1155" on="1"/>
        <pt x="512" y="1434" on="1"/>
        <pt x="702" y="1434" on="1"/>
        <pt x="702" y="1155" on="1"/>
        <pt x="991" y="1155" on="1"/>
        <pt x="991" y="954" on="1"/>
        <pt x="494" y="954" on="1"/>
        <pt x="449" y="954" on="0"/>
        <pt x="369" y="919" on="0"/>
        <pt x="309" y="858" on="0"/>
        <pt x="274" y="777" on="0"/>
        <pt x="274" y="731" on="1"/>
        <pt x="274" y="686" on="0"/>
        <pt x="309" y="605" on="0"/>
        <pt x="369" y="545" on="0"/>
        <pt x="449" y="510" on="0"/>
        <pt x="494" y="510" on="1"/>
        <pt x="991" y="510" on="1"/>
      </contour>
    </TTGlyph>
    <TTGlyph name="circumflex" xMin="0" yMin="1219" xMax="655" yMax="1532">
      <contour>
        <pt x="567" y="1219" on="1"/>
        <pt x="317" y="1350" on="1"/>
        <pt x="68" y="1219" on="1"/>
        <pt x="0" y="1321" on="1"/>
        <pt x="317" y="1532" on="1"/>
        <pt x="655" y="1321" on="1"/>
      </contour>
    </TTGlyph>
    <TTGlyph name="colon" xMin="131" yMin="0" xMax="438" yMax="1128">
      <contour>
        <pt x="438" y="154" on="1"/>
        <pt x="438" y="122" on="0"/>
        <pt x="414" y="66" on="0"/>
        <pt x="372" y="24" on="0"/>
        <pt x="316" y="0" on="0"/>
        <pt x="285" y="0" on="1"/>
        <pt x="253" y="0" on="0"/>
        <pt x="197" y="24" on="0"/>
        <pt x="155" y="66" on="0"/>
        <pt x="131" y="122" on="0"/>
        <pt x="131" y="154" on="1"/>
        <pt x="131" y="185" on="0"/>
        <pt x="155" y="241" on="0"/>
        <pt x="197" y="283" on="0"/>
        <pt x="253" y="307" on="0"/>
        <pt x="285" y="307" on="1"/>
        <pt x="316" y="307" on="0"/>
        <pt x="372" y="283" on="0"/>
        <pt x="414" y="241" on="0"/>
        <pt x="438" y="185" on="0"/>
      </contour>
      <contour>
        <pt x="438" y="975" on="1"/>
        <pt x="438" y="943" on="0"/>
        <pt x="414" y="887" on="0"/>
        <pt x="372" y="845" on="0"/>
        <pt x="316" y="821" on="0"/>
        <pt x="285" y="821" on="1"/>
        <pt x="253" y="821" on="0"/>
        <pt x="197" y="845" on="0"/>
        <pt x="155" y="887" on="0"/>
        <pt x="131" y="943" on="0"/>
        <pt x="131" y="975" on="1"/>
        <pt x="131" y="1006" on="0"/>
        <pt x="155" y="1062" on="0"/>
        <pt x="197" y="1104" on="0"/>
        <pt x="253" y="1128" on="0"/>
        <pt x="285" y="1128" on="1"/>
        <pt x="316" y="1128" on="0"/>
        <pt x="372" y="1104" on="0"/>
        <pt x="414" y="1062" on="0"/>
        <pt x="438" y="1006" on="0"/>
      </contour>
    </TTGlyph>
    <TTGlyph name="comma" xMin="115" yMin="-109" xMax="422" yMax="307">
      <contour>
        <pt x="422" y="147" on="1"/>
        <pt x="420" y="96" on="0"/>
        <pt x="393" y="4" on="0"/>
        <pt x="377" y="-31" on="1"/>
        <pt x="359" y="-72" on="0"/>
        <pt x="336" y="-109" on="1"/>
        <pt x="205" y="-106" on="1"/>
        <pt x="212" y="-94" on="0"/>
        <pt x="219" y="-78" on="1"/>
        <pt x="225" y="-64" on="0"/>
        <pt x="239" y="-25" on="0"/>
        <pt x="246" y="0" on="1"/>
        <pt x="218" y="4" on="0"/>
        <pt x="170" y="31" on="0"/>
        <pt x="135" y="72" on="0"/>
        <pt x="115" y="125" on="0"/>
        <pt x="115" y="154" on="1"/>
        <pt x="115" y="185" on="0"/>
        <pt x="139" y="241" on="0"/>
        <pt x="181" y="283" on="0"/>
        <pt x="236" y="307" on="0"/>
        <pt x="268" y="307" on="1"/>
        <pt x="299" y="307" on="0"/>
        <pt x="355" y="283" on="0"/>
        <pt x="397" y="240" on="0"/>
        <pt x="422" y="181" on="0"/>
      </contour>
    </TTGlyph>
    <TTGlyph name="copyright" xMin="141" yMin="362" xMax="971" yMax="1126">
      <contour>
        <pt x="971" y="678" on="1"/>
        <pt x="971" y="584" on="0"/>
        <pt x="908" y="462" on="0"/>
        <pt x="818" y="390" on="0"/>
        <pt x="719" y="362" on="0"/>
        <pt x="682" y="362" on="1"/>
        <pt x="430" y="362" on="1"/>
        <pt x="392" y="362" on="0"/>
        <pt x="293" y="390" on="0"/>
        <pt x="203" y="462" on="0"/>
        <pt x="141" y="584" on="0"/>
        <pt x="141" y="678" on="1"/>
        <pt x="141" y="809" on="1"/>
        <pt x="141" y="903" on="0"/>
        <pt x="203" y="1025" on="0"/>
        <pt x="293" y="1097" on="0"/>
        <pt x="392" y="1126" on="0"/>
        <pt x="430" y="1126" on="1"/>
        <pt x="682" y="1126" on="1"/>
        <pt x="706" y="1126" on="0"/>
        <pt x="768" y="1114" on="0"/>
        <pt x="833" y="1085" on="0"/>
        <pt x="894" y="1038" on="0"/>
        <pt x="942" y="967" on="0"/>
        <pt x="971" y="872" on="0"/>
        <pt x="971" y="809" on="1"/>
      </contour>
      <contour>
        <pt x="862" y="809" on="1"/>
        <pt x="862" y="859" on="0"/>
        <pt x="838" y="929" on="0"/>
        <pt x="800" y="976" on="0"/>
        <pt x="756" y="1002" on="0"/>
        <pt x="716" y="1015" on="0"/>
        <pt x="686" y="1018" on="0"/>
        <pt x="682" y="1018" on="1"/>
        <pt x="430" y="1018" on="1"/>
        <pt x="425" y="1018" on="0"/>
        <pt x="395" y="1015" on="0"/>
        <pt x="355" y="1002" on="0"/>
        <pt x="311" y="976" on="0"/>
        <pt x="274" y="929" on="0"/>
        <pt x="250" y="859" on="0"/>
        <pt x="250" y="809" on="1"/>
        <pt x="250" y="678" on="1"/>
        <pt x="250" y="628" on="0"/>
        <pt x="274" y="558" on="0"/>
        <pt x="311" y="512" on="0"/>
        <pt x="355" y="486" on="0"/>
        <pt x="395" y="474" on="0"/>
        <pt x="425" y="471" on="0"/>
        <pt x="430" y="471" on="1"/>
        <pt x="682" y="471" on="1"/>
        <pt x="686" y="471" on="0"/>
        <pt x="717" y="474" on="0"/>
        <pt x="757" y="486" on="0"/>
        <pt x="801" y="512" on="0"/>
        <pt x="838" y="558" on="0"/>
        <pt x="862" y="628" on="0"/>
        <pt x="862" y="678" on="1"/>
      </contour>
      <contour>
        <pt x="727" y="528" on="1"/>
        <pt x="541" y="528" on="1"/>
        <pt x="511" y="528" on="0"/>
        <pt x="443" y="548" on="0"/>
        <pt x="384" y="592" on="0"/>
        <pt x="346" y="664" on="0"/>
        <pt x="346" y="715" on="1"/>
        <pt x="346" y="780" on="1"/>
        <pt x="346" y="814" on="0"/>
        <pt x="369" y="881" on="0"/>
        <pt x="416" y="934" on="0"/>
        <pt x="489" y="967" on="0"/>
        <pt x="539" y="967" on="1"/>
        <pt x="727" y="967" on="1"/>
        <pt x="727" y="856" on="1"/>
        <pt x="539" y="856" on="1"/>
        <pt x="511" y="856" on="0"/>
        <pt x="477" y="840" on="0"/>
        <pt x="459" y="817" on="0"/>
        <pt x="453" y="791" on="0"/>
        <pt x="453" y="780" on="1"/>
        <pt x="453" y="715" on="1"/>
        <pt x="453" y="687" on="0"/>
        <pt x="476" y="657" on="0"/>
        <pt x="506" y="642" on="0"/>
        <pt x="535" y="639" on="0"/>
        <pt x="541" y="639" on="1"/>
        <pt x="727" y="639" on="1"/>
      </contour>
    </TTGlyph>
    <TTGlyph name="currency" xMin="106" yMin="330" xMax="989" yMax="1149">
      <contour>
        <pt x="719" y="737" on="1"/>
        <pt x="719" y="772" on="0"/>
        <pt x="692" y="834" on="0"/>
        <pt x="646" y="880" on="0"/>
        <pt x="584" y="907" on="0"/>
        <pt x="549" y="907" on="1"/>
        <pt x="514" y="907" on="0"/>
        <pt x="451" y="880" on="0"/>
        <pt x="404" y="834" on="0"/>
        <pt x="377" y="772" on="0"/>
        <pt x="377" y="737" on="1"/>
        <pt x="377" y="702" on="0"/>
        <pt x="404" y="640" on="0"/>
        <pt x="451" y="594" on="0"/>
        <pt x="514" y="567" on="0"/>
        <pt x="549" y="567" on="1"/>
        <pt x="584" y="567" on="0"/>
        <pt x="646" y="594" on="0"/>
        <pt x="692" y="640" on="0"/>
        <pt x="719" y="702" on="0"/>
      </contour>
      <contour>
        <pt x="989" y="473" on="1"/>
        <pt x="852" y="330" on="1"/>
        <pt x="725" y="444" on="1"/>
        <pt x="687" y="420" on="0"/>
        <pt x="597" y="395" on="0"/>
        <pt x="549" y="395" on="1"/>
        <pt x="499" y="395" on="0"/>
        <pt x="409" y="421" on="0"/>
        <pt x="369" y="444" on="1"/>
        <pt x="242" y="330" on="1"/>
        <pt x="106" y="473" on="1"/>
        <pt x="238" y="592" on="1"/>
        <pt x="207" y="658" on="0"/>
        <pt x="207" y="737" on="1"/>
        <pt x="207" y="775" on="0"/>
        <pt x="223" y="851" on="0"/>
        <pt x="240" y="883" on="1"/>
        <pt x="106" y="1006" on="1"/>
        <pt x="242" y="1149" on="1"/>
        <pt x="373" y="1030" on="1"/>
        <pt x="411" y="1053" on="0"/>
        <pt x="499" y="1079" on="0"/>
        <pt x="549" y="1079" on="1"/>
        <pt x="597" y="1079" on="0"/>
        <pt x="683" y="1053" on="0"/>
        <pt x="721" y="1030" on="1"/>
        <pt x="852" y="1149" on="1"/>
        <pt x="989" y="1006" on="1"/>
        <pt x="854" y="885" on="1"/>
        <pt x="889" y="817" on="0"/>
        <pt x="889" y="737" on="1"/>
        <pt x="889" y="697" on="0"/>
        <pt x="872" y="624" on="0"/>
        <pt x="856" y="592" on="1"/>
      </contour>
    </TTGlyph>
    <TTGlyph name="d" xMin="147" yMin="0" xMax="1483" yMax="1130">
      <contour>
        <pt x="1483" y="567" on="1"/>
        <pt x="1483" y="448" on="0"/>
        <pt x="1407" y="241" on="0"/>
        <pt x="1269" y="88" on="0"/>
        <pt x="1074" y="0" on="0"/>
        <pt x="956" y="0" on="1"/>
        <pt x="453" y="0" on="1"/>
        <pt x="453" y="207" on="1"/>
        <pt x="956" y="207" on="1"/>
        <pt x="1031" y="207" on="0"/>
        <pt x="1149" y="263" on="0"/>
        <pt x="1232" y="360" on="0"/>
        <pt x="1276" y="491" on="0"/>
        <pt x="1276" y="567" on="1"/>
        <pt x="1276" y="642" on="0"/>
        <pt x="1232" y="772" on="0"/>
        <pt x="1149" y="868" on="0"/>
        <pt x="1031" y="924" on="0"/>
        <pt x="956" y="924" on="1"/>
        <pt x="356" y="924" on="1"/>
        <pt x="356" y="0" on="1"/>
        <pt x="147" y="0" on="1"/>
        <pt x="147" y="1130" on="1"/>
        <pt x="956" y="1130" on="1"/>
        <pt x="1074" y="1130" on="0"/>
        <pt x="1269" y="1042" on="0"/>
        <pt x="1407" y="890" on="0"/>
        <pt x="1483" y="685" on="0"/>
      </contour>
    </TTGlyph>
    <TTGlyph name="dagger" xMin="76" yMin="-256" xMax="793" yMax="1741">
      <contour>
        <pt x="537" y="-256" on="1"/>
        <pt x="332" y="-256" on="1"/>
        <pt x="332" y="1153" on="1"/>
        <pt x="76" y="1153" on="1"/>
        <pt x="76" y="1358" on="1"/>
        <pt x="332" y="1358" on="1"/>
        <pt x="332" y="1741" on="1"/>
        <pt x="537" y="1741" on="1"/>
        <pt x="537" y="1358" on="1"/>
        <pt x="793" y="1358" on="1"/>
        <pt x="793" y="1153" on="1"/>
        <pt x="537" y="1153" on="1"/>
      </contour>
    </TTGlyph>
    <TTGlyph name="daggerdbl" xMin="90" yMin="-256" xMax="807" yMax="1741">
      <contour>
        <pt x="807" y="129" on="1"/>
        <pt x="551" y="129" on="1"/>
        <pt x="551" y="-256" on="1"/>
        <pt x="346" y="-256" on="1"/>
        <pt x="346" y="129" on="1"/>
        <pt x="90" y="129" on="1"/>
        <pt x="90" y="334" on="1"/>
        <pt x="346" y="334" on="1"/>
        <pt x="346" y="1153" on="1"/>
        <pt x="90" y="1153" on="1"/>
        <pt x="90" y="1358" on="1"/>
        <pt x="346" y="1358" on="1"/>
        <pt x="346" y="1741" on="1"/>
        <pt x="551" y="1741" on="1"/>
        <pt x="551" y="1358" on="1"/>
        <pt x="807" y="1358" on="1"/>
        <pt x="807" y="1153" on="1"/>
        <pt x="551" y="1153" on="1"/>
        <pt x="551" y="334" on="1"/>
        <pt x="807" y="334" on="1"/>
      </contour>
    </TTGlyph>
    <TTGlyph name="dcaron" xMin="147" yMin="0" xMax="1483" yMax="1552">
      <component glyphName="d" x="0" y="0" flags="0x204"/>
      <component glyphName="caron" x="410" y="41" flags="0x4"/>
    </TTGlyph>
    <TTGlyph name="dcroat" xMin="35" yMin="0" xMax="1636" yMax="1130">
      <contour>
        <pt x="956" y="451" on="1"/>
        <pt x="510" y="451" on="1"/>
        <pt x="510" y="0" on="1"/>
        <pt x="301" y="0" on="1"/>
        <pt x="301" y="451" on="1"/>
        <pt x="35" y="451" on="1"/>
        <pt x="35" y="655" on="1"/>
        <pt x="301" y="655" on="1"/>
        <pt x="301" y="1130" on="1"/>
        <pt x="1110" y="1130" on="1"/>
        <pt x="1228" y="1130" on="0"/>
        <pt x="1422" y="1042" on="0"/>
        <pt x="1560" y="890" on="0"/>
        <pt x="1636" y="685" on="0"/>
        <pt x="1636" y="567" on="1"/>
        <pt x="1636" y="448" on="0"/>
        <pt x="1560" y="241" on="0"/>
        <pt x="1422" y="88" on="0"/>
        <pt x="1228" y="0" on="0"/>
        <pt x="1110" y="0" on="1"/>
        <pt x="606" y="0" on="1"/>
        <pt x="606" y="207" on="1"/>
        <pt x="1110" y="207" on="1"/>
        <pt x="1185" y="207" on="0"/>
        <pt x="1303" y="263" on="0"/>
        <pt x="1386" y="360" on="0"/>
        <pt x="1430" y="491" on="0"/>
        <pt x="1430" y="567" on="1"/>
        <pt x="1430" y="642" on="0"/>
        <pt x="1386" y="772" on="0"/>
        <pt x="1303" y="868" on="0"/>
        <pt x="1185" y="924" on="0"/>
        <pt x="1110" y="924" on="1"/>
        <pt x="510" y="924" on="1"/>
        <pt x="510" y="655" on="1"/>
        <pt x="956" y="655" on="1"/>
      </contour>
    </TTGlyph>
    <TTGlyph name="degree" xMin="104" yMin="1051" xMax="510" yMax="1434">
      <contour>
        <pt x="104" y="1241" on="1"/>
        <pt x="104" y="1280" on="0"/>
        <pt x="129" y="1351" on="0"/>
        <pt x="180" y="1403" on="0"/>
        <pt x="256" y="1434" on="0"/>
        <pt x="307" y="1434" on="1"/>
        <pt x="364" y="1434" on="0"/>
        <pt x="442" y="1403" on="0"/>
        <pt x="489" y="1351" on="0"/>
        <pt x="510" y="1280" on="0"/>
        <pt x="510" y="1241" on="1"/>
        <pt x="510" y="1203" on="0"/>
        <pt x="486" y="1134" on="0"/>
        <pt x="437" y="1082" on="0"/>
        <pt x="360" y="1051" on="0"/>
        <pt x="307" y="1051" on="1"/>
        <pt x="253" y="1051" on="0"/>
        <pt x="177" y="1082" on="0"/>
        <pt x="127" y="1134" on="0"/>
        <pt x="104" y="1203" on="0"/>
      </contour>
      <contour>
        <pt x="242" y="1241" on="1"/>
        <pt x="242" y="1212" on="0"/>
        <pt x="276" y="1171" on="0"/>
        <pt x="311" y="1171" on="1"/>
        <pt x="345" y="1171" on="0"/>
        <pt x="381" y="1212" on="0"/>
        <pt x="381" y="1241" on="1"/>
        <pt x="381" y="1270" on="0"/>
        <pt x="345" y="1311" on="0"/>
        <pt x="311" y="1311" on="1"/>
        <pt x="276" y="1311" on="0"/>
        <pt x="242" y="1270" on="0"/>
      </contour>
    </TTGlyph>
    <TTGlyph name="dieresis" xMin="0" yMin="1223" xMax="520" yMax="1407">
      <contour>
        <pt x="186" y="1315" on="1"/>
        <pt x="186" y="1296" on="0"/>
        <pt x="171" y="1262" on="0"/>
        <pt x="146" y="1237" on="0"/>
        <pt x="112" y="1223" on="0"/>
        <pt x="94" y="1223" on="1"/>
        <pt x="75" y="1223" on="0"/>
        <pt x="41" y="1237" on="0"/>
        <pt x="15" y="1262" on="0"/>
        <pt x="0" y="1296" on="0"/>
        <pt x="0" y="1315" on="1"/>
        <pt x="0" y="1333" on="0"/>
        <pt x="15" y="1367" on="0"/>
        <pt x="41" y="1392" on="0"/>
        <pt x="75" y="1407" on="0"/>
        <pt x="94" y="1407" on="1"/>
        <pt x="112" y="1407" on="0"/>
        <pt x="146" y="1392" on="0"/>
        <pt x="171" y="1367" on="0"/>
        <pt x="186" y="1333" on="0"/>
      </contour>
      <contour>
        <pt x="520" y="1315" on="1"/>
        <pt x="520" y="1296" on="0"/>
        <pt x="505" y="1262" on="0"/>
        <pt x="479" y="1237" on="0"/>
        <pt x="445" y="1223" on="0"/>
        <pt x="426" y="1223" on="1"/>
        <pt x="407" y="1223" on="0"/>
        <pt x="373" y="1237" on="0"/>
        <pt x="348" y="1262" on="0"/>
        <pt x="334" y="1296" on="0"/>
        <pt x="334" y="1315" on="1"/>
        <pt x="334" y="1333" on="0"/>
        <pt x="348" y="1367" on="0"/>
        <pt x="373" y="1392" on="0"/>
        <pt x="407" y="1407" on="0"/>
        <pt x="426" y="1407" on="1"/>
        <pt x="445" y="1407" on="0"/>
        <pt x="479" y="1392" on="0"/>
        <pt x="505" y="1367" on="0"/>
        <pt x="520" y="1333" on="0"/>
      </contour>
    </TTGlyph>
    <TTGlyph name="divide" xMin="94" yMin="205" xMax="1221" yMax="1229">
      <contour>
        <pt x="811" y="1075" on="1"/>
        <pt x="811" y="1043" on="0"/>
        <pt x="786" y="988" on="0"/>
        <pt x="744" y="946" on="0"/>
        <pt x="688" y="922" on="0"/>
        <pt x="657" y="922" on="1"/>
        <pt x="625" y="922" on="0"/>
        <pt x="570" y="946" on="0"/>
        <pt x="528" y="988" on="0"/>
        <pt x="504" y="1043" on="0"/>
        <pt x="504" y="1075" on="1"/>
        <pt x="504" y="1106" on="0"/>
        <pt x="528" y="1162" on="0"/>
        <pt x="570" y="1204" on="0"/>
        <pt x="625" y="1229" on="0"/>
        <pt x="657" y="1229" on="1"/>
        <pt x="688" y="1229" on="0"/>
        <pt x="744" y="1204" on="0"/>
        <pt x="786" y="1162" on="0"/>
        <pt x="811" y="1106" on="0"/>
      </contour>
      <contour>
        <pt x="1221" y="614" on="1"/>
        <pt x="94" y="614" on="1"/>
        <pt x="94" y="819" on="1"/>
        <pt x="1221" y="819" on="1"/>
      </contour>
      <contour>
        <pt x="811" y="358" on="1"/>
        <pt x="811" y="326" on="0"/>
        <pt x="786" y="271" on="0"/>
        <pt x="744" y="229" on="0"/>
        <pt x="688" y="205" on="0"/>
        <pt x="657" y="205" on="1"/>
        <pt x="625" y="205" on="0"/>
        <pt x="570" y="229" on="0"/>
        <pt x="528" y="271" on="0"/>
        <pt x="504" y="326" on="0"/>
        <pt x="504" y="358" on="1"/>
        <pt x="504" y="389" on="0"/>
        <pt x="528" y="445" on="0"/>
        <pt x="570" y="487" on="0"/>
        <pt x="625" y="512" on="0"/>
        <pt x="657" y="512" on="1"/>
        <pt x="688" y="512" on="0"/>
        <pt x="744" y="487" on="0"/>
        <pt x="786" y="445" on="0"/>
        <pt x="811" y="389" on="0"/>
      </contour>
    </TTGlyph>
    <TTGlyph name="dollar" xMin="102" yMin="0" xMax="1020" yMax="1434">
      <contour>
        <pt x="1020" y="588" on="1"/>
        <pt x="1020" y="530" on="0"/>
        <pt x="976" y="429" on="0"/>
        <pt x="900" y="353" on="0"/>
        <pt x="797" y="309" on="0"/>
        <pt x="739" y="309" on="1"/>
        <pt x="655" y="309" on="1"/>
        <pt x="655" y="0" on="1"/>
        <pt x="465" y="0" on="1"/>
        <pt x="465" y="309" on="1"/>
        <pt x="102" y="309" on="1"/>
        <pt x="102" y="510" on="1"/>
        <pt x="739" y="510" on="1"/>
        <pt x="773" y="510" on="0"/>
        <pt x="819" y="556" on="0"/>
        <pt x="819" y="588" on="1"/>
        <pt x="819" y="622" on="0"/>
        <pt x="773" y="668" on="0"/>
        <pt x="739" y="668" on="1"/>
        <pt x="346" y="668" on="1"/>
        <pt x="295" y="668" on="0"/>
        <pt x="206" y="706" on="0"/>
        <pt x="140" y="772" on="0"/>
        <pt x="102" y="860" on="0"/>
        <pt x="102" y="911" on="1"/>
        <pt x="102" y="962" on="0"/>
        <pt x="140" y="1051" on="0"/>
        <pt x="206" y="1117" on="0"/>
        <pt x="295" y="1155" on="0"/>
        <pt x="346" y="1155" on="1"/>
        <pt x="465" y="1155" on="1"/>
        <pt x="465" y="1434" on="1"/>
        <pt x="655" y="1434" on="1"/>
        <pt x="655" y="1155" on="1"/>
        <pt x="948" y="1155" on="1"/>
        <pt x="948" y="954" on="1"/>
        <pt x="346" y="954" on="1"/>
        <pt x="326" y="954" on="0"/>
        <pt x="303" y="928" on="0"/>
        <pt x="303" y="911" on="1"/>
        <pt x="303" y="893" on="0"/>
        <pt x="328" y="868" on="0"/>
        <pt x="346" y="868" on="1"/>
        <pt x="739" y="868" on="1"/>
        <pt x="797" y="868" on="0"/>
        <pt x="900" y="824" on="0"/>
        <pt x="976" y="748" on="0"/>
        <pt x="1020" y="646" on="0"/>
      </contour>
    </TTGlyph>
    <TTGlyph name="dotaccent" xMin="0" yMin="1223" xMax="184" yMax="1407">
      <contour>
        <pt x="184" y="1315" on="1"/>
        <pt x="184" y="1296" on="0"/>
        <pt x="169" y="1262" on="0"/>
        <pt x="144" y="1237" on="0"/>
        <pt x="110" y="1223" on="0"/>
        <pt x="92" y="1223" on="1"/>
        <pt x="73" y="1223" on="0"/>
        <pt x="39" y="1237" on="0"/>
        <pt x="14" y="1262" on="0"/>
        <pt x="0" y="1296" on="0"/>
        <pt x="0" y="1315" on="1"/>
        <pt x="0" y="1333" on="0"/>
        <pt x="14" y="1367" on="0"/>
        <pt x="39" y="1392" on="0"/>
        <pt x="73" y="1407" on="0"/>
        <pt x="92" y="1407" on="1"/>
        <pt x="110" y="1407" on="0"/>
        <pt x="144" y="1392" on="0"/>
        <pt x="169" y="1367" on="0"/>
        <pt x="184" y="1333" on="0"/>
      </contour>
    </TTGlyph>
    <TTGlyph name="dotlessi" xMin="147" yMin="0" xMax="350" yMax="1126">
      <contour>
        <pt x="350" y="0" on="1"/>
        <pt x="147" y="0" on="1"/>
        <pt x="147" y="1126" on="1"/>
        <pt x="350" y="1126" on="1"/>
      </contour>
    </TTGlyph>
    <TTGlyph name="dotlessj" xMin="78" yMin="0" xMax="1300" yMax="1126">
      <contour>
        <pt x="1300" y="563" on="1"/>
        <pt x="1300" y="485" on="0"/>
        <pt x="1260" y="341" on="0"/>
        <pt x="1188" y="216" on="0"/>
        <pt x="1085" y="113" on="0"/>
        <pt x="961" y="40" on="0"/>
        <pt x="817" y="0" on="0"/>
        <pt x="739" y="0" on="1"/>
        <pt x="78" y="0" on="1"/>
        <pt x="78" y="205" on="1"/>
        <pt x="739" y="205" on="1"/>
        <pt x="813" y="205" on="0"/>
        <pt x="944" y="261" on="0"/>
        <pt x="1041" y="358" on="0"/>
        <pt x="1098" y="489" on="0"/>
        <pt x="1098" y="563" on="1"/>
        <pt x="1098" y="924" on="1"/>
        <pt x="78" y="924" on="1"/>
        <pt x="78" y="1126" on="1"/>
        <pt x="1300" y="1126" on="1"/>
      </contour>
    </TTGlyph>
    <TTGlyph name="e" xMin="147" yMin="0" xMax="1323" yMax="1130">
      <contour>
        <pt x="1323" y="0" on="1"/>
        <pt x="147" y="0" on="1"/>
        <pt x="147" y="1130" on="1"/>
        <pt x="1323" y="1130" on="1"/>
        <pt x="1323" y="924" on="1"/>
        <pt x="354" y="924" on="1"/>
        <pt x="354" y="207" on="1"/>
        <pt x="1323" y="207" on="1"/>
      </contour>
      <contour>
        <pt x="1192" y="467" on="1"/>
        <pt x="451" y="467" on="1"/>
        <pt x="451" y="674" on="1"/>
        <pt x="1192" y="674" on="1"/>
      </contour>
    </TTGlyph>
    <TTGlyph name="eacute" xMin="147" yMin="0" xMax="1323" yMax="1571">
      <component glyphName="e" x="0" y="0" flags="0x204"/>
      <component glyphName="acute" x="727" y="41" flags="0x4"/>
    </TTGlyph>
    <TTGlyph name="ebreve" xMin="147" yMin="0" xMax="1323" yMax="1540">
      <component glyphName="e" x="0" y="0" flags="0x204"/>
      <component glyphName="breve" x="449" y="41" flags="0x4"/>
    </TTGlyph>
    <TTGlyph name="ecaron" xMin="147" yMin="0" xMax="1323" yMax="1552">
      <component glyphName="e" x="0" y="0" flags="0x204"/>
      <component glyphName="caron" x="424" y="41" flags="0x4"/>
    </TTGlyph>
    <TTGlyph name="ecircumflex" xMin="147" yMin="0" xMax="1323" yMax="1573">
      <component glyphName="e" x="0" y="0" flags="0x204"/>
      <component glyphName="circumflex" x="408" y="41" flags="0x4"/>
    </TTGlyph>
    <TTGlyph name="edieresis" xMin="147" yMin="0" xMax="1323" yMax="1448">
      <component glyphName="e" x="0" y="0" flags="0x204"/>
      <component glyphName="dieresis" x="475" y="41" flags="0x4"/>
    </TTGlyph>
    <TTGlyph name="edotaccent" xMin="147" yMin="0" xMax="1323" yMax="1448">
      <component glyphName="e" x="0" y="0" flags="0x204"/>
      <component glyphName="dotaccent" x="649" y="41" flags="0x4"/>
    </TTGlyph>
    <TTGlyph name="egrave" xMin="147" yMin="0" xMax="1323" yMax="1571">
      <component glyphName="e" x="0" y="0" flags="0x204"/>
      <component glyphName="grave" x="317" y="41" flags="0x4"/>
    </TTGlyph>
    <TTGlyph name="eight" xMin="90" yMin="0" xMax="1626" yMax="1434">
      <contour>
        <pt x="1524" y="1024" on="1"/>
        <pt x="1524" y="949" on="0"/>
        <pt x="1472" y="814" on="0"/>
        <pt x="1425" y="760" on="1"/>
        <pt x="1470" y="733" on="0"/>
        <pt x="1544" y="658" on="0"/>
        <pt x="1597" y="568" on="0"/>
        <pt x="1626" y="465" on="0"/>
        <pt x="1626" y="410" on="1"/>
        <pt x="1626" y="325" on="0"/>
        <pt x="1561" y="176" on="0"/>
        <pt x="1450" y="65" on="0"/>
        <pt x="1301" y="0" on="0"/>
        <pt x="1217" y="0" on="1"/>
        <pt x="500" y="0" on="1"/>
        <pt x="414" y="0" on="0"/>
        <pt x="265" y="65" on="0"/>
        <pt x="154" y="176" on="0"/>
        <pt x="90" y="325" on="0"/>
        <pt x="90" y="410" on="1"/>
        <pt x="90" y="465" on="0"/>
        <pt x="119" y="568" on="0"/>
        <pt x="171" y="658" on="0"/>
        <pt x="244" y="733" on="0"/>
        <pt x="289" y="760" on="1"/>
        <pt x="242" y="814" on="0"/>
        <pt x="193" y="949" on="0"/>
        <pt x="193" y="1024" on="1"/>
        <pt x="193" y="1108" on="0"/>
        <pt x="257" y="1258" on="0"/>
        <pt x="368" y="1369" on="0"/>
        <pt x="517" y="1434" on="0"/>
        <pt x="602" y="1434" on="1"/>
        <pt x="1114" y="1434" on="1"/>
        <pt x="1198" y="1434" on="0"/>
        <pt x="1348" y="1369" on="0"/>
        <pt x="1459" y="1258" on="0"/>
        <pt x="1524" y="1108" on="0"/>
      </contour>
      <contour>
        <pt x="500" y="614" on="1"/>
        <pt x="457" y="614" on="0"/>
        <pt x="382" y="582" on="0"/>
        <pt x="327" y="526" on="0"/>
        <pt x="295" y="452" on="0"/>
        <pt x="295" y="410" on="1"/>
        <pt x="295" y="368" on="0"/>
        <pt x="327" y="293" on="0"/>
        <pt x="382" y="237" on="0"/>
        <pt x="457" y="205" on="0"/>
        <pt x="500" y="205" on="1"/>
        <pt x="1217" y="205" on="1"/>
        <pt x="1259" y="205" on="0"/>
        <pt x="1333" y="237" on="0"/>
        <pt x="1389" y="293" on="0"/>
        <pt x="1421" y="368" on="0"/>
        <pt x="1421" y="410" on="1"/>
        <pt x="1421" y="452" on="0"/>
        <pt x="1389" y="526" on="0"/>
        <pt x="1333" y="582" on="0"/>
        <pt x="1259" y="614" on="0"/>
        <pt x="1217" y="614" on="1"/>
      </contour>
      <contour>
        <pt x="1114" y="819" on="1"/>
        <pt x="1156" y="819" on="0"/>
        <pt x="1231" y="851" on="0"/>
        <pt x="1287" y="907" on="0"/>
        <pt x="1319" y="982" on="0"/>
        <pt x="1319" y="1024" on="1"/>
        <pt x="1319" y="1066" on="0"/>
        <pt x="1287" y="1141" on="0"/>
        <pt x="1231" y="1197" on="0"/>
        <pt x="1156" y="1229" on="0"/>
        <pt x="1114" y="1229" on="1"/>
        <pt x="602" y="1229" on="1"/>
        <pt x="559" y="1229" on="0"/>
        <pt x="484" y="1197" on="0"/>
        <pt x="429" y="1141" on="0"/>
        <pt x="397" y="1066" on="0"/>
        <pt x="397" y="1024" on="1"/>
        <pt x="397" y="982" on="0"/>
        <pt x="429" y="907" on="0"/>
        <pt x="484" y="851" on="0"/>
        <pt x="559" y="819" on="0"/>
        <pt x="602" y="819" on="1"/>
      </contour>
    </TTGlyph>
    <TTGlyph name="ellipsis" xMin="113" yMin="0" xMax="1485" yMax="307">
      <contour>
        <pt x="420" y="154" on="1"/>
        <pt x="420" y="122" on="0"/>
        <pt x="395" y="66" on="0"/>
        <pt x="353" y="24" on="0"/>
        <pt x="297" y="0" on="0"/>
        <pt x="266" y="0" on="1"/>
        <pt x="234" y="0" on="0"/>
        <pt x="179" y="24" on="0"/>
        <pt x="137" y="66" on="0"/>
        <pt x="113" y="122" on="0"/>
        <pt x="113" y="154" on="1"/>
        <pt x="113" y="185" on="0"/>
        <pt x="137" y="241" on="0"/>
        <pt x="179" y="283" on="0"/>
        <pt x="234" y="307" on="0"/>
        <pt x="266" y="307" on="1"/>
        <pt x="297" y="307" on="0"/>
        <pt x="353" y="283" on="0"/>
        <pt x="395" y="241" on="0"/>
        <pt x="420" y="185" on="0"/>
      </contour>
      <contour>
        <pt x="952" y="154" on="1"/>
        <pt x="952" y="122" on="0"/>
        <pt x="928" y="66" on="0"/>
        <pt x="886" y="24" on="0"/>
        <pt x="830" y="0" on="0"/>
        <pt x="799" y="0" on="1"/>
        <pt x="767" y="0" on="0"/>
        <pt x="711" y="24" on="0"/>
        <pt x="669" y="66" on="0"/>
        <pt x="645" y="122" on="0"/>
        <pt x="645" y="154" on="1"/>
        <pt x="645" y="185" on="0"/>
        <pt x="669" y="241" on="0"/>
        <pt x="711" y="283" on="0"/>
        <pt x="767" y="307" on="0"/>
        <pt x="799" y="307" on="1"/>
        <pt x="830" y="307" on="0"/>
        <pt x="886" y="283" on="0"/>
        <pt x="928" y="241" on="0"/>
        <pt x="952" y="185" on="0"/>
      </contour>
      <contour>
        <pt x="1485" y="154" on="1"/>
        <pt x="1485" y="122" on="0"/>
        <pt x="1460" y="66" on="0"/>
        <pt x="1418" y="24" on="0"/>
        <pt x="1362" y="0" on="0"/>
        <pt x="1331" y="0" on="1"/>
        <pt x="1299" y="0" on="0"/>
        <pt x="1244" y="24" on="0"/>
        <pt x="1202" y="66" on="0"/>
        <pt x="1178" y="122" on="0"/>
        <pt x="1178" y="154" on="1"/>
        <pt x="1178" y="185" on="0"/>
        <pt x="1202" y="241" on="0"/>
        <pt x="1244" y="283" on="0"/>
        <pt x="1299" y="307" on="0"/>
        <pt x="1331" y="307" on="1"/>
        <pt x="1362" y="307" on="0"/>
        <pt x="1418" y="283" on="0"/>
        <pt x="1460" y="241" on="0"/>
        <pt x="1485" y="185" on="0"/>
      </contour>
    </TTGlyph>
    <TTGlyph name="emacron" xMin="147" yMin="0" xMax="1323" yMax="1442">
      <component glyphName="e" x="0" y="0" flags="0x204"/>
      <component glyphName="macron" x="500" y="41" flags="0x4"/>
    </TTGlyph>
    <TTGlyph name="emdash" xMin="131" yMin="614" xMax="1769" yMax="819">
      <contour>
        <pt x="1769" y="614" on="1"/>
        <pt x="131" y="614" on="1"/>
        <pt x="131" y="819" on="1"/>
        <pt x="1769" y="819" on="1"/>
      </contour>
    </TTGlyph>
    <TTGlyph name="endash" xMin="131" yMin="614" xMax="950" yMax="819">
      <contour>
        <pt x="950" y="614" on="1"/>
        <pt x="131" y="614" on="1"/>
        <pt x="131" y="819" on="1"/>
        <pt x="950" y="819" on="1"/>
      </contour>
    </TTGlyph>
    <TTGlyph name="eng" xMin="147" yMin="-410" xMax="1386" yMax="1126">
      <contour>
        <pt x="1384" y="250" on="1"/>
        <pt x="1384" y="154" on="1"/>
        <pt x="1384" y="76" on="0"/>
        <pt x="1344" y="-68" on="0"/>
        <pt x="1272" y="-194" on="0"/>
        <pt x="1169" y="-296" on="0"/>
        <pt x="1045" y="-370" on="0"/>
        <pt x="901" y="-410" on="0"/>
        <pt x="823" y="-410" on="1"/>
        <pt x="162" y="-410" on="1"/>
        <pt x="162" y="-205" on="1"/>
        <pt x="823" y="-205" on="1"/>
        <pt x="887" y="-205" on="0"/>
        <pt x="1004" y="-161" on="0"/>
        <pt x="1097" y="-83" on="0"/>
        <pt x="1162" y="22" on="0"/>
        <pt x="1174" y="84" on="1"/>
        <pt x="1160" y="186" on="0"/>
        <pt x="1072" y="377" on="0"/>
        <pt x="944" y="547" on="0"/>
        <pt x="783" y="693" on="0"/>
        <pt x="610" y="807" on="0"/>
        <pt x="433" y="887" on="0"/>
        <pt x="352" y="907" on="1"/>
        <pt x="352" y="0" on="1"/>
        <pt x="147" y="0" on="1"/>
        <pt x="147" y="1126" on="1"/>
        <pt x="258" y="1126" on="1"/>
        <pt x="258" y="1124" on="1"/>
        <pt x="368" y="1118" on="0"/>
        <pt x="617" y="1033" on="0"/>
        <pt x="864" y="888" on="0"/>
        <pt x="1093" y="689" on="0"/>
        <pt x="1182" y="569" on="1"/>
        <pt x="1182" y="1126" on="1"/>
        <pt x="1386" y="1126" on="1"/>
        <pt x="1386" y="252" on="1"/>
      </contour>
    </TTGlyph>
    <TTGlyph name="eogonek" xMin="147" yMin="-309" xMax="1323" yMax="1130">
      <contour>
        <pt x="1323" y="0" on="1"/>
        <pt x="1161" y="0" on="1"/>
        <pt x="1126" y="-29" on="0"/>
        <pt x="1087" y="-100" on="0"/>
        <pt x="1087" y="-131" on="1"/>
        <pt x="1087" y="-157" on="0"/>
        <pt x="1123" y="-180" on="0"/>
        <pt x="1165" y="-180" on="1"/>
        <pt x="1183" y="-180" on="0"/>
        <pt x="1226" y="-173" on="0"/>
        <pt x="1269" y="-162" on="0"/>
        <pt x="1309" y="-149" on="0"/>
        <pt x="1323" y="-143" on="1"/>
        <pt x="1323" y="-276" on="1"/>
        <pt x="1309" y="-280" on="0"/>
        <pt x="1273" y="-291" on="0"/>
        <pt x="1224" y="-302" on="0"/>
        <pt x="1161" y="-309" on="0"/>
        <pt x="1120" y="-309" on="1"/>
        <pt x="1082" y="-309" on="0"/>
        <pt x="1014" y="-295" on="0"/>
        <pt x="963" y="-263" on="0"/>
        <pt x="934" y="-212" on="0"/>
        <pt x="934" y="-174" on="1"/>
        <pt x="934" y="-156" on="0"/>
        <pt x="943" y="-110" on="0"/>
        <pt x="963" y="-63" on="0"/>
        <pt x="995" y="-18" on="0"/>
        <pt x="1018" y="0" on="1"/>
        <pt x="147" y="0" on="1"/>
        <pt x="147" y="1130" on="1"/>
        <pt x="1323" y="1130" on="1"/>
        <pt x="1323" y="924" on="1"/>
        <pt x="354" y="924" on="1"/>
        <pt x="354" y="207" on="1"/>
        <pt x="1323" y="207" on="1"/>
      </contour>
      <contour>
        <pt x="1192" y="467" on="1"/>
        <pt x="451" y="467" on="1"/>
        <pt x="451" y="674" on="1"/>
        <pt x="1192" y="674" on="1"/>
      </contour>
    </TTGlyph>
    <TTGlyph name="equal" xMin="135" yMin="307" xMax="1262" yMax="1126">
      <contour>
        <pt x="1262" y="922" on="1"/>
        <pt x="135" y="922" on="1"/>
        <pt x="135" y="1126" on="1"/>
        <pt x="1262" y="1126" on="1"/>
      </contour>
      <contour>
        <pt x="1262" y="307" on="1"/>
        <pt x="135" y="307" on="1"/>
        <pt x="135" y="512" on="1"/>
        <pt x="1262" y="512" on="1"/>
      </contour>
    </TTGlyph>
    <TTGlyph name="eth" xMin="35" yMin="0" xMax="1636" yMax="1130">
      <contour>
        <pt x="956" y="451" on="1"/>
        <pt x="510" y="451" on="1"/>
        <pt x="510" y="0" on="1"/>
        <pt x="301" y="0" on="1"/>
        <pt x="301" y="451" on="1"/>
        <pt x="35" y="451" on="1"/>
        <pt x="35" y="655" on="1"/>
        <pt x="301" y="655" on="1"/>
        <pt x="301" y="1130" on="1"/>
        <pt x="1110" y="1130" on="1"/>
        <pt x="1228" y="1130" on="0"/>
        <pt x="1422" y="1042" on="0"/>
        <pt x="1560" y="890" on="0"/>
        <pt x="1636" y="685" on="0"/>
        <pt x="1636" y="567" on="1"/>
        <pt x="1636" y="448" on="0"/>
        <pt x="1560" y="241" on="0"/>
        <pt x="1422" y="88" on="0"/>
        <pt x="1228" y="0" on="0"/>
        <pt x="1110" y="0" on="1"/>
        <pt x="606" y="0" on="1"/>
        <pt x="606" y="207" on="1"/>
        <pt x="1110" y="207" on="1"/>
        <pt x="1185" y="207" on="0"/>
        <pt x="1303" y="263" on="0"/>
        <pt x="1386" y="360" on="0"/>
        <pt x="1430" y="491" on="0"/>
        <pt x="1430" y="567" on="1"/>
        <pt x="1430" y="642" on="0"/>
        <pt x="1386" y="772" on="0"/>
        <pt x="1303" y="868" on="0"/>
        <pt x="1185" y="924" on="0"/>
        <pt x="1110" y="924" on="1"/>
        <pt x="510" y="924" on="1"/>
        <pt x="510" y="655" on="1"/>
        <pt x="956" y="655" on="1"/>
      </contour>
    </TTGlyph>
    <TTGlyph name="exclam" xMin="115" yMin="0" xMax="422" yMax="1434">
      <contour>
        <pt x="385" y="1434" on="1"/>
        <pt x="342" y="385" on="1"/>
        <pt x="195" y="385" on="1"/>
        <pt x="152" y="1434" on="1"/>
      </contour>
      <contour>
        <pt x="422" y="154" on="1"/>
        <pt x="422" y="122" on="0"/>
        <pt x="397" y="66" on="0"/>
        <pt x="355" y="24" on="0"/>
        <pt x="299" y="0" on="0"/>
        <pt x="268" y="0" on="1"/>
        <pt x="236" y="0" on="0"/>
        <pt x="181" y="24" on="0"/>
        <pt x="139" y="66" on="0"/>
        <pt x="115" y="122" on="0"/>
        <pt x="115" y="154" on="1"/>
        <pt x="115" y="185" on="0"/>
        <pt x="139" y="241" on="0"/>
        <pt x="181" y="283" on="0"/>
        <pt x="236" y="307" on="0"/>
        <pt x="268" y="307" on="1"/>
        <pt x="299" y="307" on="0"/>
        <pt x="355" y="283" on="0"/>
        <pt x="397" y="241" on="0"/>
        <pt x="422" y="185" on="0"/>
      </contour>
    </TTGlyph>
    <TTGlyph name="exclamdown" xMin="115" yMin="0" xMax="422" yMax="1434">
      <contour>
        <pt x="152" y="0" on="1"/>
        <pt x="195" y="1049" on="1"/>
        <pt x="342" y="1049" on="1"/>
        <pt x="385" y="0" on="1"/>
      </contour>
      <contour>
        <pt x="115" y="1280" on="1"/>
        <pt x="115" y="1311" on="0"/>
        <pt x="139" y="1367" on="0"/>
        <pt x="181" y="1409" on="0"/>
        <pt x="236" y="1434" on="0"/>
        <pt x="268" y="1434" on="1"/>
        <pt x="299" y="1434" on="0"/>
        <pt x="355" y="1409" on="0"/>
        <pt x="397" y="1367" on="0"/>
        <pt x="422" y="1311" on="0"/>
        <pt x="422" y="1280" on="1"/>
        <pt x="422" y="1248" on="0"/>
        <pt x="397" y="1192" on="0"/>
        <pt x="355" y="1150" on="0"/>
        <pt x="299" y="1126" on="0"/>
        <pt x="268" y="1126" on="1"/>
        <pt x="236" y="1126" on="0"/>
        <pt x="181" y="1150" on="0"/>
        <pt x="139" y="1192" on="0"/>
        <pt x="115" y="1248" on="0"/>
      </contour>
    </TTGlyph>
    <TTGlyph name="f" xMin="147" yMin="0" xMax="1325" yMax="1130">
      <contour>
        <pt x="1325" y="924" on="1"/>
        <pt x="354" y="924" on="1"/>
        <pt x="354" y="0" on="1"/>
        <pt x="147" y="0" on="1"/>
        <pt x="147" y="1130" on="1"/>
        <pt x="1325" y="1130" on="1"/>
      </contour>
      <contour>
        <pt x="1192" y="467" on="1"/>
        <pt x="451" y="467" on="1"/>
        <pt x="451" y="674" on="1"/>
        <pt x="1192" y="674" on="1"/>
      </contour>
    </TTGlyph>
    <TTGlyph name="fi" xMin="147" yMin="0" xMax="1716" yMax="1130">
      <component glyphName="f" x="0" y="0" flags="0x4"/>
      <component glyphName="i" x="1366" y="0" flags="0x4"/>
    </TTGlyph>
    <TTGlyph name="five" xMin="131" yMin="0" xMax="1466" yMax="1434">
      <contour>
        <pt x="1466" y="461" on="1"/>
        <pt x="1466" y="366" on="0"/>
        <pt x="1394" y="198" on="0"/>
        <pt x="1270" y="73" on="0"/>
        <pt x="1102" y="0" on="0"/>
        <pt x="1006" y="0" on="1"/>
        <pt x="131" y="0" on="1"/>
        <pt x="131" y="205" on="1"/>
        <pt x="1006" y="205" on="1"/>
        <pt x="1059" y="205" on="0"/>
        <pt x="1152" y="245" on="0"/>
        <pt x="1222" y="314" on="0"/>
        <pt x="1262" y="408" on="0"/>
        <pt x="1262" y="461" on="1"/>
        <pt x="1262" y="514" on="0"/>
        <pt x="1222" y="607" on="0"/>
        <pt x="1152" y="677" on="0"/>
        <pt x="1059" y="717" on="0"/>
        <pt x="1006" y="717" on="1"/>
        <pt x="133" y="717" on="1"/>
        <pt x="133" y="1434" on="1"/>
        <pt x="1364" y="1434" on="1"/>
        <pt x="1364" y="1229" on="1"/>
        <pt x="338" y="1229" on="1"/>
        <pt x="338" y="922" on="1"/>
        <pt x="1006" y="922" on="1"/>
        <pt x="1102" y="922" on="0"/>
        <pt x="1270" y="849" on="0"/>
        <pt x="1394" y="724" on="0"/>
        <pt x="1466" y="556" on="0"/>
      </contour>
    </TTGlyph>
    <TTGlyph name="fl" xMin="147" yMin="0" xMax="2591" yMax="1130">
      <component glyphName="f" x="0" y="0" flags="0x4"/>
      <component glyphName="l" x="1366" y="0" flags="0x4"/>
    </TTGlyph>
    <TTGlyph name="florin" xMin="-365" yMin="-410" xMax="1274" yMax="1536">
      <contour>
        <pt x="1274" y="1331" on="1"/>
        <pt x="707" y="1331" on="1"/>
        <pt x="633" y="1330" on="0"/>
        <pt x="504" y="1273" on="0"/>
        <pt x="408" y="1176" on="0"/>
        <pt x="352" y="1046" on="0"/>
        <pt x="352" y="973" on="1"/>
        <pt x="352" y="102" on="1"/>
        <pt x="350" y="102" on="1"/>
        <pt x="350" y="-6" on="0"/>
        <pt x="258" y="-192" on="0"/>
        <pt x="104" y="-330" on="0"/>
        <pt x="-97" y="-409" on="0"/>
        <pt x="-207" y="-410" on="1"/>
        <pt x="-365" y="-410" on="1"/>
        <pt x="-365" y="-205" on="1"/>
        <pt x="-207" y="-205" on="1"/>
        <pt x="-133" y="-204" on="0"/>
        <pt x="-4" y="-147" on="0"/>
        <pt x="92" y="-50" on="0"/>
        <pt x="147" y="80" on="0"/>
        <pt x="147" y="154" on="1"/>
        <pt x="147" y="1024" on="1"/>
        <pt x="150" y="1024" on="1"/>
        <pt x="150" y="1131" on="0"/>
        <pt x="242" y="1317" on="0"/>
        <pt x="396" y="1455" on="0"/>
        <pt x="597" y="1535" on="0"/>
        <pt x="707" y="1536" on="1"/>
        <pt x="1274" y="1536" on="1"/>
      </contour>
      <contour>
        <pt x="1069" y="819" on="1"/>
        <pt x="455" y="819" on="1"/>
        <pt x="455" y="1024" on="1"/>
        <pt x="1069" y="1024" on="1"/>
      </contour>
    </TTGlyph>
    <TTGlyph name="four" xMin="82" yMin="0" xMax="1516" yMax="1434">
      <contour>
        <pt x="82" y="1434" on="1"/>
        <pt x="287" y="1434" on="1"/>
        <pt x="287" y="922" on="1"/>
        <pt x="287" y="880" on="0"/>
        <pt x="319" y="805" on="0"/>
        <pt x="375" y="749" on="0"/>
        <pt x="450" y="717" on="0"/>
        <pt x="492" y="717" on="1"/>
        <pt x="1311" y="717" on="1"/>
        <pt x="1311" y="1434" on="1"/>
        <pt x="1516" y="1434" on="1"/>
        <pt x="1516" y="0" on="1"/>
        <pt x="1311" y="0" on="1"/>
        <pt x="1311" y="512" on="1"/>
        <pt x="492" y="512" on="1"/>
        <pt x="407" y="512" on="0"/>
        <pt x="258" y="577" on="0"/>
        <pt x="147" y="688" on="0"/>
        <pt x="82" y="837" on="0"/>
        <pt x="82" y="922" on="1"/>
      </contour>
    </TTGlyph>
    <TTGlyph name="fraction" xMin="12" yMin="61" xMax="993" yMax="1348">
      <contour>
        <pt x="993" y="1348" on="1"/>
        <pt x="209" y="61" on="1"/>
        <pt x="12" y="61" on="1"/>
        <pt x="797" y="1348" on="1"/>
      </contour>
    </TTGlyph>
    <TTGlyph name="g" xMin="80" yMin="0" xMax="1333" yMax="1130">
      <contour>
        <pt x="1333" y="0" on="1"/>
        <pt x="606" y="0" on="1"/>
        <pt x="487" y="0" on="0"/>
        <pt x="293" y="88" on="0"/>
        <pt x="155" y="241" on="0"/>
        <pt x="80" y="448" on="0"/>
        <pt x="80" y="567" on="1"/>
        <pt x="80" y="685" on="0"/>
        <pt x="155" y="890" on="0"/>
        <pt x="293" y="1042" on="0"/>
        <pt x="487" y="1130" on="0"/>
        <pt x="606" y="1130" on="1"/>
        <pt x="1333" y="1130" on="1"/>
        <pt x="1333" y="924" on="1"/>
        <pt x="606" y="924" on="1"/>
        <pt x="532" y="924" on="0"/>
        <pt x="413" y="868" on="0"/>
        <pt x="331" y="772" on="0"/>
        <pt x="287" y="642" on="0"/>
        <pt x="287" y="567" on="1"/>
        <pt x="287" y="491" on="0"/>
        <pt x="331" y="360" on="0"/>
        <pt x="413" y="263" on="0"/>
        <pt x="532" y="207" on="0"/>
        <pt x="606" y="207" on="1"/>
        <pt x="1126" y="207" on="1"/>
        <pt x="1126" y="467" on="1"/>
        <pt x="539" y="467" on="1"/>
        <pt x="539" y="674" on="1"/>
        <pt x="1333" y="674" on="1"/>
      </contour>
    </TTGlyph>
    <TTGlyph name="gbreve" xMin="80" yMin="0" xMax="1333" yMax="1540">
      <component glyphName="g" x="0" y="0" flags="0x204"/>
      <component glyphName="breve" x="471" y="41" flags="0x4"/>
    </TTGlyph>
    <TTGlyph name="gcircumflex" xMin="80" yMin="0" xMax="1333" yMax="1573">
      <component glyphName="g" x="0" y="0" flags="0x204"/>
      <component glyphName="circumflex" x="436" y="41" flags="0x4"/>
    </TTGlyph>
    <TTGlyph name="gcommaaccent" xMin="80" yMin="-457" xMax="1333" yMax="1130">
      <component glyphName="g" x="0" y="0" flags="0x204"/>
      <component glyphName="uni0326" x="512" y="61" flags="0x4"/>
    </TTGlyph>
    <TTGlyph name="gdotaccent" xMin="80" yMin="0" xMax="1333" yMax="1448">
      <component glyphName="g" x="0" y="0" flags="0x204"/>
      <component glyphName="dotaccent" x="672" y="41" flags="0x4"/>
    </TTGlyph>
    <TTGlyph name="germandbls" xMin="94" yMin="0" xMax="2830" yMax="1126">
      <contour>
        <pt x="1382" y="332" on="1"/>
        <pt x="1382" y="263" on="0"/>
        <pt x="1330" y="142" on="0"/>
        <pt x="1241" y="52" on="0"/>
        <pt x="1120" y="0" on="0"/>
        <pt x="1051" y="0" on="1"/>
        <pt x="94" y="0" on="1"/>
        <pt x="94" y="205" on="1"/>
        <pt x="1051" y="205" on="1"/>
        <pt x="1078" y="205" on="0"/>
        <pt x="1125" y="224" on="0"/>
        <pt x="1160" y="259" on="0"/>
        <pt x="1180" y="305" on="0"/>
        <pt x="1180" y="332" on="1"/>
        <pt x="1180" y="359" on="0"/>
        <pt x="1160" y="406" on="0"/>
        <pt x="1125" y="441" on="0"/>
        <pt x="1078" y="461" on="0"/>
        <pt x="1051" y="461" on="1"/>
        <pt x="424" y="461" on="1"/>
        <pt x="356" y="461" on="0"/>
        <pt x="236" y="513" on="0"/>
        <pt x="146" y="604" on="0"/>
        <pt x="94" y="726" on="0"/>
        <pt x="94" y="795" on="1"/>
        <pt x="94" y="862" on="0"/>
        <pt x="146" y="983" on="0"/>
        <pt x="236" y="1073" on="0"/>
        <pt x="356" y="1126" on="0"/>
        <pt x="424" y="1126" on="1"/>
        <pt x="1307" y="1126" on="1"/>
        <pt x="1307" y="924" on="1"/>
        <pt x="424" y="924" on="1"/>
        <pt x="398" y="924" on="0"/>
        <pt x="351" y="903" on="0"/>
        <pt x="317" y="868" on="0"/>
        <pt x="297" y="821" on="0"/>
        <pt x="297" y="795" on="1"/>
        <pt x="297" y="768" on="0"/>
        <pt x="317" y="721" on="0"/>
        <pt x="351" y="686" on="0"/>
        <pt x="398" y="666" on="0"/>
        <pt x="424" y="666" on="1"/>
        <pt x="1051" y="666" on="1"/>
        <pt x="1120" y="666" on="0"/>
        <pt x="1241" y="613" on="0"/>
        <pt x="1330" y="522" on="0"/>
        <pt x="1382" y="400" on="0"/>
      </contour>
      <contour>
        <pt x="2830" y="332" on="1"/>
        <pt x="2830" y="263" on="0"/>
        <pt x="2778" y="142" on="0"/>
        <pt x="2689" y="52" on="0"/>
        <pt x="2568" y="0" on="0"/>
        <pt x="2499" y="0" on="1"/>
        <pt x="1542" y="0" on="1"/>
        <pt x="1542" y="205" on="1"/>
        <pt x="2499" y="205" on="1"/>
        <pt x="2526" y="205" on="0"/>
        <pt x="2573" y="224" on="0"/>
        <pt x="2608" y="259" on="0"/>
        <pt x="2628" y="305" on="0"/>
        <pt x="2628" y="332" on="1"/>
        <pt x="2628" y="359" on="0"/>
        <pt x="2608" y="406" on="0"/>
        <pt x="2573" y="441" on="0"/>
        <pt x="2526" y="461" on="0"/>
        <pt x="2499" y="461" on="1"/>
        <pt x="1872" y="461" on="1"/>
        <pt x="1804" y="461" on="0"/>
        <pt x="1684" y="513" on="0"/>
        <pt x="1594" y="604" on="0"/>
        <pt x="1542" y="726" on="0"/>
        <pt x="1542" y="795" on="1"/>
        <pt x="1542" y="862" on="0"/>
        <pt x="1594" y="983" on="0"/>
        <pt x="1684" y="1073" on="0"/>
        <pt x="1804" y="1126" on="0"/>
        <pt x="1872" y="1126" on="1"/>
        <pt x="2755" y="1126" on="1"/>
        <pt x="2755" y="924" on="1"/>
        <pt x="1872" y="924" on="1"/>
        <pt x="1846" y="924" on="0"/>
        <pt x="1799" y="903" on="0"/>
        <pt x="1765" y="868" on="0"/>
        <pt x="1745" y="821" on="0"/>
        <pt x="1745" y="795" on="1"/>
        <pt x="1745" y="768" on="0"/>
        <pt x="1765" y="721" on="0"/>
        <pt x="1799" y="686" on="0"/>
        <pt x="1846" y="666" on="0"/>
        <pt x="1872" y="666" on="1"/>
        <pt x="2499" y="666" on="1"/>
        <pt x="2568" y="666" on="0"/>
        <pt x="2689" y="613" on="0"/>
        <pt x="2778" y="522" on="0"/>
        <pt x="2830" y="400" on="0"/>
      </contour>
    </TTGlyph>
    <TTGlyph name="grave" xMin="0" yMin="1219" xMax="424" yMax="1530">
      <contour>
        <pt x="78" y="1530" on="1"/>
        <pt x="424" y="1327" on="1"/>
        <pt x="375" y="1219" on="1"/>
        <pt x="0" y="1354" on="1"/>
      </contour>
    </TTGlyph>
    <TTGlyph name="greater" xMin="109" yMin="119" xMax="977" yMax="1270">
      <contour>
        <pt x="375" y="1270" on="1"/>
        <pt x="942" y="764" on="1"/>
        <pt x="977" y="732" on="0"/>
        <pt x="977" y="686" on="1"/>
        <pt x="977" y="664" on="0"/>
        <pt x="959" y="624" on="0"/>
        <pt x="942" y="610" on="1"/>
        <pt x="379" y="119" on="1"/>
        <pt x="111" y="119" on="1"/>
        <pt x="760" y="688" on="1"/>
        <pt x="109" y="1270" on="1"/>
      </contour>
    </TTGlyph>
    <TTGlyph name="guillemotleft" xMin="82" yMin="102" xMax="1278" yMax="999">
      <contour>
        <pt x="807" y="999" on="1"/>
        <pt x="299" y="545" on="1"/>
        <pt x="803" y="102" on="1"/>
        <pt x="532" y="102" on="1"/>
        <pt x="117" y="467" on="1"/>
        <pt x="100" y="481" on="0"/>
        <pt x="82" y="521" on="0"/>
        <pt x="82" y="543" on="1"/>
        <pt x="82" y="564" on="0"/>
        <pt x="100" y="605" on="0"/>
        <pt x="117" y="621" on="1"/>
        <pt x="541" y="999" on="1"/>
      </contour>
      <contour>
        <pt x="1278" y="999" on="1"/>
        <pt x="770" y="545" on="1"/>
        <pt x="1274" y="102" on="1"/>
        <pt x="1004" y="102" on="1"/>
        <pt x="588" y="467" on="1"/>
        <pt x="571" y="481" on="0"/>
        <pt x="553" y="521" on="0"/>
        <pt x="553" y="543" on="1"/>
        <pt x="553" y="564" on="0"/>
        <pt x="571" y="605" on="0"/>
        <pt x="588" y="621" on="1"/>
        <pt x="1012" y="999" on="1"/>
      </contour>
    </TTGlyph>
    <TTGlyph name="guillemotright" xMin="88" yMin="102" xMax="1284" yMax="999">
      <contour>
        <pt x="825" y="999" on="1"/>
        <pt x="1249" y="621" on="1"/>
        <pt x="1266" y="605" on="0"/>
        <pt x="1284" y="564" on="0"/>
        <pt x="1284" y="543" on="1"/>
        <pt x="1284" y="521" on="0"/>
        <pt x="1266" y="481" on="0"/>
        <pt x="1249" y="467" on="1"/>
        <pt x="834" y="102" on="1"/>
        <pt x="563" y="102" on="1"/>
        <pt x="1067" y="545" on="1"/>
        <pt x="559" y="999" on="1"/>
      </contour>
      <contour>
        <pt x="354" y="999" on="1"/>
        <pt x="778" y="621" on="1"/>
        <pt x="795" y="605" on="0"/>
        <pt x="813" y="564" on="0"/>
        <pt x="813" y="543" on="1"/>
        <pt x="813" y="521" on="0"/>
        <pt x="795" y="481" on="0"/>
        <pt x="778" y="467" on="1"/>
        <pt x="362" y="102" on="1"/>
        <pt x="92" y="102" on="1"/>
        <pt x="596" y="545" on="1"/>
        <pt x="88" y="999" on="1"/>
      </contour>
    </TTGlyph>
    <TTGlyph name="guilsinglleft" xMin="82" yMin="102" xMax="807" yMax="999">
      <contour>
        <pt x="807" y="999" on="1"/>
        <pt x="299" y="545" on="1"/>
        <pt x="803" y="102" on="1"/>
        <pt x="532" y="102" on="1"/>
        <pt x="117" y="467" on="1"/>
        <pt x="100" y="481" on="0"/>
        <pt x="82" y="521" on="0"/>
        <pt x="82" y="543" on="1"/>
        <pt x="82" y="564" on="0"/>
        <pt x="100" y="605" on="0"/>
        <pt x="117" y="621" on="1"/>
        <pt x="541" y="999" on="1"/>
      </contour>
    </TTGlyph>
    <TTGlyph name="guilsinglright" xMin="88" yMin="102" xMax="813" yMax="999">
      <contour>
        <pt x="354" y="999" on="1"/>
        <pt x="778" y="621" on="1"/>
        <pt x="795" y="605" on="0"/>
        <pt x="813" y="564" on="0"/>
        <pt x="813" y="543" on="1"/>
        <pt x="813" y="521" on="0"/>
        <pt x="795" y="481" on="0"/>
        <pt x="778" y="467" on="1"/>
        <pt x="362" y="102" on="1"/>
        <pt x="92" y="102" on="1"/>
        <pt x="596" y="545" on="1"/>
        <pt x="88" y="999" on="1"/>
      </contour>
    </TTGlyph>
    <TTGlyph name="h" xMin="147" yMin="0" xMax="1331" yMax="1126">
      <contour>
        <pt x="1331" y="0" on="1"/>
        <pt x="1126" y="0" on="1"/>
        <pt x="1126" y="459" on="1"/>
        <pt x="449" y="459" on="1"/>
        <pt x="449" y="664" on="1"/>
        <pt x="1126" y="664" on="1"/>
        <pt x="1126" y="1126" on="1"/>
        <pt x="1331" y="1126" on="1"/>
      </contour>
      <contour>
        <pt x="352" y="0" on="1"/>
        <pt x="147" y="0" on="1"/>
        <pt x="147" y="1126" on="1"/>
        <pt x="352" y="1126" on="1"/>
      </contour>
    </TTGlyph>
    <TTGlyph name="hbar" xMin="147" yMin="0" xMax="1331" yMax="1126">
      <contour>
        <pt x="1331" y="0" on="1"/>
        <pt x="1126" y="0" on="1"/>
        <pt x="1126" y="459" on="1"/>
        <pt x="449" y="459" on="1"/>
        <pt x="449" y="664" on="1"/>
        <pt x="1126" y="664" on="1"/>
        <pt x="1126" y="1126" on="1"/>
        <pt x="1331" y="1126" on="1"/>
      </contour>
      <contour>
        <pt x="352" y="987" on="1"/>
        <pt x="1018" y="987" on="1"/>
        <pt x="1018" y="793" on="1"/>
        <pt x="352" y="793" on="1"/>
        <pt x="352" y="0" on="1"/>
        <pt x="147" y="0" on="1"/>
        <pt x="147" y="1126" on="1"/>
        <pt x="352" y="1126" on="1"/>
      </contour>
    </TTGlyph>
    <TTGlyph name="hcircumflex" xMin="147" yMin="0" xMax="1331" yMax="1573">
      <component glyphName="h" x="0" y="0" flags="0x204"/>
      <component glyphName="circumflex" x="412" y="41" flags="0x4"/>
    </TTGlyph>
    <TTGlyph name="hungarumlaut" xMin="0" yMin="1210" xMax="623" yMax="1485">
      <contour>
        <pt x="313" y="1346" on="1"/>
        <pt x="41" y="1210" on="1"/>
        <pt x="0" y="1278" on="1"/>
        <pt x="231" y="1485" on="1"/>
      </contour>
      <contour>
        <pt x="623" y="1346" on="1"/>
        <pt x="350" y="1210" on="1"/>
        <pt x="313" y="1278" on="1"/>
        <pt x="541" y="1485" on="1"/>
      </contour>
    </TTGlyph>
    <TTGlyph name="hyphen" xMin="131" yMin="614" xMax="1257" yMax="819">
      <contour>
        <pt x="1257" y="614" on="1"/>
        <pt x="131" y="614" on="1"/>
        <pt x="131" y="819" on="1"/>
        <pt x="1257" y="819" on="1"/>
      </contour>
    </TTGlyph>
    <TTGlyph name="i" xMin="147" yMin="0" xMax="350" yMax="1126">
      <contour>
        <pt x="350" y="0" on="1"/>
        <pt x="147" y="0" on="1"/>
        <pt x="147" y="1126" on="1"/>
        <pt x="350" y="1126" on="1"/>
      </contour>
    </TTGlyph>
    <TTGlyph name="iacute" xMin="147" yMin="0" xMax="666" yMax="1571">
      <component glyphName="dotlessi" x="0" y="0" flags="0x204"/>
      <component glyphName="acute" x="242" y="41" flags="0x4"/>
    </TTGlyph>
    <TTGlyph name="ibreve" xMin="-42" yMin="0" xMax="544" yMax="1581">
      <component glyphName="dotlessi" x="0" y="0" flags="0x204"/>
      <component glyphName="breve" x="-42" y="82" flags="0x4"/>
    </TTGlyph>
    <TTGlyph name="icircumflex" xMin="-77" yMin="0" xMax="578" yMax="1573">
      <component glyphName="dotlessi" x="0" y="0" flags="0x204"/>
      <component glyphName="circumflex" x="-77" y="41" flags="0x4"/>
    </TTGlyph>
    <TTGlyph name="idieresis" xMin="-9" yMin="0" xMax="511" yMax="1448">
      <component glyphName="dotlessi" x="0" y="0" flags="0x204"/>
      <component glyphName="dieresis" x="-9" y="41" flags="0x4"/>
    </TTGlyph>
    <TTGlyph name="igrave" xMin="-167" yMin="0" xMax="350" yMax="1571">
      <component glyphName="dotlessi" x="0" y="0" flags="0x204"/>
      <component glyphName="grave" x="-167" y="41" flags="0x4"/>
    </TTGlyph>
    <TTGlyph name="ij" xMin="147" yMin="0" xMax="1798" yMax="1126">
      <component glyphName="i" x="0" y="0" flags="0x4"/>
      <component glyphName="j" x="498" y="0" flags="0x4"/>
    </TTGlyph>
    <TTGlyph name="imacron" xMin="6" yMin="0" xMax="489" yMax="1483">
      <component glyphName="dotlessi" x="0" y="0" flags="0x204"/>
      <component glyphName="macron" x="6" y="82" flags="0x4"/>
    </TTGlyph>
    <TTGlyph name="integral" xMin="16" yMin="-410" xMax="1227" yMax="1536">
      <contour>
        <pt x="1227" y="1331" on="1"/>
        <pt x="1087" y="1331" on="1"/>
        <pt x="1013" y="1330" on="0"/>
        <pt x="884" y="1273" on="0"/>
        <pt x="788" y="1176" on="0"/>
        <pt x="733" y="1046" on="0"/>
        <pt x="733" y="973" on="1"/>
        <pt x="733" y="102" on="1"/>
        <pt x="731" y="102" on="1"/>
        <pt x="721" y="-5" on="0"/>
        <pt x="627" y="-192" on="0"/>
        <pt x="478" y="-330" on="0"/>
        <pt x="284" y="-409" on="0"/>
        <pt x="174" y="-410" on="1"/>
        <pt x="16" y="-410" on="1"/>
        <pt x="16" y="-205" on="1"/>
        <pt x="174" y="-205" on="1"/>
        <pt x="248" y="-204" on="0"/>
        <pt x="377" y="-147" on="0"/>
        <pt x="473" y="-50" on="0"/>
        <pt x="528" y="80" on="0"/>
        <pt x="528" y="154" on="1"/>
        <pt x="528" y="1024" on="1"/>
        <pt x="528" y="1096" on="0"/>
        <pt x="570" y="1228" on="0"/>
        <pt x="646" y="1341" on="0"/>
        <pt x="750" y="1434" on="0"/>
        <pt x="874" y="1499" on="0"/>
        <pt x="1014" y="1535" on="0"/>
        <pt x="1087" y="1536" on="1"/>
        <pt x="1227" y="1536" on="1"/>
      </contour>
    </TTGlyph>
    <TTGlyph name="iogonek" xMin="80" yMin="-309" xMax="469" yMax="1126">
      <contour>
        <pt x="350" y="0" on="1"/>
        <pt x="307" y="0" on="1"/>
        <pt x="272" y="-29" on="0"/>
        <pt x="233" y="-100" on="0"/>
        <pt x="233" y="-131" on="1"/>
        <pt x="233" y="-157" on="0"/>
        <pt x="269" y="-180" on="0"/>
        <pt x="311" y="-180" on="1"/>
        <pt x="329" y="-180" on="0"/>
        <pt x="372" y="-173" on="0"/>
        <pt x="415" y="-162" on="0"/>
        <pt x="455" y="-149" on="0"/>
        <pt x="469" y="-143" on="1"/>
        <pt x="469" y="-276" on="1"/>
        <pt x="455" y="-280" on="0"/>
        <pt x="419" y="-291" on="0"/>
        <pt x="370" y="-302" on="0"/>
        <pt x="307" y="-309" on="0"/>
        <pt x="266" y="-309" on="1"/>
        <pt x="228" y="-309" on="0"/>
        <pt x="160" y="-295" on="0"/>
        <pt x="109" y="-263" on="0"/>
        <pt x="80" y="-212" on="0"/>
        <pt x="80" y="-174" on="1"/>
        <pt x="80" y="-156" on="0"/>
        <pt x="89" y="-110" on="0"/>
        <pt x="109" y="-63" on="0"/>
        <pt x="141" y="-18" on="0"/>
        <pt x="164" y="0" on="1"/>
        <pt x="147" y="0" on="1"/>
        <pt x="147" y="1126" on="1"/>
        <pt x="350" y="1126" on="1"/>
      </contour>
    </TTGlyph>
    <TTGlyph name="itilde" xMin="-34" yMin="0" xMax="535" yMax="1544">
      <component glyphName="dotlessi" x="0" y="0" flags="0x204"/>
      <component glyphName="tilde" x="-34" y="82" flags="0x4"/>
    </TTGlyph>
    <TTGlyph name="j" xMin="78" yMin="0" xMax="1300" yMax="1126">
      <contour>
        <pt x="1300" y="563" on="1"/>
        <pt x="1300" y="485" on="0"/>
        <pt x="1260" y="341" on="0"/>
        <pt x="1188" y="216" on="0"/>
        <pt x="1085" y="113" on="0"/>
        <pt x="961" y="40" on="0"/>
        <pt x="817" y="0" on="0"/>
        <pt x="739" y="0" on="1"/>
        <pt x="78" y="0" on="1"/>
        <pt x="78" y="205" on="1"/>
        <pt x="739" y="205" on="1"/>
        <pt x="813" y="205" on="0"/>
        <pt x="944" y="261" on="0"/>
        <pt x="1041" y="358" on="0"/>
        <pt x="1098" y="489" on="0"/>
        <pt x="1098" y="563" on="1"/>
        <pt x="1098" y="924" on="1"/>
        <pt x="78" y="924" on="1"/>
        <pt x="78" y="1126" on="1"/>
        <pt x="1300" y="1126" on="1"/>
      </contour>
    </TTGlyph>
    <TTGlyph name="jcircumflex" xMin="78" yMin="0" xMax="1300" yMax="1573">
      <component glyphName="dotlessj" x="0" y="0" flags="0x204"/>
      <component glyphName="circumflex" x="387" y="41" flags="0x4"/>
    </TTGlyph>
    <TTGlyph name="k" xMin="147" yMin="0" xMax="1481" yMax="1126">
      <contour>
        <pt x="1481" y="0" on="1"/>
        <pt x="1204" y="0" on="1"/>
        <pt x="664" y="543" on="1"/>
        <pt x="352" y="317" on="1"/>
        <pt x="352" y="0" on="1"/>
        <pt x="147" y="0" on="1"/>
        <pt x="147" y="1126" on="1"/>
        <pt x="352" y="1126" on="1"/>
        <pt x="352" y="553" on="1"/>
        <pt x="1157" y="1126" on="1"/>
        <pt x="1470" y="1126" on="1"/>
        <pt x="821" y="657" on="1"/>
      </contour>
    </TTGlyph>
    <TTGlyph name="kcommaaccent" xMin="147" yMin="-395" xMax="1481" yMax="1126">
      <component glyphName="k" x="0" y="0" flags="0x204"/>
      <component glyphName="uni0326" x="475" y="123" flags="0x4"/>
    </TTGlyph>
    <TTGlyph name="kgreenlandic" xMin="147" yMin="0" xMax="1481" yMax="1126">
      <contour>
        <pt x="1481" y="0" on="1"/>
        <pt x="1204" y="0" on="1"/>
        <pt x="664" y="543" on="1"/>
        <pt x="352" y="317" on="1"/>
        <pt x="352" y="0" on="1"/>
        <pt x="147" y="0" on="1"/>
        <pt x="147" y="1126" on="1"/>
        <pt x="352" y="1126" on="1"/>
        <pt x="352" y="553" on="1"/>
        <pt x="1157" y="1126" on="1"/>
        <pt x="1470" y="1126" on="1"/>
        <pt x="821" y="657" on="1"/>
      </contour>
    </TTGlyph>
    <TTGlyph name="l" xMin="147" yMin="0" xMax="1225" yMax="1126">
      <contour>
        <pt x="1225" y="0" on="1"/>
        <pt x="147" y="0" on="1"/>
        <pt x="147" y="1126" on="1"/>
        <pt x="352" y="1126" on="1"/>
        <pt x="352" y="205" on="1"/>
        <pt x="1225" y="205" on="1"/>
      </contour>
    </TTGlyph>
    <TTGlyph name="lacute" xMin="147" yMin="0" xMax="1225" yMax="1571">
      <component glyphName="l" x="0" y="0" flags="0x204"/>
      <component glyphName="acute" x="248" y="41" flags="0x4"/>
    </TTGlyph>
    <TTGlyph name="lcaron" xMin="147" yMin="0" xMax="1225" yMax="1254">
      <component glyphName="l" x="0" y="0" flags="0x204"/>
      <component glyphName="uni0315" x="403" y="-407" flags="0x4"/>
    </TTGlyph>
    <TTGlyph name="lcommaaccent" xMin="147" yMin="-436" xMax="1225" yMax="1126">
      <component glyphName="l" x="0" y="0" flags="0x204"/>
      <component glyphName="uni0326" x="356" y="82" flags="0x4"/>
    </TTGlyph>
    <TTGlyph name="ldotaccent" xMin="147" yMin="0" xMax="1505" yMax="1126">
      <component glyphName="l" x="0" y="0" flags="0x4"/>
      <component glyphName="periodcentered" x="1069" y="0" flags="0x4"/>
    </TTGlyph>
    <TTGlyph name="less" xMin="74" yMin="119" xMax="942" yMax="1270">
      <contour>
        <pt x="942" y="1270" on="1"/>
        <pt x="291" y="688" on="1"/>
        <pt x="940" y="119" on="1"/>
        <pt x="672" y="119" on="1"/>
        <pt x="109" y="610" on="1"/>
        <pt x="92" y="624" on="0"/>
        <pt x="74" y="664" on="0"/>
        <pt x="74" y="686" on="1"/>
        <pt x="74" y="732" on="0"/>
        <pt x="109" y="764" on="1"/>
        <pt x="676" y="1270" on="1"/>
      </contour>
    </TTGlyph>
    <TTGlyph name="logicalnot" xMin="117" yMin="233" xMax="1055" yMax="819">
      <contour>
        <pt x="1055" y="233" on="1"/>
        <pt x="852" y="233" on="1"/>
        <pt x="852" y="616" on="1"/>
        <pt x="117" y="616" on="1"/>
        <pt x="117" y="819" on="1"/>
        <pt x="1055" y="819" on="1"/>
      </contour>
    </TTGlyph>
    <TTGlyph name="lslash" xMin="37" yMin="0" xMax="1380" yMax="1126">
      <contour>
        <pt x="979" y="651" on="1"/>
        <pt x="508" y="479" on="1"/>
        <pt x="508" y="205" on="1"/>
        <pt x="1380" y="205" on="1"/>
        <pt x="1380" y="0" on="1"/>
        <pt x="303" y="0" on="1"/>
        <pt x="303" y="403" on="1"/>
        <pt x="37" y="307" on="1"/>
        <pt x="37" y="532" on="1"/>
        <pt x="303" y="629" on="1"/>
        <pt x="303" y="1126" on="1"/>
        <pt x="508" y="1126" on="1"/>
        <pt x="508" y="705" on="1"/>
        <pt x="979" y="877" on="1"/>
      </contour>
    </TTGlyph>
    <TTGlyph name="m" xMin="147" yMin="0" xMax="1591" yMax="1126">
      <contour>
        <pt x="973" y="0" on="1"/>
        <pt x="768" y="0" on="1"/>
        <pt x="768" y="567" on="1"/>
        <pt x="768" y="641" on="0"/>
        <pt x="712" y="771" on="0"/>
        <pt x="615" y="868" on="0"/>
        <pt x="484" y="924" on="0"/>
        <pt x="410" y="924" on="1"/>
        <pt x="352" y="924" on="1"/>
        <pt x="352" y="0" on="1"/>
        <pt x="147" y="0" on="1"/>
        <pt x="147" y="1126" on="1"/>
        <pt x="410" y="1126" on="1"/>
        <pt x="482" y="1126" on="0"/>
        <pt x="616" y="1091" on="0"/>
        <pt x="735" y="1028" on="0"/>
        <pt x="836" y="938" on="0"/>
        <pt x="874" y="883" on="1"/>
        <pt x="913" y="938" on="0"/>
        <pt x="1012" y="1028" on="0"/>
        <pt x="1128" y="1091" on="0"/>
        <pt x="1258" y="1126" on="0"/>
        <pt x="1329" y="1126" on="1"/>
        <pt x="1591" y="1126" on="1"/>
        <pt x="1591" y="0" on="1"/>
        <pt x="1386" y="0" on="1"/>
        <pt x="1386" y="924" on="1"/>
        <pt x="1329" y="924" on="1"/>
        <pt x="1255" y="924" on="0"/>
        <pt x="1126" y="864" on="0"/>
        <pt x="1029" y="760" on="0"/>
        <pt x="973" y="620" on="0"/>
        <pt x="973" y="541" on="1"/>
      </contour>
    </TTGlyph>
    <TTGlyph name="macron" xMin="0" yMin="1233" xMax="483" yMax="1401">
      <contour>
        <pt x="0" y="1233" on="1"/>
        <pt x="0" y="1401" on="1"/>
        <pt x="483" y="1401" on="1"/>
        <pt x="483" y="1233" on="1"/>
      </contour>
    </TTGlyph>
    <TTGlyph name="minus" xMin="135" yMin="614" xMax="1262" yMax="819">
      <contour>
        <pt x="1262" y="614" on="1"/>
        <pt x="135" y="614" on="1"/>
        <pt x="135" y="819" on="1"/>
        <pt x="1262" y="819" on="1"/>
      </contour>
    </TTGlyph>
    <TTGlyph name="mu" xMin="152" yMin="-358" xMax="1386" yMax="1126">
      <contour>
        <pt x="356" y="-358" on="1"/>
        <pt x="152" y="-358" on="1"/>
        <pt x="152" y="-195" on="0"/>
        <pt x="153" y="55" on="0"/>
        <pt x="153" y="243" on="0"/>
        <pt x="153" y="375" on="0"/>
        <pt x="153" y="463" on="0"/>
        <pt x="152" y="516" on="0"/>
        <pt x="152" y="545" on="0"/>
        <pt x="152" y="558" on="0"/>
        <pt x="152" y="563" on="1"/>
        <pt x="152" y="1126" on="1"/>
        <pt x="356" y="1126" on="1"/>
        <pt x="356" y="563" on="1"/>
        <pt x="356" y="489" on="0"/>
        <pt x="412" y="358" on="0"/>
        <pt x="509" y="261" on="0"/>
        <pt x="639" y="205" on="0"/>
        <pt x="713" y="205" on="1"/>
        <pt x="825" y="205" on="1"/>
        <pt x="900" y="205" on="0"/>
        <pt x="1030" y="261" on="0"/>
        <pt x="1126" y="358" on="0"/>
        <pt x="1182" y="489" on="0"/>
        <pt x="1182" y="563" on="1"/>
        <pt x="1182" y="1126" on="1"/>
        <pt x="1386" y="1126" on="1"/>
        <pt x="1386" y="563" on="1"/>
        <pt x="1386" y="446" on="0"/>
        <pt x="1298" y="241" on="0"/>
        <pt x="1146" y="88" on="0"/>
        <pt x="941" y="0" on="0"/>
        <pt x="825" y="0" on="1"/>
        <pt x="713" y="0" on="1"/>
        <pt x="611" y="0" on="0"/>
        <pt x="429" y="67" on="0"/>
        <pt x="356" y="129" on="1"/>
      </contour>
    </TTGlyph>
    <TTGlyph name="multiply" xMin="111" yMin="307" xMax="1307" yMax="1126">
      <contour>
        <pt x="1307" y="307" on="1"/>
        <pt x="1014" y="307" on="1"/>
        <pt x="709" y="584" on="1"/>
        <pt x="403" y="307" on="1"/>
        <pt x="111" y="307" on="1"/>
        <pt x="561" y="717" on="1"/>
        <pt x="111" y="1126" on="1"/>
        <pt x="403" y="1126" on="1"/>
        <pt x="709" y="850" on="1"/>
        <pt x="1014" y="1126" on="1"/>
        <pt x="1307" y="1126" on="1"/>
        <pt x="854" y="717" on="1"/>
      </contour>
    </TTGlyph>
    <TTGlyph name="n" xMin="147" yMin="0" xMax="1386" yMax="1126">
      <contour>
        <pt x="1182" y="0" on="1"/>
        <pt x="1182" y="112" on="0"/>
        <pt x="1107" y="323" on="0"/>
        <pt x="980" y="510" on="0"/>
        <pt x="813" y="672" on="0"/>
        <pt x="629" y="799" on="0"/>
        <pt x="438" y="886" on="0"/>
        <pt x="352" y="907" on="1"/>
        <pt x="352" y="0" on="1"/>
        <pt x="147" y="0" on="1"/>
        <pt x="147" y="1126" on="1"/>
        <pt x="258" y="1126" on="1"/>
        <pt x="258" y="1124" on="1"/>
        <pt x="368" y="1118" on="0"/>
        <pt x="617" y="1033" on="0"/>
        <pt x="864" y="888" on="0"/>
        <pt x="1093" y="689" on="0"/>
        <pt x="1182" y="569" on="1"/>
        <pt x="1182" y="1126" on="1"/>
        <pt x="1386" y="1126" on="1"/>
        <pt x="1386" y="0" on="1"/>
      </contour>
    </TTGlyph>
    <TTGlyph name="nacute" xMin="147" yMin="0" xMax="1386" yMax="1571">
      <component glyphName="n" x="0" y="0" flags="0x204"/>
      <component glyphName="acute" x="760" y="41" flags="0x4"/>
    </TTGlyph>
    <TTGlyph name="napostrophe" xMin="131" yMin="0" xMax="1718" yMax="1661">
      <component glyphName="uni0315" x="0" y="0" flags="0x4"/>
      <component glyphName="n" x="332" y="0" flags="0x4"/>
    </TTGlyph>
    <TTGlyph name="ncaron" xMin="147" yMin="0" xMax="1386" yMax="1552">
      <component glyphName="n" x="0" y="0" flags="0x204"/>
      <component glyphName="caron" x="449" y="41" flags="0x4"/>
    </TTGlyph>
    <TTGlyph name="ncommaaccent" xMin="147" yMin="-416" xMax="1386" yMax="1126">
      <component glyphName="n" x="0" y="0" flags="0x204"/>
      <component glyphName="uni0326" x="498" y="102" flags="0x4"/>
    </TTGlyph>
    <TTGlyph name="nine" xMin="76" yMin="0" xMax="1509" yMax="1434">
      <contour>
        <pt x="1509" y="461" on="1"/>
        <pt x="1509" y="366" on="0"/>
        <pt x="1437" y="198" on="0"/>
        <pt x="1312" y="73" on="0"/>
        <pt x="1144" y="0" on="0"/>
        <pt x="1049" y="0" on="1"/>
        <pt x="178" y="0" on="1"/>
        <pt x="178" y="205" on="1"/>
        <pt x="1049" y="205" on="1"/>
        <pt x="1102" y="205" on="0"/>
        <pt x="1195" y="245" on="0"/>
        <pt x="1265" y="314" on="0"/>
        <pt x="1305" y="408" on="0"/>
        <pt x="1305" y="461" on="1"/>
        <pt x="1305" y="973" on="1"/>
        <pt x="1305" y="1026" on="0"/>
        <pt x="1265" y="1119" on="0"/>
        <pt x="1195" y="1189" on="0"/>
        <pt x="1102" y="1229" on="0"/>
        <pt x="1049" y="1229" on="1"/>
        <pt x="537" y="1229" on="1"/>
        <pt x="484" y="1229" on="0"/>
        <pt x="390" y="1189" on="0"/>
        <pt x="321" y="1119" on="0"/>
        <pt x="281" y="1026" on="0"/>
        <pt x="281" y="973" on="1"/>
        <pt x="281" y="920" on="0"/>
        <pt x="321" y="826" on="0"/>
        <pt x="390" y="757" on="0"/>
        <pt x="484" y="717" on="0"/>
        <pt x="537" y="717" on="1"/>
        <pt x="1202" y="717" on="1"/>
        <pt x="1202" y="512" on="1"/>
        <pt x="537" y="512" on="1"/>
        <pt x="441" y="512" on="0"/>
        <pt x="273" y="585" on="0"/>
        <pt x="148" y="710" on="0"/>
        <pt x="76" y="878" on="0"/>
        <pt x="76" y="973" on="1"/>
        <pt x="76" y="1068" on="0"/>
        <pt x="148" y="1236" on="0"/>
        <pt x="273" y="1361" on="0"/>
        <pt x="441" y="1434" on="0"/>
        <pt x="537" y="1434" on="1"/>
        <pt x="1049" y="1434" on="1"/>
        <pt x="1144" y="1434" on="0"/>
        <pt x="1312" y="1361" on="0"/>
        <pt x="1437" y="1236" on="0"/>
        <pt x="1509" y="1068" on="0"/>
        <pt x="1509" y="973" on="1"/>
      </contour>
    </TTGlyph>
    <TTGlyph name="notequal" xMin="162" yMin="84" xMax="1288" yMax="1354">
      <contour>
        <pt x="1288" y="307" on="1"/>
        <pt x="621" y="307" on="1"/>
        <pt x="504" y="84" on="1"/>
        <pt x="270" y="84" on="1"/>
        <pt x="387" y="307" on="1"/>
        <pt x="162" y="307" on="1"/>
        <pt x="162" y="512" on="1"/>
        <pt x="496" y="512" on="1"/>
        <pt x="711" y="922" on="1"/>
        <pt x="162" y="922" on="1"/>
        <pt x="162" y="1126" on="1"/>
        <pt x="819" y="1126" on="1"/>
        <pt x="940" y="1354" on="1"/>
        <pt x="1174" y="1354" on="1"/>
        <pt x="1053" y="1126" on="1"/>
        <pt x="1288" y="1126" on="1"/>
        <pt x="1288" y="922" on="1"/>
        <pt x="944" y="922" on="1"/>
        <pt x="729" y="512" on="1"/>
        <pt x="1288" y="512" on="1"/>
      </contour>
    </TTGlyph>
    <TTGlyph name="ntilde" xMin="147" yMin="0" xMax="1386" yMax="1503">
      <component glyphName="n" x="0" y="0" flags="0x204"/>
      <component glyphName="tilde" x="481" y="41" flags="0x4"/>
    </TTGlyph>
    <TTGlyph name="numbersign" xMin="72" yMin="0" xMax="1401" yMax="1374">
      <contour>
        <pt x="219" y="1004" on="1"/>
        <pt x="477" y="1004" on="1"/>
        <pt x="559" y="1374" on="1"/>
        <pt x="762" y="1374" on="1"/>
        <pt x="680" y="1004" on="1"/>
        <pt x="930" y="1004" on="1"/>
        <pt x="1012" y="1374" on="1"/>
        <pt x="1214" y="1374" on="1"/>
        <pt x="1133" y="1004" on="1"/>
        <pt x="1401" y="1004" on="1"/>
        <pt x="1360" y="811" on="1"/>
        <pt x="1090" y="811" on="1"/>
        <pt x="1036" y="567" on="1"/>
        <pt x="1298" y="567" on="1"/>
        <pt x="1257" y="375" on="1"/>
        <pt x="993" y="375" on="1"/>
        <pt x="911" y="0" on="1"/>
        <pt x="709" y="0" on="1"/>
        <pt x="791" y="375" on="1"/>
        <pt x="541" y="375" on="1"/>
        <pt x="459" y="0" on="1"/>
        <pt x="256" y="0" on="1"/>
        <pt x="338" y="375" on="1"/>
        <pt x="72" y="375" on="1"/>
        <pt x="117" y="567" on="1"/>
        <pt x="381" y="567" on="1"/>
        <pt x="434" y="811" on="1"/>
        <pt x="174" y="811" on="1"/>
      </contour>
      <contour>
        <pt x="584" y="567" on="1"/>
        <pt x="834" y="567" on="1"/>
        <pt x="887" y="811" on="1"/>
        <pt x="637" y="811" on="1"/>
      </contour>
    </TTGlyph>
    <TTGlyph name="o" xMin="80" yMin="0" xMax="1475" yMax="1126">
      <contour>
        <pt x="1475" y="565" on="1"/>
        <pt x="1475" y="448" on="0"/>
        <pt x="1401" y="243" on="0"/>
        <pt x="1264" y="89" on="0"/>
        <pt x="1073" y="0" on="0"/>
        <pt x="956" y="0" on="1"/>
        <pt x="600" y="0" on="1"/>
        <pt x="483" y="0" on="0"/>
        <pt x="291" y="89" on="0"/>
        <pt x="154" y="243" on="0"/>
        <pt x="80" y="448" on="0"/>
        <pt x="80" y="565" on="1"/>
        <pt x="80" y="681" on="0"/>
        <pt x="154" y="885" on="0"/>
        <pt x="291" y="1038" on="0"/>
        <pt x="483" y="1126" on="0"/>
        <pt x="600" y="1126" on="1"/>
        <pt x="956" y="1126" on="1"/>
        <pt x="1073" y="1126" on="0"/>
        <pt x="1264" y="1038" on="0"/>
        <pt x="1401" y="885" on="0"/>
        <pt x="1475" y="681" on="0"/>
      </contour>
      <contour>
        <pt x="1270" y="565" on="1"/>
        <pt x="1270" y="639" on="0"/>
        <pt x="1227" y="770" on="0"/>
        <pt x="1146" y="867" on="0"/>
        <pt x="1030" y="924" on="0"/>
        <pt x="956" y="924" on="1"/>
        <pt x="600" y="924" on="1"/>
        <pt x="526" y="924" on="0"/>
        <pt x="409" y="867" on="0"/>
        <pt x="328" y="770" on="0"/>
        <pt x="285" y="639" on="0"/>
        <pt x="285" y="565" on="1"/>
        <pt x="285" y="491" on="0"/>
        <pt x="328" y="360" on="0"/>
        <pt x="409" y="262" on="0"/>
        <pt x="526" y="205" on="0"/>
        <pt x="600" y="205" on="1"/>
        <pt x="956" y="205" on="1"/>
        <pt x="1030" y="205" on="0"/>
        <pt x="1146" y="262" on="0"/>
        <pt x="1227" y="360" on="0"/>
        <pt x="1270" y="491" on="0"/>
      </contour>
    </TTGlyph>
    <TTGlyph name="oacute" xMin="80" yMin="0" xMax="1475" yMax="1571">
      <component glyphName="o" x="0" y="0" flags="0x204"/>
      <component glyphName="acute" x="770" y="41" flags="0x4"/>
    </TTGlyph>
    <TTGlyph name="obreve" xMin="80" yMin="0" xMax="1475" yMax="1540">
      <component glyphName="o" x="0" y="0" flags="0x204"/>
      <component glyphName="breve" x="483" y="41" flags="0x4"/>
    </TTGlyph>
    <TTGlyph name="ocircumflex" xMin="80" yMin="0" xMax="1475" yMax="1573">
      <component glyphName="o" x="0" y="0" flags="0x204"/>
      <component glyphName="circumflex" x="449" y="41" flags="0x4"/>
    </TTGlyph>
    <TTGlyph name="odieresis" xMin="80" yMin="0" xMax="1475" yMax="1448">
      <component glyphName="o" x="0" y="0" flags="0x204"/>
      <component glyphName="dieresis" x="516" y="41" flags="0x4"/>
    </TTGlyph>
    <TTGlyph name="oe" xMin="80" yMin="0" xMax="2447" yMax="1130">
      <contour>
        <pt x="2447" y="0" on="1"/>
        <pt x="1272" y="0" on="1"/>
        <pt x="1272" y="109" on="1"/>
        <pt x="1209" y="56" on="0"/>
        <pt x="1049" y="0" on="0"/>
        <pt x="956" y="0" on="1"/>
        <pt x="600" y="0" on="1"/>
        <pt x="483" y="0" on="0"/>
        <pt x="291" y="89" on="0"/>
        <pt x="154" y="243" on="0"/>
        <pt x="80" y="448" on="0"/>
        <pt x="80" y="565" on="1"/>
        <pt x="80" y="681" on="0"/>
        <pt x="154" y="885" on="0"/>
        <pt x="291" y="1038" on="0"/>
        <pt x="483" y="1126" on="0"/>
        <pt x="600" y="1126" on="1"/>
        <pt x="956" y="1126" on="1"/>
        <pt x="1049" y="1126" on="0"/>
        <pt x="1209" y="1069" on="0"/>
        <pt x="1272" y="1018" on="1"/>
        <pt x="1272" y="1130" on="1"/>
        <pt x="2447" y="1130" on="1"/>
        <pt x="2447" y="924" on="1"/>
        <pt x="1479" y="924" on="1"/>
        <pt x="1479" y="207" on="1"/>
        <pt x="2447" y="207" on="1"/>
      </contour>
      <contour>
        <pt x="1270" y="565" on="1"/>
        <pt x="1270" y="639" on="0"/>
        <pt x="1227" y="770" on="0"/>
        <pt x="1146" y="867" on="0"/>
        <pt x="1030" y="924" on="0"/>
        <pt x="956" y="924" on="1"/>
        <pt x="600" y="924" on="1"/>
        <pt x="526" y="924" on="0"/>
        <pt x="409" y="867" on="0"/>
        <pt x="328" y="770" on="0"/>
        <pt x="285" y="639" on="0"/>
        <pt x="285" y="565" on="1"/>
        <pt x="285" y="491" on="0"/>
        <pt x="328" y="360" on="0"/>
        <pt x="409" y="262" on="0"/>
        <pt x="526" y="205" on="0"/>
        <pt x="600" y="205" on="1"/>
        <pt x="956" y="205" on="1"/>
        <pt x="1030" y="205" on="0"/>
        <pt x="1146" y="262" on="0"/>
        <pt x="1227" y="360" on="0"/>
        <pt x="1270" y="491" on="0"/>
      </contour>
      <contour>
        <pt x="2316" y="467" on="1"/>
        <pt x="1575" y="467" on="1"/>
        <pt x="1575" y="674" on="1"/>
        <pt x="2316" y="674" on="1"/>
      </contour>
    </TTGlyph>
    <TTGlyph name="ogonek" xMin="0" yMin="-309" xMax="389" yMax="16">
      <contour>
        <pt x="250" y="16" on="1"/>
        <pt x="205" y="-16" on="0"/>
        <pt x="154" y="-96" on="0"/>
        <pt x="154" y="-131" on="1"/>
        <pt x="154" y="-157" on="0"/>
        <pt x="189" y="-180" on="0"/>
        <pt x="231" y="-180" on="1"/>
        <pt x="249" y="-180" on="0"/>
        <pt x="292" y="-173" on="0"/>
        <pt x="336" y="-162" on="0"/>
        <pt x="375" y="-149" on="0"/>
        <pt x="389" y="-143" on="1"/>
        <pt x="389" y="-276" on="1"/>
        <pt x="375" y="-280" on="0"/>
        <pt x="339" y="-291" on="0"/>
        <pt x="290" y="-302" on="0"/>
        <pt x="227" y="-309" on="0"/>
        <pt x="186" y="-309" on="1"/>
        <pt x="148" y="-309" on="0"/>
        <pt x="80" y="-295" on="0"/>
        <pt x="29" y="-263" on="0"/>
        <pt x="0" y="-212" on="0"/>
        <pt x="0" y="-174" on="1"/>
        <pt x="0" y="-153" on="0"/>
        <pt x="12" y="-101" on="0"/>
        <pt x="38" y="-48" on="0"/>
        <pt x="80" y="0" on="0"/>
        <pt x="111" y="16" on="1"/>
      </contour>
    </TTGlyph>
    <TTGlyph name="ograve" xMin="80" yMin="0" xMax="1475" yMax="1571">
      <component glyphName="o" x="0" y="0" flags="0x204"/>
      <component glyphName="grave" x="360" y="41" flags="0x4"/>
    </TTGlyph>
    <TTGlyph name="ohungarumlaut" xMin="80" yMin="0" xMax="1475" yMax="1526">
      <component glyphName="o" x="0" y="0" flags="0x204"/>
      <component glyphName="hungarumlaut" x="670" y="41" flags="0x4"/>
    </TTGlyph>
    <TTGlyph name="omacron" xMin="80" yMin="0" xMax="1475" yMax="1442">
      <component glyphName="o" x="0" y="0" flags="0x204"/>
      <component glyphName="macron" x="535" y="41" flags="0x4"/>
    </TTGlyph>
    <TTGlyph name="one" xMin="59" yMin="0" xMax="469" yMax="1434">
      <contour>
        <pt x="469" y="0" on="1"/>
        <pt x="264" y="0" on="1"/>
        <pt x="264" y="1229" on="1"/>
        <pt x="59" y="1229" on="1"/>
        <pt x="59" y="1434" on="1"/>
        <pt x="469" y="1434" on="1"/>
      </contour>
    </TTGlyph>
    <TTGlyph name="onehalf" xMin="100" yMin="39" xMax="1423" yMax="1368">
      <contour>
        <pt x="1098" y="1348" on="1"/>
        <pt x="313" y="61" on="1"/>
        <pt x="117" y="61" on="1"/>
        <pt x="901" y="1348" on="1"/>
      </contour>
      <contour>
        <pt x="375" y="678" on="1"/>
        <pt x="205" y="678" on="1"/>
        <pt x="205" y="1196" on="1"/>
        <pt x="100" y="1196" on="1"/>
        <pt x="100" y="1368" on="1"/>
        <pt x="375" y="1368" on="1"/>
      </contour>
      <contour>
        <pt x="1423" y="39" on="1"/>
        <pt x="786" y="39" on="1"/>
        <pt x="786" y="281" on="1"/>
        <pt x="786" y="308" on="0"/>
        <pt x="807" y="374" on="0"/>
        <pt x="852" y="431" on="0"/>
        <pt x="924" y="469" on="0"/>
        <pt x="975" y="469" on="1"/>
        <pt x="1233" y="469" on="1"/>
        <pt x="1253" y="469" on="0"/>
        <pt x="1253" y="487" on="1"/>
        <pt x="1253" y="539" on="1"/>
        <pt x="1247" y="551" on="0"/>
        <pt x="1240" y="555" on="1"/>
        <pt x="1237" y="557" on="0"/>
        <pt x="1235" y="557" on="1"/>
        <pt x="838" y="557" on="1"/>
        <pt x="838" y="729" on="1"/>
        <pt x="1235" y="729" on="1"/>
        <pt x="1286" y="729" on="0"/>
        <pt x="1358" y="690" on="0"/>
        <pt x="1403" y="633" on="0"/>
        <pt x="1423" y="568" on="0"/>
        <pt x="1423" y="541" on="1"/>
        <pt x="1423" y="487" on="1"/>
        <pt x="1423" y="436" on="0"/>
        <pt x="1385" y="364" on="0"/>
        <pt x="1328" y="319" on="0"/>
        <pt x="1263" y="299" on="0"/>
        <pt x="1235" y="299" on="1"/>
        <pt x="975" y="299" on="1"/>
        <pt x="964" y="299" on="0"/>
        <pt x="956" y="287" on="0"/>
        <pt x="956" y="279" on="1"/>
        <pt x="956" y="211" on="1"/>
        <pt x="1423" y="211" on="1"/>
      </contour>
    </TTGlyph>
    <TTGlyph name="onequarter" xMin="100" yMin="39" xMax="1468" yMax="1368">
      <contour>
        <pt x="1098" y="1348" on="1"/>
        <pt x="313" y="61" on="1"/>
        <pt x="117" y="61" on="1"/>
        <pt x="901" y="1348" on="1"/>
      </contour>
      <contour>
        <pt x="1468" y="39" on="1"/>
        <pt x="1298" y="39" on="1"/>
        <pt x="1298" y="299" on="1"/>
        <pt x="918" y="299" on="1"/>
        <pt x="900" y="299" on="0"/>
        <pt x="868" y="313" on="0"/>
        <pt x="845" y="336" on="0"/>
        <pt x="831" y="367" on="0"/>
        <pt x="831" y="385" on="1"/>
        <pt x="831" y="729" on="1"/>
        <pt x="1001" y="729" on="1"/>
        <pt x="1001" y="469" on="1"/>
        <pt x="1298" y="469" on="1"/>
        <pt x="1298" y="729" on="1"/>
        <pt x="1468" y="729" on="1"/>
      </contour>
      <contour>
        <pt x="375" y="678" on="1"/>
        <pt x="205" y="678" on="1"/>
        <pt x="205" y="1196" on="1"/>
        <pt x="100" y="1196" on="1"/>
        <pt x="100" y="1368" on="1"/>
        <pt x="375" y="1368" on="1"/>
      </contour>
    </TTGlyph>
    <TTGlyph name="onesuperior" xMin="98" yMin="678" xMax="373" yMax="1368">
      <contour>
        <pt x="373" y="678" on="1"/>
        <pt x="203" y="678" on="1"/>
        <pt x="203" y="1196" on="1"/>
        <pt x="98" y="1196" on="1"/>
        <pt x="98" y="1368" on="1"/>
        <pt x="373" y="1368" on="1"/>
      </contour>
    </TTGlyph>
    <TTGlyph name="ordfeminine" xMin="94" yMin="492" xMax="930" yMax="1436">
      <contour>
        <pt x="930" y="750" on="1"/>
        <pt x="319" y="750" on="1"/>
        <pt x="273" y="750" on="0"/>
        <pt x="191" y="785" on="0"/>
        <pt x="130" y="846" on="0"/>
        <pt x="94" y="927" on="0"/>
        <pt x="94" y="973" on="1"/>
        <pt x="94" y="1019" on="0"/>
        <pt x="130" y="1101" on="0"/>
        <pt x="191" y="1162" on="0"/>
        <pt x="273" y="1198" on="0"/>
        <pt x="319" y="1198" on="1"/>
        <pt x="711" y="1198" on="1"/>
        <pt x="711" y="1047" on="1"/>
        <pt x="319" y="1047" on="1"/>
        <pt x="287" y="1047" on="0"/>
        <pt x="246" y="1004" on="0"/>
        <pt x="246" y="973" on="1"/>
        <pt x="246" y="942" on="0"/>
        <pt x="287" y="899" on="0"/>
        <pt x="319" y="899" on="1"/>
        <pt x="780" y="899" on="1"/>
        <pt x="780" y="1210" on="1"/>
        <pt x="780" y="1242" on="0"/>
        <pt x="738" y="1284" on="0"/>
        <pt x="707" y="1284" on="1"/>
        <pt x="213" y="1284" on="1"/>
        <pt x="213" y="1436" on="1"/>
        <pt x="707" y="1436" on="1"/>
        <pt x="753" y="1436" on="0"/>
        <pt x="834" y="1400" on="0"/>
        <pt x="895" y="1338" on="0"/>
        <pt x="930" y="1256" on="0"/>
        <pt x="930" y="1210" on="1"/>
      </contour>
      <contour>
        <pt x="930" y="492" on="1"/>
        <pt x="94" y="492" on="1"/>
        <pt x="94" y="635" on="1"/>
        <pt x="930" y="635" on="1"/>
      </contour>
    </TTGlyph>
    <TTGlyph name="ordmasculine" xMin="88" yMin="492" xMax="1016" yMax="1436">
      <contour>
        <pt x="1014" y="1092" on="1"/>
        <pt x="1014" y="1021" on="0"/>
        <pt x="960" y="897" on="0"/>
        <pt x="867" y="805" on="0"/>
        <pt x="742" y="751" on="0"/>
        <pt x="672" y="750" on="1"/>
        <pt x="430" y="750" on="1"/>
        <pt x="359" y="751" on="0"/>
        <pt x="235" y="805" on="0"/>
        <pt x="142" y="897" on="0"/>
        <pt x="88" y="1021" on="0"/>
        <pt x="88" y="1092" on="1"/>
        <pt x="88" y="1162" on="0"/>
        <pt x="142" y="1288" on="0"/>
        <pt x="235" y="1381" on="0"/>
        <pt x="359" y="1436" on="0"/>
        <pt x="430" y="1436" on="1"/>
        <pt x="672" y="1436" on="1"/>
        <pt x="742" y="1436" on="0"/>
        <pt x="867" y="1381" on="0"/>
        <pt x="960" y="1288" on="0"/>
        <pt x="1014" y="1162" on="0"/>
      </contour>
      <contour>
        <pt x="862" y="1092" on="1"/>
        <pt x="862" y="1132" on="0"/>
        <pt x="833" y="1201" on="0"/>
        <pt x="782" y="1253" on="0"/>
        <pt x="712" y="1283" on="0"/>
        <pt x="672" y="1284" on="1"/>
        <pt x="430" y="1284" on="1"/>
        <pt x="390" y="1283" on="0"/>
        <pt x="321" y="1253" on="0"/>
        <pt x="270" y="1201" on="0"/>
        <pt x="240" y="1132" on="0"/>
        <pt x="240" y="1092" on="1"/>
        <pt x="240" y="1052" on="0"/>
        <pt x="270" y="982" on="0"/>
        <pt x="321" y="929" on="0"/>
        <pt x="390" y="899" on="0"/>
        <pt x="430" y="899" on="1"/>
        <pt x="672" y="899" on="1"/>
        <pt x="712" y="899" on="0"/>
        <pt x="782" y="929" on="0"/>
        <pt x="833" y="982" on="0"/>
        <pt x="862" y="1052" on="0"/>
      </contour>
      <contour>
        <pt x="1016" y="492" on="1"/>
        <pt x="88" y="492" on="1"/>
        <pt x="88" y="635" on="1"/>
        <pt x="1016" y="635" on="1"/>
      </contour>
    </TTGlyph>
    <TTGlyph name="oslash" xMin="80" yMin="0" xMax="1475" yMax="1128">
      <contour>
        <pt x="1374" y="1128" on="1"/>
        <pt x="1278" y="1014" on="1"/>
        <pt x="1371" y="936" on="0"/>
        <pt x="1475" y="703" on="0"/>
        <pt x="1475" y="565" on="1"/>
        <pt x="1475" y="448" on="0"/>
        <pt x="1401" y="243" on="0"/>
        <pt x="1264" y="89" on="0"/>
        <pt x="1073" y="0" on="0"/>
        <pt x="956" y="0" on="1"/>
        <pt x="600" y="0" on="1"/>
        <pt x="558" y="0" on="0"/>
        <pt x="482" y="12" on="0"/>
        <pt x="444" y="23" on="1"/>
        <pt x="426" y="0" on="1"/>
        <pt x="182" y="0" on="1"/>
        <pt x="276" y="113" on="1"/>
        <pt x="183" y="191" on="0"/>
        <pt x="80" y="427" on="0"/>
        <pt x="80" y="565" on="1"/>
        <pt x="80" y="681" on="0"/>
        <pt x="154" y="885" on="0"/>
        <pt x="291" y="1038" on="0"/>
        <pt x="483" y="1126" on="0"/>
        <pt x="600" y="1126" on="1"/>
        <pt x="956" y="1126" on="1"/>
        <pt x="997" y="1126" on="0"/>
        <pt x="1075" y="1115" on="0"/>
        <pt x="1110" y="1104" on="1"/>
        <pt x="1130" y="1128" on="1"/>
      </contour>
      <contour>
        <pt x="600" y="924" on="1"/>
        <pt x="526" y="924" on="0"/>
        <pt x="409" y="867" on="0"/>
        <pt x="328" y="770" on="0"/>
        <pt x="285" y="639" on="0"/>
        <pt x="285" y="565" on="1"/>
        <pt x="285" y="472" on="0"/>
        <pt x="348" y="320" on="0"/>
        <pt x="408" y="270" on="1"/>
        <pt x="958" y="924" on="1"/>
        <pt x="956" y="924" on="1"/>
      </contour>
      <contour>
        <pt x="1270" y="565" on="1"/>
        <pt x="1270" y="656" on="0"/>
        <pt x="1206" y="809" on="0"/>
        <pt x="1147" y="858" on="1"/>
        <pt x="598" y="205" on="1"/>
        <pt x="600" y="205" on="1"/>
        <pt x="956" y="205" on="1"/>
        <pt x="1030" y="205" on="0"/>
        <pt x="1146" y="262" on="0"/>
        <pt x="1227" y="360" on="0"/>
        <pt x="1270" y="491" on="0"/>
      </contour>
    </TTGlyph>
    <TTGlyph name="oslashacute" xMin="80" yMin="0" xMax="1475" yMax="1571">
      <component glyphName="oslash" x="0" y="0" flags="0x204"/>
      <component glyphName="acute" x="770" y="41" flags="0x4"/>
    </TTGlyph>
    <TTGlyph name="otilde" xMin="80" yMin="0" xMax="1475" yMax="1503">
      <component glyphName="o" x="0" y="0" flags="0x204"/>
      <component glyphName="tilde" x="492" y="41" flags="0x4"/>
    </TTGlyph>
</ttFont>
